<svg width="27" height="230" viewBox="0 0 27 230" fill="none" xmlns="http://www.w3.org/2000/svg">
<rect y="230" width="48" height="4" rx="2" transform="rotate(-90 0 230)" fill="#F4F4F4"/>
<path d="M19.048 226.16C19.3893 226.107 19.6827 225.995 19.928 225.824C20.1733 225.643 20.3653 225.408 20.504 225.12C20.632 224.832 20.696 224.491 20.696 224.096C20.696 223.819 20.6587 223.573 20.584 223.36C20.5093 223.147 20.4027 222.981 20.264 222.864C20.1147 222.747 19.9387 222.693 19.736 222.704C19.4267 222.715 19.1813 222.864 19 223.152C18.808 223.44 18.6267 223.957 18.456 224.704C18.1147 226.176 17.6613 227.275 17.096 228C16.5307 228.715 15.8 229.072 14.904 229.072C14.1893 229.072 13.5707 228.88 13.048 228.496C12.5147 228.101 12.104 227.552 11.816 226.848C11.528 226.144 11.384 225.317 11.384 224.368C11.384 223.515 11.5493 222.752 11.88 222.08C12.2107 221.397 12.68 220.853 13.288 220.448C13.8853 220.032 14.584 219.776 15.384 219.68L15.512 222.768C15.1707 222.789 14.8773 222.875 14.632 223.024C14.376 223.173 14.184 223.371 14.056 223.616C13.928 223.851 13.864 224.133 13.864 224.464C13.864 224.912 13.9653 225.275 14.168 225.552C14.3707 225.819 14.6373 225.931 14.968 225.888C15.1707 225.877 15.3467 225.797 15.496 225.648C15.6347 225.499 15.752 225.307 15.848 225.072C15.9333 224.837 16.0187 224.533 16.104 224.16L16.152 223.968C16.4293 222.517 16.8613 221.419 17.448 220.672C18.0347 219.915 18.7813 219.536 19.688 219.536C20.4133 219.536 21.0427 219.733 21.576 220.128C22.0987 220.512 22.4987 221.051 22.776 221.744C23.0533 222.437 23.192 223.237 23.192 224.144C23.192 225.125 23.032 225.995 22.712 226.752C22.392 227.509 21.928 228.107 21.32 228.544C20.712 228.981 20.0027 229.227 19.192 229.28L19.048 226.16ZM11.64 209.67H14.152L14.152 214.934H16.056L16.056 209.862H18.552L18.552 214.934H20.488L20.488 209.542H23L23 218.086H11.64L11.64 209.67ZM11.64 202.521C11.64 201.732 11.768 201.017 12.024 200.377C12.28 199.737 12.664 199.231 13.176 198.857C13.688 198.484 14.3067 198.297 15.032 198.297C15.576 198.297 16.0507 198.393 16.456 198.585C16.8507 198.777 17.1707 199.065 17.416 199.449C17.6613 199.823 17.832 200.281 17.928 200.825L17.816 200.938C17.816 200.127 17.976 199.524 18.296 199.129C18.6053 198.735 19.1067 198.511 19.8 198.457L23 198.201V201.353L20.376 201.529C19.9067 201.551 19.5813 201.684 19.4 201.929C19.2187 202.175 19.128 202.569 19.128 203.113V204.793H23V207.945H11.64L11.64 202.521ZM16.6 203.097C16.6 202.575 16.4987 202.18 16.296 201.913C16.0933 201.636 15.7893 201.497 15.384 201.497C14.9893 201.497 14.6853 201.636 14.472 201.913C14.2587 202.18 14.152 202.575 14.152 203.097V204.793H16.6V203.097ZM11.64 194.384L19.448 191.696L11.64 189.024V185.824L23 189.92L23 193.472L11.64 197.568V194.384ZM11.64 181.231H23V184.383H11.64V181.231ZM18.68 168.872C20.1627 169.118 21.2987 169.694 22.088 170.6C22.8667 171.496 23.256 172.643 23.256 174.04C23.256 175.16 23.0053 176.152 22.504 177.016C21.992 177.88 21.288 178.552 20.392 179.032C19.4853 179.512 18.4667 179.752 17.336 179.752C16.2053 179.752 15.1867 179.518 14.28 179.048C13.3733 178.568 12.664 177.896 12.152 177.032C11.64 176.158 11.384 175.16 11.384 174.04C11.384 172.654 11.768 171.512 12.536 170.616C13.2933 169.71 14.392 169.134 15.832 168.888L15.944 172.136C15.2933 172.243 14.792 172.472 14.44 172.824C14.0773 173.166 13.896 173.598 13.896 174.12C13.896 174.654 14.04 175.102 14.328 175.464C14.6053 175.816 15.0053 176.083 15.528 176.264C16.04 176.446 16.6427 176.536 17.336 176.536C18.0293 176.536 18.632 176.446 19.144 176.264C19.6453 176.083 20.04 175.811 20.328 175.448C20.6053 175.086 20.744 174.643 20.744 174.12C20.744 173.587 20.5573 173.15 20.184 172.808C19.8 172.456 19.2667 172.232 18.584 172.136L18.68 168.872ZM11.64 159.014H14.152V164.278H16.056L16.056 159.206H18.552L18.552 164.278H20.488L20.488 158.886H23L23 167.43H11.64L11.64 159.014ZM19.048 154.441C19.3893 154.388 19.6827 154.276 19.928 154.105C20.1733 153.924 20.3653 153.689 20.504 153.401C20.632 153.113 20.696 152.772 20.696 152.377C20.696 152.1 20.6587 151.855 20.584 151.641C20.5093 151.428 20.4027 151.263 20.264 151.145C20.1147 151.028 19.9387 150.975 19.736 150.985C19.4267 150.996 19.1813 151.145 19 151.433C18.808 151.721 18.6267 152.239 18.456 152.985C18.1147 154.457 17.6613 155.556 17.096 156.281C16.5307 156.996 15.8 157.353 14.904 157.353C14.1893 157.353 13.5707 157.161 13.048 156.777C12.5147 156.383 12.104 155.833 11.816 155.129C11.528 154.425 11.384 153.599 11.384 152.649C11.384 151.796 11.5493 151.033 11.88 150.361C12.2107 149.679 12.68 149.135 13.288 148.729C13.8853 148.313 14.584 148.057 15.384 147.961L15.512 151.049C15.1707 151.071 14.8773 151.156 14.632 151.305C14.376 151.455 14.184 151.652 14.056 151.897C13.928 152.132 13.864 152.415 13.864 152.745C13.864 153.193 13.9653 153.556 14.168 153.833C14.3707 154.1 14.6373 154.212 14.968 154.169C15.1707 154.159 15.3467 154.079 15.496 153.929C15.6347 153.78 15.752 153.588 15.848 153.353C15.9333 153.119 16.0187 152.815 16.104 152.441L16.152 152.249C16.4293 150.799 16.8613 149.7 17.448 148.953C18.0347 148.196 18.7813 147.817 19.688 147.817C20.4133 147.817 21.0427 148.015 21.576 148.409C22.0987 148.793 22.4987 149.332 22.776 150.025C23.0533 150.719 23.192 151.519 23.192 152.425C23.192 153.407 23.032 154.276 22.712 155.033C22.392 155.791 21.928 156.388 21.32 156.825C20.712 157.263 20.0027 157.508 19.192 157.561L19.048 154.441ZM11.64 139.528H23V142.68H11.64L11.64 139.528ZM11.64 129.269C11.64 128.33 11.8 127.514 12.12 126.821C12.4293 126.128 12.8773 125.6 13.464 125.237C14.0507 124.864 14.7387 124.677 15.528 124.677C16.3173 124.677 17.0053 124.864 17.592 125.237C18.1787 125.6 18.6267 126.128 18.936 126.821C19.2453 127.514 19.4 128.33 19.4 129.269V130.981H23L23 134.133H11.64L11.64 129.269ZM16.888 129.509C16.888 129.008 16.7707 128.613 16.536 128.325C16.3013 128.026 15.9653 127.877 15.528 127.877C15.08 127.877 14.7387 128.026 14.504 128.325C14.2693 128.613 14.152 129.008 14.152 129.509L14.152 130.981H16.888V129.509ZM11.64 117.74C11.64 116.951 11.768 116.236 12.024 115.596C12.28 114.956 12.664 114.45 13.176 114.076C13.688 113.703 14.3067 113.516 15.032 113.516C15.576 113.516 16.0507 113.612 16.456 113.804C16.8507 113.996 17.1707 114.284 17.416 114.668C17.6613 115.042 17.832 115.5 17.928 116.044L17.816 116.156C17.816 115.346 17.976 114.743 18.296 114.348C18.6053 113.954 19.1067 113.73 19.8 113.676L23 113.42V116.572L20.376 116.748C19.9067 116.77 19.5813 116.903 19.4 117.148C19.2187 117.394 19.128 117.788 19.128 118.332V120.012H23V123.164H11.64L11.64 117.74ZM16.6 118.316C16.6 117.794 16.4987 117.399 16.296 117.132C16.0933 116.855 15.7893 116.716 15.384 116.716C14.9893 116.716 14.6853 116.855 14.472 117.132C14.2587 117.399 14.152 117.794 14.152 118.316V120.012H16.6V118.316ZM23.256 106.649C23.256 107.843 23.016 108.873 22.536 109.737C22.056 110.601 21.3733 111.262 20.488 111.721C19.592 112.179 18.5413 112.409 17.336 112.409C16.12 112.409 15.064 112.179 14.168 111.721C13.272 111.262 12.584 110.601 12.104 109.737C11.624 108.873 11.384 107.843 11.384 106.649C11.384 105.465 11.624 104.441 12.104 103.577C12.584 102.713 13.272 102.051 14.168 101.593C15.064 101.134 16.12 100.905 17.336 100.905C18.5413 100.905 19.592 101.134 20.488 101.593C21.3733 102.051 22.056 102.713 22.536 103.577C23.016 104.441 23.256 105.465 23.256 106.649ZM20.744 106.649C20.744 106.115 20.6107 105.662 20.344 105.289C20.0667 104.905 19.6773 104.617 19.176 104.425C18.664 104.222 18.0507 104.121 17.336 104.121C16.6107 104.121 15.992 104.222 15.48 104.425C14.968 104.617 14.5787 104.905 14.312 105.289C14.0347 105.662 13.896 106.115 13.896 106.649C13.896 107.171 14.0347 107.625 14.312 108.009C14.5787 108.382 14.968 108.67 15.48 108.873C15.992 109.065 16.6107 109.161 17.336 109.161C18.0507 109.161 18.664 109.065 19.176 108.873C19.6773 108.67 20.0667 108.382 20.344 108.009C20.6107 107.625 20.744 107.171 20.744 106.649ZM18.808 89.6877C19.704 89.6877 20.488 89.8904 21.16 90.2957C21.832 90.7011 22.3493 91.2771 22.712 92.0237C23.0747 92.7597 23.256 93.6344 23.256 94.6477C23.256 95.6504 23.0747 96.5251 22.712 97.2717C22.3493 98.0077 21.832 98.5784 21.16 98.9837C20.488 99.3891 19.704 99.5917 18.808 99.5917H11.624L11.624 96.4397H18.808C19.448 96.4397 19.9333 96.2851 20.264 95.9757C20.584 95.6557 20.744 95.2131 20.744 94.6477C20.744 94.0717 20.584 93.6291 20.264 93.3197C19.9333 92.9997 19.448 92.8397 18.808 92.8397H11.624L11.624 89.6877H18.808ZM11.64 83.7695C11.64 81.8602 12.136 80.3935 13.128 79.3695C14.1093 78.3455 15.512 77.8335 17.336 77.8335C19.1493 77.8335 20.5467 78.3402 21.528 79.3535C22.5093 80.3562 23 81.7962 23 83.6735L23 87.9455H11.64L11.64 83.7695ZM20.488 83.7695C20.488 82.8202 20.232 82.1215 19.72 81.6735C19.1973 81.2255 18.3973 81.0015 17.32 81.0015C16.2427 81.0015 15.448 81.2255 14.936 81.6735C14.4133 82.1215 14.152 82.8202 14.152 83.7695V84.7935H20.488V83.7695ZM11.64 76.5392V73.3872H22.344L20.488 75.1952V68.4592H23V76.5392H11.64ZM11.64 65.4889L15.848 63.3769L11.64 61.2969L11.64 57.9209L18.744 61.8089H23V64.9609H18.744L11.64 68.8649V65.4889ZM23.256 47.7425C23.256 48.9372 23.016 49.9665 22.536 50.8305C22.056 51.6945 21.3733 52.3558 20.488 52.8145C19.592 53.2732 18.5413 53.5025 17.336 53.5025C16.12 53.5025 15.064 53.2732 14.168 52.8145C13.272 52.3558 12.584 51.6945 12.104 50.8305C11.624 49.9665 11.384 48.9372 11.384 47.7425C11.384 46.5585 11.624 45.5345 12.104 44.6705C12.584 43.8065 13.272 43.1452 14.168 42.6865C15.064 42.2278 16.12 41.9985 17.336 41.9985C18.5413 41.9985 19.592 42.2278 20.488 42.6865C21.3733 43.1452 22.056 43.8065 22.536 44.6705C23.016 45.5345 23.256 46.5585 23.256 47.7425ZM20.744 47.7425C20.744 47.2092 20.6107 46.7558 20.344 46.3825C20.0667 45.9985 19.6773 45.7105 19.176 45.5185C18.664 45.3158 18.0507 45.2145 17.336 45.2145C16.6107 45.2145 15.992 45.3158 15.48 45.5185C14.968 45.7105 14.5787 45.9985 14.312 46.3825C14.0347 46.7558 13.896 47.2092 13.896 47.7425C13.896 48.2652 14.0347 48.7185 14.312 49.1025C14.5787 49.4758 14.968 49.7638 15.48 49.9665C15.992 50.1585 16.6107 50.2545 17.336 50.2545C18.0507 50.2545 18.664 50.1585 19.176 49.9665C19.6773 49.7638 20.0667 49.4758 20.344 49.1025C20.6107 48.7185 20.744 48.2652 20.744 47.7425ZM11.64 32.4227H14.152L14.152 39.3827L12.296 37.5747H17.496L16.2 39.3827V32.7107H18.696V39.3827L17.4 37.5747H23V40.7267H11.64L11.64 32.4227ZM11.64 22.5946H14.152L14.152 29.5546L12.296 27.7466H17.496L16.2 29.5546L16.2 22.8826H18.696L18.696 29.5546L17.4 27.7466H23V30.8986H11.64L11.64 22.5946ZM11.64 12.6545H14.152V17.9185H16.056V12.8465H18.552V17.9185H20.488V12.5265H23V21.0705H11.64L11.64 12.6545ZM11.64 5.50587C11.64 4.71654 11.768 4.00187 12.024 3.36187C12.28 2.72187 12.664 2.21521 13.176 1.84187C13.688 1.46854 14.3067 1.28187 15.032 1.28187C15.576 1.28187 16.0507 1.37787 16.456 1.56987C16.8507 1.76187 17.1707 2.04987 17.416 2.43387C17.6613 2.80721 17.832 3.26587 17.928 3.80987L17.816 3.92188C17.816 3.11121 17.976 2.50854 18.296 2.11387C18.6053 1.71921 19.1067 1.49521 19.8 1.44187L23 1.18587L23 4.33787L20.376 4.51387C19.9067 4.53521 19.5813 4.66854 19.4 4.91387C19.2187 5.15921 19.128 5.55387 19.128 6.09787V7.77787H23V10.9299H11.64L11.64 5.50587ZM16.6 6.08187C16.6 5.55921 16.4987 5.16454 16.296 4.89787C16.0933 4.62054 15.7893 4.48187 15.384 4.48187C14.9893 4.48187 14.6853 4.62054 14.472 4.89787C14.2587 5.16454 14.152 5.55921 14.152 6.08187V7.77787H16.6V6.08187Z" fill="#F4F4F4"/>
</svg>
