<svg width="32" height="32" viewBox="0 0 32 32" fill="none" xmlns="http://www.w3.org/2000/svg">
<g clip-path="url(#clip0_1435_741)">
<path d="M29.3333 16.0003C29.3356 17.7565 28.9898 19.4958 28.3159 21.1176C27.642 22.7394 26.6535 24.2115 25.4073 25.449C24.1713 26.6828 22.7044 27.6609 21.0902 28.3275C19.476 28.994 17.7463 29.3359 16 29.3337C8.63597 29.3337 2.66664 23.3643 2.66664 16.0003C2.66198 12.5815 3.97522 9.29244 6.3333 6.817C7.57753 5.50407 9.07658 4.45883 10.7387 3.74526C12.4009 3.03168 14.1911 2.66478 16 2.667C17.7463 2.66474 19.476 3.00666 21.0902 3.67321C22.7044 4.33976 24.1713 5.31789 25.4073 6.55167C26.6535 7.78915 27.642 9.26132 28.3159 10.8831C28.9898 12.5049 29.3356 14.2441 29.3333 16.0003Z" stroke="black" stroke-width="4" stroke-linecap="round" stroke-linejoin="round"/>
<path d="M29.3333 16.0004C27.388 16.0004 22.0213 15.267 17.218 17.3757C12 19.667 8.22198 23.2217 6.57532 25.4317" stroke="black" stroke-width="4" stroke-linecap="round" stroke-linejoin="round"/>
<path d="M11 3.63672C13.0867 5.56272 17.64 10.4661 19.3333 15.3341C21.0267 20.2021 21.6533 26.1874 22.04 27.8907" stroke="black" stroke-width="4" stroke-linecap="round" stroke-linejoin="round"/>
<path d="M2.76929 14.3335C5.28795 14.4855 11.9553 14.6221 16.222 12.8001C20.4886 10.9781 24.16 7.62681 25.4193 6.56348M3.66662 21.0755C4.8415 23.9194 6.96042 26.2716 9.66662 27.7361" stroke="black" stroke-width="4" stroke-linecap="round" stroke-linejoin="round"/>
<path d="M2.66664 16.0003C2.66198 12.5815 3.97522 9.29244 6.3333 6.817C7.57753 5.50407 9.07658 4.45883 10.7387 3.74526C12.4009 3.03168 14.1911 2.66478 16 2.667M21.3333 3.77634C22.8517 4.44069 24.2332 5.38183 25.4073 6.55167C26.6535 7.78915 27.642 9.26132 28.3159 10.8831C28.9898 12.5049 29.3356 14.2441 29.3333 16.0003C29.3333 17.6417 29.0366 19.2143 28.4933 20.667M16 29.3337C17.7463 29.3359 19.476 28.994 21.0902 28.3275C22.7044 27.6609 24.1713 26.6828 25.4073 25.449" stroke="black" stroke-width="4" stroke-linecap="round" stroke-linejoin="round"/>
</g>
<defs>
<clipPath id="clip0_1435_741">
<rect width="32" height="32" fill="white"/>
</clipPath>
</defs>
</svg>
