<svg width="72" height="72" viewBox="0 0 72 72" fill="none" xmlns="http://www.w3.org/2000/svg">
<rect width="72" height="72" rx="8" fill="#19B3A7" fill-opacity="0.5"/>
<path d="M52.1532 22.0315C52.1532 23.3158 52.1532 24.6002 52.1532 25.8846C52.3875 25.6502 52.6219 25.4158 52.8563 25.1815C49.0125 25.1815 45.1782 25.1815 41.3344 25.1815C36.0282 25.1815 30.7219 25.1815 25.4157 25.1815C24.9282 25.1815 24.4407 25.1815 23.9532 25.1815C24.1875 25.4158 24.4219 25.6502 24.6563 25.8846C24.6563 24.7221 24.6563 23.569 24.6563 22.4065C24.6563 21.769 24.7125 21.169 25.0032 20.5783C25.4532 19.6971 26.2782 19.1346 27.225 18.9283C27.7219 18.8158 28.3032 18.8815 28.8188 18.8815C29.8219 18.8815 30.8344 18.8815 31.8375 18.8815C37.2188 18.8815 42.5907 18.8815 47.9719 18.8815C48.3094 18.8815 48.6469 18.8815 48.9844 18.8815C50.7469 18.8815 52.125 20.3158 52.1532 22.0315C52.1719 22.9408 53.5782 22.9408 53.5594 22.0315C53.5219 19.819 51.9188 17.869 49.7063 17.5315C49.1438 17.4471 48.5625 17.4752 47.9907 17.4752C45.5719 17.4752 43.1532 17.4752 40.7344 17.4752C37.7719 17.4752 34.8188 17.4752 31.8563 17.4752C30.8532 17.4752 29.8407 17.4752 28.8375 17.4752C28.2657 17.4752 27.6844 17.4471 27.1219 17.5315C24.8625 17.869 23.2688 19.8752 23.2688 22.1252C23.2688 23.3721 23.2688 24.6283 23.2688 25.8752C23.2688 26.2596 23.5875 26.5783 23.9719 26.5783C27.8157 26.5783 31.65 26.5783 35.4938 26.5783C40.8 26.5783 46.1063 26.5783 51.4125 26.5783C51.9 26.5783 52.3875 26.5783 52.875 26.5783C53.2594 26.5783 53.5782 26.2596 53.5782 25.8752C53.5782 24.5908 53.5782 23.3065 53.5782 22.0221C53.5594 21.1221 52.1532 21.1221 52.1532 22.0315Z" fill="#EEEEEE"/>
<path d="M52.8562 22.7344C53.7656 22.7344 53.7656 21.3281 52.8562 21.3281C51.9469 21.3281 51.9469 22.7344 52.8562 22.7344ZM24.6656 51.8906C24.6656 47.7188 24.6656 43.5469 24.6656 39.3656C24.6656 38.4562 23.2594 38.4562 23.2594 39.3656C23.2594 43.5375 23.2594 47.7094 23.2594 51.8906C23.2594 52.8 24.6656 52.8 24.6656 51.8906ZM53.5594 51.8906C53.5594 47.8219 53.5594 43.7531 53.5594 39.6844C53.5594 35.1281 53.5594 30.5719 53.5594 26.0156C53.5594 25.9781 53.5594 25.9312 53.5594 25.8937C53.5594 25.5094 53.2406 25.1906 52.8562 25.1906C49.0125 25.1906 45.1781 25.1906 41.3344 25.1906C36.0281 25.1906 30.7219 25.1906 25.4156 25.1906C24.9281 25.1906 24.4406 25.1906 23.9531 25.1906C23.5688 25.1906 23.25 25.5094 23.25 25.8937C23.25 29.7469 23.25 33.6 23.25 37.4531C23.25 38.3625 24.6562 38.3625 24.6562 37.4531C24.6562 33.6 24.6562 29.7469 24.6562 25.8937C24.4219 26.1281 24.1875 26.3625 23.9531 26.5969C27.7969 26.5969 31.6312 26.5969 35.475 26.5969C40.7812 26.5969 46.0875 26.5969 51.3938 26.5969C51.8813 26.5969 52.3687 26.5969 52.8562 26.5969C52.6219 26.3625 52.3875 26.1281 52.1531 25.8937C52.1531 29.9625 52.1531 34.0312 52.1531 38.1C52.1531 42.6562 52.1531 47.2125 52.1531 51.7688C52.1531 51.8063 52.1531 51.8531 52.1531 51.8906C52.1531 52.8 53.5594 52.8 53.5594 51.8906Z" fill="#EEEEEE"/>
<path d="M57.675 53.1186C54.4969 53.1186 51.3281 53.1186 48.15 53.1186C42.1312 53.1186 36.1031 53.1186 30.0844 53.1186C26.4656 53.1186 22.8469 53.1186 19.2281 53.1186C18.7781 53.1186 18.825 52.6029 19.2469 52.6029C19.6594 52.6029 20.0625 52.6029 20.475 52.6029C22.3875 52.6029 24.3094 52.6029 26.2219 52.6029C32.1469 52.6029 38.0719 52.6029 43.9969 52.6029C48.3281 52.6029 52.6687 52.6029 57 52.6029C57.1969 52.6029 57.3844 52.6029 57.5812 52.6029C57.9281 52.5936 58.0969 53.0904 57.675 53.1186C56.775 53.1748 56.7656 54.5811 57.675 54.5248C58.9687 54.4404 59.6625 53.2123 59.1281 52.0498C58.875 51.4967 58.2094 51.1873 57.6281 51.1873C57.2812 51.1873 56.9344 51.1873 56.5781 51.1873C54.75 51.1873 52.9219 51.1873 51.0937 51.1873C45.2062 51.1873 39.3281 51.1873 33.4406 51.1873C28.9594 51.1873 24.4781 51.1873 19.9969 51.1873C19.7156 51.1873 19.425 51.1873 19.1437 51.1873C18.1781 51.1873 17.4187 52.0217 17.475 52.9779C17.5312 53.8498 18.2906 54.5248 19.1531 54.5248C20.175 54.5248 21.1969 54.5248 22.2094 54.5248C27.5625 54.5248 32.9062 54.5248 38.2594 54.5248C43.65 54.5248 49.0406 54.5248 54.4312 54.5248C55.5094 54.5248 56.5875 54.5248 57.6656 54.5248C58.575 54.5248 58.575 53.1186 57.675 53.1186ZM41.2969 22.2936C40.2281 22.2936 39.15 22.2936 38.0812 22.2936C37.4156 22.2936 36.75 22.2936 36.0844 22.2936C35.8406 22.2936 35.2781 22.4061 35.2594 22.0311C35.2406 21.6654 35.8781 21.7686 36.0844 21.7686C36.75 21.7686 37.4156 21.7686 38.0812 21.7686C39.15 21.7686 40.2281 21.7686 41.2969 21.7686C41.6437 21.7686 41.6344 22.2748 41.2969 22.2936C40.3969 22.3498 40.3875 23.7561 41.2969 23.6998C42.5906 23.6154 43.2844 22.3873 42.75 21.2248C42.4406 20.5592 41.6906 20.3623 41.025 20.3623C39.6844 20.3623 38.3437 20.3623 37.0031 20.3623C36.525 20.3623 36.0469 20.3623 35.5781 20.3623C34.6031 20.3623 33.9 21.0748 33.8437 22.0311C33.7875 22.9873 34.6969 23.6998 35.5781 23.6998C36.0562 23.6998 36.5344 23.6998 37.0031 23.6998C38.4281 23.6998 39.8531 23.6998 41.2875 23.6998C42.2062 23.6998 42.2062 22.2936 41.2969 22.2936ZM29.7375 31.4061C30.6469 31.4061 30.6469 29.9998 29.7375 29.9998C28.8281 29.9998 28.8281 31.4061 29.7375 31.4061Z" fill="#EEEEEE"/>
<path d="M30.1406 37.181C31.2562 37.181 32.3719 37.181 33.4875 37.181C34.4719 37.181 35.2031 36.506 35.2687 35.5123C35.2969 35.0623 35.2687 34.5935 35.2687 34.1341C35.2687 33.431 35.2687 32.7373 35.2687 32.0341C35.2687 31.2841 35.1 30.6279 34.4062 30.1966C33.9281 29.906 33.2719 29.9904 32.7375 29.9904C32.0062 29.9904 31.2656 29.9904 30.5344 29.9904C30.0375 29.9904 29.5125 29.9341 29.0438 30.1498C28.3313 30.4779 28.0781 31.1623 28.0781 31.8935C28.0781 32.9623 28.0781 34.0404 28.0781 35.1091C28.0781 36.0185 29.4844 36.0185 29.4844 35.1091C29.4844 33.9935 29.4844 32.8779 29.4844 31.7623C29.4844 31.3498 29.8031 31.3873 30.1219 31.3873C30.825 31.3873 31.5187 31.3873 32.2219 31.3873C32.6812 31.3873 33.1406 31.3873 33.6 31.3873C34.0031 31.3873 33.8625 32.2029 33.8625 32.4373C33.8625 33.1685 33.8625 33.9091 33.8625 34.6404C33.8625 34.9216 34.0031 35.6435 33.6562 35.756C33.5062 35.8029 33.2812 35.756 33.1312 35.756C32.7469 35.756 32.3531 35.756 31.9688 35.756C31.3594 35.756 30.7594 35.756 30.15 35.756C29.2313 35.7748 29.2313 37.181 30.1406 37.181Z" fill="#EEEEEE"/>
<path d="M28.1343 38.7376C29.4562 39.3283 31.0687 39.1126 32.475 39.1126C32.9718 39.1126 33.4781 39.1408 33.9656 39.0845C35.0812 38.9626 36.0375 38.3345 36.6468 37.397C37.4156 36.2158 37.1812 34.5564 37.1812 33.2158C37.1812 32.7001 37.1812 32.1845 37.1812 31.6689C37.1812 30.647 36.7406 29.6814 36 28.997C34.8281 27.9189 33.3093 28.0689 31.8468 28.0689C30.4687 28.0689 28.9593 27.872 27.75 28.6689C26.8593 29.2501 26.2781 30.2345 26.1656 31.2845C26.1093 31.7814 26.1375 32.2876 26.1375 32.7751C26.1375 34.1908 25.9312 35.8033 26.5125 37.1158C26.6718 37.4626 27.1687 37.547 27.4781 37.3689C27.8343 37.1626 27.8906 36.7595 27.7312 36.4033C27.4875 35.8595 27.5437 35.2314 27.5437 34.6501C27.5437 33.9189 27.5437 33.1783 27.5437 32.447C27.5437 31.9033 27.5156 31.3876 27.6937 30.8626C27.975 30.0189 28.875 29.4751 29.7375 29.4751C30.9093 29.4751 32.0906 29.4751 33.2625 29.4751C33.9 29.4751 34.4906 29.5595 34.9968 29.9908C35.5593 30.4689 35.7656 31.1251 35.7656 31.8376C35.7656 32.8501 35.7656 33.8626 35.7656 34.8751C35.7656 35.1845 35.7937 35.522 35.7468 35.8314C35.6343 36.5626 35.1843 37.1345 34.5375 37.4814C33.7968 37.8845 32.6437 37.7064 31.8375 37.7064C31.3031 37.7064 30.7593 37.7064 30.225 37.7064C29.7468 37.7064 29.2875 37.7251 28.8375 37.5189C28.4906 37.3595 28.0875 37.4158 27.8718 37.772C27.7125 38.072 27.7875 38.5783 28.1343 38.7376ZM40.3312 30.0001C40.0125 30.0001 39.6937 30.0001 39.375 30.0001C39.0281 30.0001 39.0187 29.5033 39.3656 29.4845C39.6843 29.4658 40.0031 29.4845 40.3218 29.4845C40.6687 29.4751 40.6781 29.9814 40.3312 30.0001C39.4312 30.0564 39.4218 31.4626 40.3312 31.4064C41.6906 31.322 42.5062 29.8126 41.6156 28.697C41.0531 27.9845 40.1718 28.0783 39.3656 28.0783C37.9687 28.0783 37.2375 29.7189 38.0812 30.7876C38.6437 31.5001 39.525 31.4064 40.3312 31.4064C41.2406 31.4064 41.2406 30.0001 40.3312 30.0001ZM49.0031 30.0001C47.9906 30.0001 46.9687 30.0001 45.9562 30.0001C45.4218 30.0001 44.8968 30.0001 44.3625 30.0001C44.2875 30.0001 44.1656 30.0189 44.0906 29.9814C43.8281 29.8595 43.9125 29.4939 44.1843 29.4751C45.1968 29.4095 46.2281 29.4751 47.2312 29.4751C47.7656 29.4751 48.2906 29.4751 48.825 29.4751C48.9 29.4751 49.0218 29.4564 49.0968 29.4939C49.3593 29.6158 49.2843 29.9814 49.0031 30.0001C48.1031 30.0564 48.0937 31.4626 49.0031 31.4064C50.2968 31.322 50.9906 30.0939 50.4562 28.9314C50.1375 28.2376 49.3687 28.0689 48.6937 28.0689C47.3625 28.0689 46.0406 28.0689 44.7093 28.0689C44.0812 28.0689 43.575 28.1064 43.05 28.5189C42.0656 29.2876 42.5437 30.9564 43.65 31.3126C44.0906 31.4533 44.5875 31.4064 45.0468 31.4064C45.7781 31.4064 46.5093 31.4064 47.2406 31.4064C47.8312 31.4064 48.4218 31.4064 49.0031 31.4064C49.9125 31.4064 49.9125 30.0001 49.0031 30.0001ZM49.0031 37.7064C48.6843 37.7064 48.3656 37.7064 48.0468 37.7064C47.7 37.7064 47.6906 37.2095 48.0375 37.1908C48.3562 37.172 48.675 37.1908 48.9937 37.1908C49.3406 37.1814 49.35 37.6876 49.0031 37.7064C48.1031 37.7626 48.0937 39.1689 49.0031 39.1126C50.3625 39.0283 51.1781 37.5189 50.2875 36.4033C49.725 35.6908 48.8437 35.7845 48.0375 35.7845C46.6406 35.7845 45.9093 37.4251 46.7531 38.4939C47.3156 39.2064 48.1968 39.1126 49.0031 39.1126C49.9125 39.1126 49.9125 37.7064 49.0031 37.7064ZM44.1843 37.7064C43.1718 37.7064 42.15 37.7064 41.1375 37.7064C40.6031 37.7064 40.0781 37.7064 39.5437 37.7064C39.4687 37.7064 39.3468 37.7251 39.2718 37.6876C39.0093 37.5658 39.0937 37.2001 39.3656 37.1814C40.3781 37.1158 41.4093 37.1814 42.4125 37.1814C42.9468 37.1814 43.4718 37.1814 44.0062 37.1814C44.0812 37.1814 44.2031 37.1626 44.2781 37.2001C44.55 37.322 44.4656 37.6876 44.1843 37.7064C43.2843 37.7626 43.275 39.1689 44.1843 39.1126C45.4781 39.0283 46.1718 37.8001 45.6375 36.6376C45.3187 35.9439 44.55 35.7751 43.875 35.7751C42.5437 35.7751 41.2218 35.7751 39.8906 35.7751C39.2625 35.7751 38.7562 35.8126 38.2312 36.2251C37.2468 36.9939 37.725 38.6626 38.8312 39.0189C39.2718 39.1595 39.7687 39.1126 40.2281 39.1126C40.9593 39.1126 41.6906 39.1126 42.4218 39.1126C43.0125 39.1126 43.6031 39.1126 44.1843 39.1126C45.0937 39.1126 45.0937 37.7064 44.1843 37.7064ZM49.0031 33.8533C46.7156 33.8533 44.4375 33.8533 42.15 33.8533C41.2312 33.8533 40.3218 33.8533 39.4031 33.8533C39.0187 33.8533 39.0375 33.3376 39.4125 33.3376C39.7312 33.3376 40.05 33.3376 40.3687 33.3376C42.3187 33.3376 44.2687 33.3376 46.2187 33.3376C46.9875 33.3376 47.7468 33.3376 48.5156 33.3376C48.6656 33.3376 48.825 33.3376 48.975 33.3376C49.3312 33.3283 49.3593 33.8345 49.0031 33.8533C48.1031 33.9095 48.0937 35.3158 49.0031 35.2595C50.2968 35.1751 50.9906 33.947 50.4562 32.7845C50.175 32.1658 49.4625 31.922 48.8343 31.922C47.7562 31.922 46.6875 31.922 45.6093 31.922C44.1375 31.922 42.6562 31.922 41.1843 31.922C40.3593 31.922 39.2062 31.7345 38.4656 32.1939C37.5187 32.7751 37.4625 34.2001 38.325 34.8751C38.7187 35.1845 39.15 35.2501 39.6281 35.2501C40.6781 35.2501 41.7187 35.2501 42.7687 35.2501C44.85 35.2501 46.9312 35.2501 49.0125 35.2501C49.9125 35.2595 49.9125 33.8533 49.0031 33.8533ZM33.5906 49.2658C32.4281 49.2658 31.275 49.2658 30.1125 49.2658C29.5031 49.2658 28.9125 49.2189 28.4156 48.8251C27.8156 48.3564 27.5531 47.6814 27.5531 46.9408C27.5531 45.722 27.5531 44.5126 27.5531 43.2939C27.5531 42.5064 27.9093 41.8126 28.5656 41.372C29.0812 41.0345 29.6531 41.0345 30.2343 41.0345C31.3312 41.0345 32.4187 41.0345 33.5156 41.0345C34.8468 41.0345 35.775 42.0564 35.775 43.3595C35.775 44.4751 35.775 45.5814 35.775 46.697C35.775 47.1658 35.7656 47.6064 35.55 48.0376C35.1843 48.797 34.425 49.247 33.5906 49.2658C32.6812 49.2845 32.6812 50.6908 33.5906 50.672C35.6531 50.6251 37.1812 48.9845 37.1812 46.9408C37.1812 45.722 37.1812 44.5126 37.1812 43.2939C37.1812 41.3064 35.5875 39.6283 33.5812 39.6283C32.3906 39.6283 31.2 39.6283 30.0093 39.6283C29.2406 39.6283 28.5281 39.7595 27.8625 40.1626C26.9156 40.7251 26.2968 41.7564 26.175 42.8439C26.0437 44.0439 26.1468 45.3001 26.1468 46.5095C26.1468 47.147 26.1562 47.7564 26.3906 48.3564C26.7937 49.397 27.6375 50.1564 28.6875 50.5126C29.25 50.7001 29.8593 50.672 30.45 50.672C31.1812 50.672 31.9125 50.672 32.6531 50.672C32.9718 50.672 33.2812 50.672 33.6 50.672C34.5 50.672 34.5 49.2658 33.5906 49.2658Z" fill="#EEEEEE"/>
<path d="M29.7375 41.5592C28.7531 41.6154 28.0687 42.3373 28.0687 43.3311C28.0687 43.9404 28.0687 44.5498 28.0687 45.1592C28.0687 45.7686 28.0687 46.3779 28.0687 46.9873C28.0687 47.9717 28.7531 48.6936 29.7375 48.7592C30.8906 48.8342 32.0625 48.7592 33.2156 48.7592C33.9656 48.7592 34.6219 48.5904 35.0531 47.8967C35.3437 47.4186 35.2594 46.7623 35.2594 46.2279C35.2594 45.3561 35.2594 44.4842 35.2594 43.6123C35.2594 43.3404 35.2594 43.0873 35.2031 42.8154C35.0625 42.0561 34.2937 41.6154 33.5906 41.5779C32.3156 41.4748 31.0125 41.5592 29.7375 41.5592C28.8281 41.5592 28.8281 42.9654 29.7375 42.9654C30.9 42.9654 32.0531 42.9654 33.2156 42.9654C33.525 42.9654 33.8531 42.9186 33.8531 43.3311C33.8531 43.9404 33.8531 44.5498 33.8531 45.1592C33.8531 45.7686 33.8531 46.3779 33.8531 46.9873C33.8531 47.3998 33.525 47.3529 33.2156 47.3529C32.0531 47.3529 30.9 47.3529 29.7375 47.3529C29.4094 47.3529 29.475 46.9311 29.475 46.7154C29.475 46.1998 29.475 45.6842 29.475 45.1686C29.475 44.6529 29.475 44.1373 29.475 43.6217C29.475 43.3873 29.4 43.0029 29.7375 42.9842C30.6375 42.9092 30.6469 41.5029 29.7375 41.5592ZM40.3312 41.5592C40.0125 41.5592 39.6937 41.5592 39.375 41.5592C39.0281 41.5592 39.0187 41.0623 39.3656 41.0436C39.6844 41.0248 40.0031 41.0436 40.3219 41.0436C40.6687 41.0342 40.6781 41.5404 40.3312 41.5592C39.4312 41.6154 39.4219 43.0217 40.3312 42.9654C41.6906 42.8811 42.5062 41.3717 41.6156 40.2561C41.0531 39.5436 40.1718 39.6373 39.3656 39.6373C37.9687 39.6373 37.2375 41.2779 38.0812 42.3467C38.6437 43.0592 39.525 42.9654 40.3312 42.9654C41.2406 42.9654 41.2406 41.5592 40.3312 41.5592ZM49.0031 41.5592C47.9906 41.5592 46.9687 41.5592 45.9562 41.5592C45.4219 41.5592 44.8969 41.5592 44.3625 41.5592C44.2875 41.5592 44.1656 41.5779 44.0906 41.5404C43.8281 41.4186 43.9125 41.0529 44.1843 41.0342C45.1968 40.9686 46.2281 41.0342 47.2312 41.0342C47.7656 41.0342 48.2906 41.0342 48.825 41.0342C48.9 41.0342 49.0219 41.0154 49.0969 41.0529C49.3594 41.1748 49.2844 41.5404 49.0031 41.5592C48.1031 41.6154 48.0937 43.0217 49.0031 42.9654C50.2969 42.8811 50.9906 41.6529 50.4562 40.4904C50.1375 39.7967 49.3687 39.6279 48.6937 39.6279C47.3625 39.6279 46.0406 39.6279 44.7093 39.6279C44.0812 39.6279 43.575 39.6654 43.05 40.0779C42.0656 40.8467 42.5437 42.5154 43.65 42.8717C44.0906 43.0123 44.5875 42.9654 45.0469 42.9654C45.7781 42.9654 46.5093 42.9654 47.2406 42.9654C47.8312 42.9654 48.4219 42.9654 49.0031 42.9654C49.9125 42.9654 49.9125 41.5592 49.0031 41.5592Z" fill="#EEEEEE"/>
<path d="M49.0032 49.2658C48.6844 49.2658 48.3657 49.2658 48.0469 49.2658C47.7001 49.2658 47.6907 48.7689 48.0376 48.7502C48.3563 48.7314 48.6751 48.7502 48.9938 48.7502C49.3407 48.7408 49.3501 49.2377 49.0032 49.2658C48.1032 49.322 48.0938 50.7283 49.0032 50.672C50.3626 50.5877 51.1782 49.0783 50.2876 47.9627C49.7251 47.2502 48.8438 47.3439 48.0376 47.3439C46.6407 47.3439 45.9094 48.9845 46.7532 50.0533C47.3157 50.7658 48.1969 50.672 49.0032 50.672C49.9126 50.672 49.9126 49.2658 49.0032 49.2658Z" fill="#EEEEEE"/>
<path d="M44.1843 49.2657C43.1718 49.2657 42.15 49.2657 41.1375 49.2657C40.6031 49.2657 40.0781 49.2657 39.5437 49.2657C39.4687 49.2657 39.3468 49.2845 39.2718 49.247C39.0093 49.1251 39.0937 48.7595 39.3656 48.7407C40.3781 48.6751 41.4093 48.7407 42.4125 48.7407C42.9468 48.7407 43.4718 48.7407 44.0062 48.7407C44.0812 48.7407 44.2031 48.722 44.2781 48.7595C44.55 48.8813 44.4656 49.247 44.1843 49.2657C43.2843 49.322 43.275 50.7282 44.1843 50.672C45.4781 50.5876 46.1718 49.3595 45.6375 48.197C45.3187 47.5032 44.55 47.3345 43.875 47.3345C42.5437 47.3345 41.2218 47.3345 39.8906 47.3345C39.2625 47.3345 38.7562 47.372 38.2312 47.7845C37.2468 48.5532 37.725 50.222 38.8312 50.5782C39.2718 50.7188 39.7687 50.672 40.2281 50.672C40.9593 50.672 41.6906 50.672 42.4218 50.672C43.0125 50.672 43.6031 50.672 44.1843 50.672C45.0937 50.672 45.0937 49.2657 44.1843 49.2657Z" fill="#EEEEEE"/>
<path d="M49.0032 45.4125C46.7157 45.4125 44.4376 45.4125 42.1501 45.4125C41.2313 45.4125 40.3219 45.4125 39.4032 45.4125C39.0188 45.4125 39.0376 44.8969 39.4126 44.8969C39.7313 44.8969 40.0501 44.8969 40.3688 44.8969C42.3188 44.8969 44.2688 44.8969 46.2188 44.8969C46.9876 44.8969 47.7469 44.8969 48.5157 44.8969C48.6657 44.8969 48.8251 44.8969 48.9751 44.8969C49.3313 44.8875 49.3594 45.3844 49.0032 45.4125C48.1032 45.4687 48.0938 46.875 49.0032 46.8187C50.2969 46.7344 50.9907 45.5062 50.4563 44.3437C50.1751 43.725 49.4626 43.4812 48.8344 43.4812C47.7563 43.4812 46.6876 43.4812 45.6094 43.4812C44.1376 43.4812 42.6563 43.4812 41.1844 43.4812C40.3594 43.4812 39.2063 43.2937 38.4657 43.7531C37.5188 44.3344 37.4626 45.7594 38.3251 46.4344C38.7188 46.7437 39.1501 46.8094 39.6282 46.8094C40.6782 46.8094 41.7188 46.8094 42.7688 46.8094C44.8501 46.8094 46.9313 46.8094 49.0126 46.8094C49.9126 46.8187 49.9126 45.4125 49.0032 45.4125Z" fill="#EEEEEE"/>
<path d="M26.8499 38.6721C22.6781 38.6721 18.5062 38.6721 14.3249 38.6721C13.9031 38.6721 14.0624 38.1564 14.4187 38.1564C14.7374 38.1564 15.0468 38.1564 15.3656 38.1564C16.6687 38.1564 17.9624 38.1564 19.2656 38.1564C21.6374 38.1564 23.9999 38.1564 26.3718 38.1564C26.7187 38.1564 26.9249 37.9783 27.1406 37.7533C27.5437 37.3502 27.9374 36.9564 28.3406 36.5533C29.2968 35.5971 30.2624 34.6314 31.2187 33.6752C31.3031 33.5908 31.3874 33.5064 31.4718 33.4221C31.6499 33.2439 31.9593 33.4127 31.9124 33.6564C31.8656 33.9002 31.4624 34.1721 31.3031 34.3314C30.2906 35.3439 29.2781 36.3564 28.2656 37.3689C27.9562 37.6783 27.6562 37.9783 27.3468 38.2877C27.2156 38.4096 27.0468 38.6533 26.8499 38.6721C25.9499 38.7283 25.9406 40.1346 26.8499 40.0783C27.9749 40.0033 28.8187 38.8033 29.5593 38.0627C30.5343 37.0877 31.5187 36.1033 32.4937 35.1283C32.8499 34.7721 33.1968 34.4439 33.2906 33.9096C33.5249 32.5971 32.1562 31.5377 30.9468 32.1002C30.5718 32.2783 30.2906 32.6158 29.9999 32.9064C29.5312 33.3752 29.0531 33.8533 28.5843 34.3221C27.7124 35.1939 26.8312 36.0752 25.9593 36.9471C26.1281 36.8814 26.2874 36.8064 26.4562 36.7408C24.3374 36.7408 22.2281 36.7408 20.1093 36.7408C18.7124 36.7408 17.3156 36.7408 15.9187 36.7408C15.1406 36.7408 14.2406 36.6189 13.5187 36.9471C12.3937 37.4627 12.4218 39.1877 13.4249 39.8064C13.7999 40.0408 14.1937 40.0783 14.6156 40.0783C15.6281 40.0783 16.6499 40.0783 17.6624 40.0783C20.4281 40.0783 23.1937 40.0783 25.9499 40.0783C26.2499 40.0783 26.5499 40.0783 26.8499 40.0783C27.7593 40.0783 27.7593 38.6721 26.8499 38.6721Z" fill="#EEEEEE"/>
</svg>
