<svg width="48" height="48" viewBox="0 0 48 48" fill="none" xmlns="http://www.w3.org/2000/svg">
<rect width="48" height="48" rx="8" fill="#166663"/>
<path d="M34.7689 14.6875C34.7689 15.5437 34.7689 16.4 34.7689 17.2562C34.9252 17.1 35.0814 16.9437 35.2377 16.7875C32.6752 16.7875 30.1189 16.7875 27.5564 16.7875C24.0189 16.7875 20.4814 16.7875 16.9439 16.7875C16.6189 16.7875 16.2939 16.7875 15.9689 16.7875C16.1252 16.9437 16.2814 17.1 16.4377 17.2562C16.4377 16.4812 16.4377 15.7125 16.4377 14.9375C16.4377 14.5125 16.4752 14.1125 16.6689 13.7187C16.9689 13.1312 17.5189 12.7562 18.1502 12.6187C18.4814 12.5437 18.8689 12.5875 19.2127 12.5875C19.8814 12.5875 20.5564 12.5875 21.2252 12.5875C24.8127 12.5875 28.3939 12.5875 31.9814 12.5875C32.2064 12.5875 32.4314 12.5875 32.6564 12.5875C33.8314 12.5875 34.7502 13.5437 34.7689 14.6875C34.7814 15.2937 35.7189 15.2937 35.7064 14.6875C35.6814 13.2125 34.6127 11.9125 33.1377 11.6875C32.7627 11.6312 32.3752 11.65 31.9939 11.65C30.3814 11.65 28.7689 11.65 27.1564 11.65C25.1814 11.65 23.2127 11.65 21.2377 11.65C20.5689 11.65 19.8939 11.65 19.2252 11.65C18.8439 11.65 18.4564 11.6312 18.0814 11.6875C16.5752 11.9125 15.5127 13.25 15.5127 14.75C15.5127 15.5812 15.5127 16.4187 15.5127 17.25C15.5127 17.5062 15.7252 17.7187 15.9814 17.7187C18.5439 17.7187 21.1002 17.7187 23.6627 17.7187C27.2002 17.7187 30.7377 17.7187 34.2752 17.7187C34.6002 17.7187 34.9252 17.7187 35.2502 17.7187C35.5064 17.7187 35.7189 17.5062 35.7189 17.25C35.7189 16.3937 35.7189 15.5375 35.7189 14.6812C35.7064 14.0812 34.7689 14.0812 34.7689 14.6875Z" fill="#EEEEEE"/>
<path d="M35.2375 15.1562C35.8438 15.1562 35.8438 14.2188 35.2375 14.2188C34.6312 14.2188 34.6312 15.1562 35.2375 15.1562ZM16.4438 34.5938C16.4438 31.8125 16.4438 29.0312 16.4438 26.2437C16.4438 25.6375 15.5062 25.6375 15.5062 26.2437C15.5062 29.025 15.5062 31.8062 15.5062 34.5938C15.5062 35.2 16.4438 35.2 16.4438 34.5938ZM35.7062 34.5938C35.7062 31.8813 35.7062 29.1687 35.7062 26.4562C35.7062 23.4187 35.7062 20.3812 35.7062 17.3438C35.7062 17.3187 35.7062 17.2875 35.7062 17.2625C35.7062 17.0062 35.4937 16.7937 35.2375 16.7937C32.675 16.7937 30.1187 16.7937 27.5562 16.7937C24.0187 16.7937 20.4813 16.7937 16.9438 16.7937C16.6188 16.7937 16.2937 16.7937 15.9688 16.7937C15.7125 16.7937 15.5 17.0062 15.5 17.2625C15.5 19.8312 15.5 22.4 15.5 24.9688C15.5 25.575 16.4375 25.575 16.4375 24.9688C16.4375 22.4 16.4375 19.8312 16.4375 17.2625C16.2812 17.4187 16.125 17.575 15.9688 17.7312C18.5312 17.7312 21.0875 17.7312 23.65 17.7312C27.1875 17.7312 30.725 17.7312 34.2625 17.7312C34.5875 17.7312 34.9125 17.7312 35.2375 17.7312C35.0812 17.575 34.925 17.4187 34.7687 17.2625C34.7687 19.975 34.7687 22.6875 34.7687 25.4C34.7687 28.4375 34.7687 31.475 34.7687 34.5125C34.7687 34.5375 34.7687 34.5688 34.7687 34.5938C34.7687 35.2 35.7062 35.2 35.7062 34.5938Z" fill="#EEEEEE"/>
<path d="M38.4499 35.4127C36.3312 35.4127 34.2187 35.4127 32.0999 35.4127C28.0874 35.4127 24.0687 35.4127 20.0562 35.4127C17.6437 35.4127 15.2312 35.4127 12.8187 35.4127C12.5187 35.4127 12.5499 35.0689 12.8312 35.0689C13.1062 35.0689 13.3749 35.0689 13.6499 35.0689C14.9249 35.0689 16.2062 35.0689 17.4812 35.0689C21.4312 35.0689 25.3812 35.0689 29.3312 35.0689C32.2187 35.0689 35.1124 35.0689 37.9999 35.0689C38.1312 35.0689 38.2562 35.0689 38.3874 35.0689C38.6187 35.0627 38.7312 35.3939 38.4499 35.4127C37.8499 35.4502 37.8437 36.3877 38.4499 36.3502C39.3124 36.2939 39.7749 35.4752 39.4187 34.7002C39.2499 34.3314 38.8062 34.1252 38.4187 34.1252C38.1874 34.1252 37.9562 34.1252 37.7187 34.1252C36.4999 34.1252 35.2812 34.1252 34.0624 34.1252C30.1374 34.1252 26.2187 34.1252 22.2937 34.1252C19.3062 34.1252 16.3187 34.1252 13.3312 34.1252C13.1437 34.1252 12.9499 34.1252 12.7624 34.1252C12.1187 34.1252 11.6124 34.6814 11.6499 35.3189C11.6874 35.9002 12.1937 36.3502 12.7687 36.3502C13.4499 36.3502 14.1312 36.3502 14.8062 36.3502C18.3749 36.3502 21.9374 36.3502 25.5062 36.3502C29.0999 36.3502 32.6937 36.3502 36.2874 36.3502C37.0062 36.3502 37.7249 36.3502 38.4437 36.3502C39.0499 36.3502 39.0499 35.4127 38.4499 35.4127ZM27.5312 14.8627C26.8187 14.8627 26.0999 14.8627 25.3874 14.8627C24.9437 14.8627 24.4999 14.8627 24.0562 14.8627C23.8937 14.8627 23.5187 14.9377 23.5062 14.6877C23.4937 14.4439 23.9187 14.5127 24.0562 14.5127C24.4999 14.5127 24.9437 14.5127 25.3874 14.5127C26.0999 14.5127 26.8187 14.5127 27.5312 14.5127C27.7624 14.5127 27.7562 14.8502 27.5312 14.8627C26.9312 14.9002 26.9249 15.8377 27.5312 15.8002C28.3937 15.7439 28.8562 14.9252 28.4999 14.1502C28.2937 13.7064 27.7937 13.5752 27.3499 13.5752C26.4562 13.5752 25.5624 13.5752 24.6687 13.5752C24.3499 13.5752 24.0312 13.5752 23.7187 13.5752C23.0687 13.5752 22.5999 14.0502 22.5624 14.6877C22.5249 15.3252 23.1312 15.8002 23.7187 15.8002C24.0374 15.8002 24.3562 15.8002 24.6687 15.8002C25.6187 15.8002 26.5687 15.8002 27.5249 15.8002C28.1374 15.8002 28.1374 14.8627 27.5312 14.8627ZM19.8249 20.9377C20.4312 20.9377 20.4312 20.0002 19.8249 20.0002C19.2187 20.0002 19.2187 20.9377 19.8249 20.9377Z" fill="#EEEEEE"/>
<path d="M20.0938 24.7877C20.8375 24.7877 21.5812 24.7877 22.325 24.7877C22.9812 24.7877 23.4688 24.3377 23.5125 23.6752C23.5312 23.3752 23.5125 23.0627 23.5125 22.7564C23.5125 22.2877 23.5125 21.8252 23.5125 21.3564C23.5125 20.8564 23.4 20.4189 22.9375 20.1314C22.6188 19.9377 22.1812 19.9939 21.825 19.9939C21.3375 19.9939 20.8437 19.9939 20.3562 19.9939C20.025 19.9939 19.675 19.9564 19.3625 20.1002C18.8875 20.3189 18.7188 20.7752 18.7188 21.2627C18.7188 21.9752 18.7188 22.6939 18.7188 23.4064C18.7188 24.0127 19.6562 24.0127 19.6562 23.4064C19.6562 22.6627 19.6562 21.9189 19.6562 21.1752C19.6562 20.9002 19.8688 20.9252 20.0813 20.9252C20.55 20.9252 21.0125 20.9252 21.4812 20.9252C21.7875 20.9252 22.0937 20.9252 22.4 20.9252C22.6687 20.9252 22.575 21.4689 22.575 21.6252C22.575 22.1127 22.575 22.6064 22.575 23.0939C22.575 23.2814 22.6688 23.7627 22.4375 23.8377C22.3375 23.8689 22.1875 23.8377 22.0875 23.8377C21.8312 23.8377 21.5687 23.8377 21.3125 23.8377C20.9062 23.8377 20.5063 23.8377 20.1 23.8377C19.4875 23.8502 19.4875 24.7877 20.0938 24.7877Z" fill="#EEEEEE"/>
<path d="M18.7563 25.8251C19.6376 26.2188 20.7126 26.0751 21.6501 26.0751C21.9813 26.0751 22.3188 26.0938 22.6438 26.0563C23.3876 25.9751 24.0251 25.5563 24.4313 24.9313C24.9438 24.1438 24.7876 23.0376 24.7876 22.1438C24.7876 21.8001 24.7876 21.4563 24.7876 21.1126C24.7876 20.4313 24.4938 19.7876 24.0001 19.3313C23.2188 18.6126 22.2063 18.7126 21.2313 18.7126C20.3126 18.7126 19.3063 18.5813 18.5001 19.1126C17.9063 19.5001 17.5188 20.1563 17.4438 20.8563C17.4063 21.1876 17.4251 21.5251 17.4251 21.8501C17.4251 22.7938 17.2876 23.8688 17.6751 24.7438C17.7813 24.9751 18.1126 25.0313 18.3188 24.9126C18.5563 24.7751 18.5938 24.5063 18.4876 24.2688C18.3251 23.9063 18.3626 23.4876 18.3626 23.1001C18.3626 22.6126 18.3626 22.1188 18.3626 21.6313C18.3626 21.2688 18.3438 20.9251 18.4626 20.5751C18.6501 20.0126 19.2501 19.6501 19.8251 19.6501C20.6063 19.6501 21.3938 19.6501 22.1751 19.6501C22.6001 19.6501 22.9938 19.7063 23.3313 19.9938C23.7063 20.3126 23.8438 20.7501 23.8438 21.2251C23.8438 21.9001 23.8438 22.5751 23.8438 23.2501C23.8438 23.4563 23.8626 23.6813 23.8313 23.8876C23.7563 24.3751 23.4563 24.7563 23.0251 24.9876C22.5313 25.2563 21.7626 25.1376 21.2251 25.1376C20.8688 25.1376 20.5063 25.1376 20.1501 25.1376C19.8313 25.1376 19.5251 25.1501 19.2251 25.0126C18.9938 24.9063 18.7251 24.9438 18.5813 25.1813C18.4751 25.3813 18.5251 25.7188 18.7563 25.8251ZM26.8876 20.0001C26.6751 20.0001 26.4626 20.0001 26.2501 20.0001C26.0188 20.0001 26.0126 19.6688 26.2438 19.6563C26.4563 19.6438 26.6688 19.6563 26.8813 19.6563C27.1126 19.6501 27.1188 19.9876 26.8876 20.0001C26.2876 20.0376 26.2813 20.9751 26.8876 20.9376C27.7938 20.8813 28.3376 19.8751 27.7438 19.1313C27.3688 18.6563 26.7813 18.7188 26.2438 18.7188C25.3126 18.7188 24.8251 19.8126 25.3876 20.5251C25.7626 21.0001 26.3501 20.9376 26.8876 20.9376C27.4938 20.9376 27.4938 20.0001 26.8876 20.0001ZM32.6688 20.0001C31.9938 20.0001 31.3126 20.0001 30.6376 20.0001C30.2813 20.0001 29.9313 20.0001 29.5751 20.0001C29.5251 20.0001 29.4438 20.0126 29.3938 19.9876C29.2188 19.9063 29.2751 19.6626 29.4563 19.6501C30.1313 19.6063 30.8188 19.6501 31.4876 19.6501C31.8438 19.6501 32.1938 19.6501 32.5501 19.6501C32.6001 19.6501 32.6813 19.6376 32.7313 19.6626C32.9063 19.7438 32.8563 19.9876 32.6688 20.0001C32.0688 20.0376 32.0626 20.9751 32.6688 20.9376C33.5313 20.8813 33.9938 20.0626 33.6376 19.2876C33.4251 18.8251 32.9126 18.7126 32.4626 18.7126C31.5751 18.7126 30.6938 18.7126 29.8063 18.7126C29.3876 18.7126 29.0501 18.7376 28.7001 19.0126C28.0438 19.5251 28.3626 20.6376 29.1001 20.8751C29.3938 20.9688 29.7251 20.9376 30.0313 20.9376C30.5188 20.9376 31.0063 20.9376 31.4938 20.9376C31.8876 20.9376 32.2813 20.9376 32.6688 20.9376C33.2751 20.9376 33.2751 20.0001 32.6688 20.0001ZM32.6688 25.1376C32.4563 25.1376 32.2438 25.1376 32.0313 25.1376C31.8001 25.1376 31.7938 24.8063 32.0251 24.7938C32.2376 24.7813 32.4501 24.7938 32.6626 24.7938C32.8938 24.7876 32.9001 25.1251 32.6688 25.1376C32.0688 25.1751 32.0626 26.1126 32.6688 26.0751C33.5751 26.0188 34.1188 25.0126 33.5251 24.2688C33.1501 23.7938 32.5626 23.8563 32.0251 23.8563C31.0938 23.8563 30.6063 24.9501 31.1688 25.6626C31.5438 26.1376 32.1313 26.0751 32.6688 26.0751C33.2751 26.0751 33.2751 25.1376 32.6688 25.1376ZM29.4563 25.1376C28.7813 25.1376 28.1001 25.1376 27.4251 25.1376C27.0688 25.1376 26.7188 25.1376 26.3626 25.1376C26.3126 25.1376 26.2313 25.1501 26.1813 25.1251C26.0063 25.0438 26.0626 24.8001 26.2438 24.7876C26.9188 24.7438 27.6063 24.7876 28.2751 24.7876C28.6313 24.7876 28.9813 24.7876 29.3376 24.7876C29.3876 24.7876 29.4688 24.7751 29.5188 24.8001C29.7001 24.8813 29.6438 25.1251 29.4563 25.1376C28.8563 25.1751 28.8501 26.1126 29.4563 26.0751C30.3188 26.0188 30.7813 25.2001 30.4251 24.4251C30.2126 23.9626 29.7001 23.8501 29.2501 23.8501C28.3626 23.8501 27.4813 23.8501 26.5938 23.8501C26.1751 23.8501 25.8376 23.8751 25.4876 24.1501C24.8313 24.6626 25.1501 25.7751 25.8876 26.0126C26.1813 26.1063 26.5126 26.0751 26.8188 26.0751C27.3063 26.0751 27.7938 26.0751 28.2813 26.0751C28.6751 26.0751 29.0688 26.0751 29.4563 26.0751C30.0626 26.0751 30.0626 25.1376 29.4563 25.1376ZM32.6688 22.5688C31.1438 22.5688 29.6251 22.5688 28.1001 22.5688C27.4876 22.5688 26.8813 22.5688 26.2688 22.5688C26.0126 22.5688 26.0251 22.2251 26.2751 22.2251C26.4876 22.2251 26.7001 22.2251 26.9126 22.2251C28.2126 22.2251 29.5126 22.2251 30.8126 22.2251C31.3251 22.2251 31.8313 22.2251 32.3438 22.2251C32.4438 22.2251 32.5501 22.2251 32.6501 22.2251C32.8876 22.2188 32.9063 22.5563 32.6688 22.5688C32.0688 22.6063 32.0626 23.5438 32.6688 23.5063C33.5313 23.4501 33.9938 22.6313 33.6376 21.8563C33.4501 21.4438 32.9751 21.2813 32.5563 21.2813C31.8376 21.2813 31.1251 21.2813 30.4063 21.2813C29.4251 21.2813 28.4376 21.2813 27.4563 21.2813C26.9063 21.2813 26.1376 21.1563 25.6438 21.4626C25.0126 21.8501 24.9751 22.8001 25.5501 23.2501C25.8126 23.4563 26.1001 23.5001 26.4188 23.5001C27.1188 23.5001 27.8126 23.5001 28.5126 23.5001C29.9001 23.5001 31.2876 23.5001 32.6751 23.5001C33.2751 23.5063 33.2751 22.5688 32.6688 22.5688ZM22.3938 32.8438C21.6188 32.8438 20.8501 32.8438 20.0751 32.8438C19.6688 32.8438 19.2751 32.8126 18.9438 32.5501C18.5438 32.2376 18.3688 31.7876 18.3688 31.2938C18.3688 30.4813 18.3688 29.6751 18.3688 28.8626C18.3688 28.3376 18.6063 27.8751 19.0438 27.5813C19.3876 27.3563 19.7688 27.3563 20.1563 27.3563C20.8876 27.3563 21.6126 27.3563 22.3438 27.3563C23.2313 27.3563 23.8501 28.0376 23.8501 28.9063C23.8501 29.6501 23.8501 30.3876 23.8501 31.1313C23.8501 31.4438 23.8438 31.7376 23.7001 32.0251C23.4563 32.5313 22.9501 32.8313 22.3938 32.8438C21.7876 32.8563 21.7876 33.7938 22.3938 33.7813C23.7688 33.7501 24.7876 32.6563 24.7876 31.2938C24.7876 30.4813 24.7876 29.6751 24.7876 28.8626C24.7876 27.5376 23.7251 26.4188 22.3876 26.4188C21.5938 26.4188 20.8001 26.4188 20.0063 26.4188C19.4938 26.4188 19.0188 26.5063 18.5751 26.7751C17.9438 27.1501 17.5313 27.8376 17.4501 28.5626C17.3626 29.3626 17.4313 30.2001 17.4313 31.0063C17.4313 31.4313 17.4376 31.8376 17.5938 32.2376C17.8626 32.9313 18.4251 33.4376 19.1251 33.6751C19.5001 33.8001 19.9063 33.7813 20.3001 33.7813C20.7876 33.7813 21.2751 33.7813 21.7688 33.7813C21.9813 33.7813 22.1876 33.7813 22.4001 33.7813C23.0001 33.7813 23.0001 32.8438 22.3938 32.8438Z" fill="#EEEEEE"/>
<path d="M19.8249 27.7064C19.1687 27.7439 18.7124 28.2252 18.7124 28.8877C18.7124 29.2939 18.7124 29.7002 18.7124 30.1064C18.7124 30.5127 18.7124 30.9189 18.7124 31.3252C18.7124 31.9814 19.1687 32.4627 19.8249 32.5064C20.5937 32.5564 21.3749 32.5064 22.1437 32.5064C22.6437 32.5064 23.0812 32.3939 23.3687 31.9314C23.5624 31.6127 23.5062 31.1752 23.5062 30.8189C23.5062 30.2377 23.5062 29.6564 23.5062 29.0752C23.5062 28.8939 23.5062 28.7252 23.4687 28.5439C23.3749 28.0377 22.8624 27.7439 22.3937 27.7189C21.5437 27.6502 20.6749 27.7064 19.8249 27.7064C19.2187 27.7064 19.2187 28.6439 19.8249 28.6439C20.5999 28.6439 21.3687 28.6439 22.1437 28.6439C22.3499 28.6439 22.5687 28.6127 22.5687 28.8877C22.5687 29.2939 22.5687 29.7002 22.5687 30.1064C22.5687 30.5127 22.5687 30.9189 22.5687 31.3252C22.5687 31.6002 22.3499 31.5689 22.1437 31.5689C21.3687 31.5689 20.5999 31.5689 19.8249 31.5689C19.6062 31.5689 19.6499 31.2877 19.6499 31.1439C19.6499 30.8002 19.6499 30.4564 19.6499 30.1127C19.6499 29.7689 19.6499 29.4252 19.6499 29.0814C19.6499 28.9252 19.5999 28.6689 19.8249 28.6564C20.4249 28.6064 20.4312 27.6689 19.8249 27.7064ZM26.8874 27.7064C26.6749 27.7064 26.4624 27.7064 26.2499 27.7064C26.0187 27.7064 26.0124 27.3752 26.2437 27.3627C26.4562 27.3502 26.6687 27.3627 26.8812 27.3627C27.1124 27.3564 27.1187 27.6939 26.8874 27.7064C26.2874 27.7439 26.2812 28.6814 26.8874 28.6439C27.7937 28.5877 28.3374 27.5814 27.7437 26.8377C27.3687 26.3627 26.7812 26.4252 26.2437 26.4252C25.3124 26.4252 24.8249 27.5189 25.3874 28.2314C25.7624 28.7064 26.3499 28.6439 26.8874 28.6439C27.4937 28.6439 27.4937 27.7064 26.8874 27.7064ZM32.6687 27.7064C31.9937 27.7064 31.3124 27.7064 30.6374 27.7064C30.2812 27.7064 29.9312 27.7064 29.5749 27.7064C29.5249 27.7064 29.4437 27.7189 29.3937 27.6939C29.2187 27.6127 29.2749 27.3689 29.4562 27.3564C30.1312 27.3127 30.8187 27.3564 31.4874 27.3564C31.8437 27.3564 32.1937 27.3564 32.5499 27.3564C32.5999 27.3564 32.6812 27.3439 32.7312 27.3689C32.9062 27.4502 32.8562 27.6939 32.6687 27.7064C32.0687 27.7439 32.0624 28.6814 32.6687 28.6439C33.5312 28.5877 33.9937 27.7689 33.6374 26.9939C33.4249 26.5314 32.9124 26.4189 32.4624 26.4189C31.5749 26.4189 30.6937 26.4189 29.8062 26.4189C29.3874 26.4189 29.0499 26.4439 28.6999 26.7189C28.0437 27.2314 28.3624 28.3439 29.0999 28.5814C29.3937 28.6752 29.7249 28.6439 30.0312 28.6439C30.5187 28.6439 31.0062 28.6439 31.4937 28.6439C31.8874 28.6439 32.2812 28.6439 32.6687 28.6439C33.2749 28.6439 33.2749 27.7064 32.6687 27.7064Z" fill="#EEEEEE"/>
<path d="M32.669 32.8435C32.4565 32.8435 32.244 32.8435 32.0315 32.8435C31.8002 32.8435 31.7939 32.5123 32.0252 32.4998C32.2377 32.4873 32.4502 32.4998 32.6627 32.4998C32.894 32.4935 32.9002 32.8248 32.669 32.8435C32.069 32.881 32.0627 33.8185 32.669 33.781C33.5752 33.7248 34.1189 32.7185 33.5252 31.9748C33.1502 31.4998 32.5627 31.5623 32.0252 31.5623C31.0939 31.5623 30.6065 32.656 31.169 33.3685C31.544 33.8435 32.1315 33.781 32.669 33.781C33.2752 33.781 33.2752 32.8435 32.669 32.8435Z" fill="#EEEEEE"/>
<path d="M29.4564 32.8437C28.7814 32.8437 28.1001 32.8437 27.4251 32.8437C27.0689 32.8437 26.7189 32.8437 26.3626 32.8437C26.3126 32.8437 26.2314 32.8562 26.1814 32.8312C26.0064 32.7499 26.0626 32.5062 26.2439 32.4937C26.9189 32.4499 27.6064 32.4937 28.2751 32.4937C28.6314 32.4937 28.9814 32.4937 29.3376 32.4937C29.3876 32.4937 29.4689 32.4812 29.5189 32.5062C29.7001 32.5874 29.6439 32.8312 29.4564 32.8437C28.8564 32.8812 28.8501 33.8187 29.4564 33.7812C30.3189 33.7249 30.7814 32.9062 30.4251 32.1312C30.2126 31.6687 29.7001 31.5562 29.2501 31.5562C28.3626 31.5562 27.4814 31.5562 26.5939 31.5562C26.1751 31.5562 25.8376 31.5812 25.4876 31.8562C24.8314 32.3687 25.1501 33.4812 25.8876 33.7187C26.1814 33.8124 26.5126 33.7812 26.8189 33.7812C27.3064 33.7812 27.7939 33.7812 28.2814 33.7812C28.6751 33.7812 29.0689 33.7812 29.4564 33.7812C30.0626 33.7812 30.0626 32.8437 29.4564 32.8437Z" fill="#EEEEEE"/>
<path d="M32.6686 30.2752C31.1436 30.2752 29.6249 30.2752 28.0999 30.2752C27.4874 30.2752 26.8811 30.2752 26.2686 30.2752C26.0124 30.2752 26.0249 29.9314 26.2749 29.9314C26.4874 29.9314 26.6999 29.9314 26.9124 29.9314C28.2124 29.9314 29.5124 29.9314 30.8124 29.9314C31.3249 29.9314 31.8311 29.9314 32.3436 29.9314C32.4436 29.9314 32.5499 29.9314 32.6499 29.9314C32.8874 29.9252 32.9061 30.2564 32.6686 30.2752C32.0686 30.3127 32.0624 31.2502 32.6686 31.2127C33.5311 31.1564 33.9936 30.3377 33.6374 29.5627C33.4499 29.1502 32.9749 28.9877 32.5561 28.9877C31.8374 28.9877 31.1249 28.9877 30.4061 28.9877C29.4249 28.9877 28.4374 28.9877 27.4561 28.9877C26.9061 28.9877 26.1374 28.8627 25.6436 29.1689C25.0124 29.5564 24.9749 30.5064 25.5499 30.9564C25.8124 31.1627 26.0999 31.2064 26.4186 31.2064C27.1186 31.2064 27.8124 31.2064 28.5124 31.2064C29.8999 31.2064 31.2874 31.2064 32.6749 31.2064C33.2749 31.2127 33.2749 30.2752 32.6686 30.2752Z" fill="#EEEEEE"/>
<path d="M17.9001 25.781C15.1189 25.781 12.3376 25.781 9.55013 25.781C9.26888 25.781 9.37513 25.4373 9.61263 25.4373C9.82513 25.4373 10.0314 25.4373 10.2439 25.4373C11.1126 25.4373 11.9751 25.4373 12.8439 25.4373C14.4251 25.4373 16.0001 25.4373 17.5814 25.4373C17.8126 25.4373 17.9501 25.3185 18.0939 25.1685C18.3626 24.8998 18.6251 24.6373 18.8939 24.3685C19.5314 23.731 20.1751 23.0873 20.8126 22.4498C20.8689 22.3935 20.9251 22.3373 20.9814 22.281C21.1001 22.1623 21.3064 22.2748 21.2751 22.4373C21.2439 22.5998 20.9751 22.781 20.8689 22.8873C20.1939 23.5623 19.5189 24.2373 18.8439 24.9123C18.6376 25.1185 18.4376 25.3185 18.2314 25.5248C18.1439 25.606 18.0314 25.7685 17.9001 25.781C17.3001 25.8185 17.2939 26.756 17.9001 26.7185C18.6501 26.6685 19.2126 25.8685 19.7064 25.3748C20.3564 24.7248 21.0126 24.0685 21.6626 23.4185C21.9001 23.181 22.1314 22.9623 22.1939 22.606C22.3501 21.731 21.4376 21.0248 20.6314 21.3998C20.3814 21.5185 20.1939 21.7435 20.0001 21.9373C19.6876 22.2498 19.3689 22.5685 19.0564 22.881C18.4751 23.4623 17.8876 24.0498 17.3064 24.631C17.4189 24.5873 17.5251 24.5373 17.6376 24.4935C16.2251 24.4935 14.8189 24.4935 13.4064 24.4935C12.4751 24.4935 11.5439 24.4935 10.6126 24.4935C10.0939 24.4935 9.49388 24.4123 9.01263 24.631C8.26263 24.9748 8.28138 26.1248 8.95013 26.5373C9.20013 26.6935 9.46263 26.7185 9.74388 26.7185C10.4189 26.7185 11.1001 26.7185 11.7751 26.7185C13.6189 26.7185 15.4626 26.7185 17.3001 26.7185C17.5001 26.7185 17.7001 26.7185 17.9001 26.7185C18.5064 26.7185 18.5064 25.781 17.9001 25.781Z" fill="#EEEEEE"/>
</svg>
