<svg width="48" height="48" viewBox="0 0 48 48" fill="none" xmlns="http://www.w3.org/2000/svg">
<path d="M40.1532 10.0315C40.1532 11.3158 40.1532 12.6002 40.1532 13.8846C40.3875 13.6502 40.6219 13.4158 40.8563 13.1815C37.0125 13.1815 33.1782 13.1815 29.3344 13.1815C24.0282 13.1815 18.7219 13.1815 13.4157 13.1815C12.9282 13.1815 12.4407 13.1815 11.9532 13.1815C12.1875 13.4158 12.4219 13.6502 12.6563 13.8846C12.6563 12.7221 12.6563 11.569 12.6563 10.4065C12.6563 9.76895 12.7125 9.16895 13.0032 8.57833C13.4532 7.69708 14.2782 7.13458 15.225 6.92833C15.7219 6.81583 16.3032 6.88145 16.8188 6.88145C17.8219 6.88145 18.8344 6.88145 19.8375 6.88145C25.2188 6.88145 30.5907 6.88145 35.9719 6.88145C36.3094 6.88145 36.6469 6.88145 36.9844 6.88145C38.7469 6.88145 40.125 8.31583 40.1532 10.0315C40.1719 10.9408 41.5782 10.9408 41.5594 10.0315C41.5219 7.81895 39.9188 5.86895 37.7063 5.53145C37.1438 5.44708 36.5625 5.4752 35.9907 5.4752C33.5719 5.4752 31.1532 5.4752 28.7344 5.4752C25.7719 5.4752 22.8188 5.4752 19.8563 5.4752C18.8532 5.4752 17.8407 5.4752 16.8375 5.4752C16.2657 5.4752 15.6844 5.44708 15.1219 5.53145C12.8625 5.86895 11.2688 7.8752 11.2688 10.1252C11.2688 11.3721 11.2688 12.6283 11.2688 13.8752C11.2688 14.2596 11.5875 14.5783 11.9719 14.5783C15.8157 14.5783 19.65 14.5783 23.4938 14.5783C28.8 14.5783 34.1063 14.5783 39.4125 14.5783C39.9 14.5783 40.3875 14.5783 40.875 14.5783C41.2594 14.5783 41.5782 14.2596 41.5782 13.8752C41.5782 12.5908 41.5782 11.3065 41.5782 10.0221C41.5594 9.12208 40.1532 9.12208 40.1532 10.0315Z" fill="white"/>
<path d="M40.8562 10.7344C41.7656 10.7344 41.7656 9.32812 40.8562 9.32812C39.9469 9.32812 39.9469 10.7344 40.8562 10.7344ZM12.6656 39.8906C12.6656 35.7188 12.6656 31.5469 12.6656 27.3656C12.6656 26.4562 11.2594 26.4562 11.2594 27.3656C11.2594 31.5375 11.2594 35.7094 11.2594 39.8906C11.2594 40.8 12.6656 40.8 12.6656 39.8906ZM41.5594 39.8906C41.5594 35.8219 41.5594 31.7531 41.5594 27.6844C41.5594 23.1281 41.5594 18.5719 41.5594 14.0156C41.5594 13.9781 41.5594 13.9312 41.5594 13.8937C41.5594 13.5094 41.2406 13.1906 40.8562 13.1906C37.0125 13.1906 33.1781 13.1906 29.3344 13.1906C24.0281 13.1906 18.7219 13.1906 13.4156 13.1906C12.9281 13.1906 12.4406 13.1906 11.9531 13.1906C11.5688 13.1906 11.25 13.5094 11.25 13.8937C11.25 17.7469 11.25 21.6 11.25 25.4531C11.25 26.3625 12.6562 26.3625 12.6562 25.4531C12.6562 21.6 12.6562 17.7469 12.6562 13.8937C12.4219 14.1281 12.1875 14.3625 11.9531 14.5969C15.7969 14.5969 19.6312 14.5969 23.475 14.5969C28.7812 14.5969 34.0875 14.5969 39.3938 14.5969C39.8813 14.5969 40.3687 14.5969 40.8562 14.5969C40.6219 14.3625 40.3875 14.1281 40.1531 13.8937C40.1531 17.9625 40.1531 22.0312 40.1531 26.1C40.1531 30.6562 40.1531 35.2125 40.1531 39.7688C40.1531 39.8063 40.1531 39.8531 40.1531 39.8906C40.1531 40.8 41.5594 40.8 41.5594 39.8906Z" fill="white"/>
<path d="M45.675 41.1186C42.4969 41.1186 39.3281 41.1186 36.15 41.1186C30.1312 41.1186 24.1031 41.1186 18.0844 41.1186C14.4656 41.1186 10.8469 41.1186 7.22811 41.1186C6.77811 41.1186 6.82498 40.6029 7.24686 40.6029C7.65936 40.6029 8.06248 40.6029 8.47498 40.6029C10.3875 40.6029 12.3094 40.6029 14.2219 40.6029C20.1469 40.6029 26.0719 40.6029 31.9969 40.6029C36.3281 40.6029 40.6687 40.6029 45 40.6029C45.1969 40.6029 45.3844 40.6029 45.5812 40.6029C45.9281 40.5936 46.0969 41.0904 45.675 41.1186C44.775 41.1748 44.7656 42.5811 45.675 42.5248C46.9687 42.4404 47.6625 41.2123 47.1281 40.0498C46.875 39.4967 46.2094 39.1873 45.6281 39.1873C45.2812 39.1873 44.9344 39.1873 44.5781 39.1873C42.75 39.1873 40.9219 39.1873 39.0937 39.1873C33.2062 39.1873 27.3281 39.1873 21.4406 39.1873C16.9594 39.1873 12.4781 39.1873 7.99686 39.1873C7.71561 39.1873 7.42498 39.1873 7.14373 39.1873C6.17811 39.1873 5.41873 40.0217 5.47498 40.9779C5.53123 41.8498 6.29061 42.5248 7.15311 42.5248C8.17498 42.5248 9.19686 42.5248 10.2094 42.5248C15.5625 42.5248 20.9062 42.5248 26.2594 42.5248C31.65 42.5248 37.0406 42.5248 42.4312 42.5248C43.5094 42.5248 44.5875 42.5248 45.6656 42.5248C46.575 42.5248 46.575 41.1186 45.675 41.1186ZM29.2969 10.2936C28.2281 10.2936 27.15 10.2936 26.0812 10.2936C25.4156 10.2936 24.75 10.2936 24.0844 10.2936C23.8406 10.2936 23.2781 10.4061 23.2594 10.0311C23.2406 9.66543 23.8781 9.76855 24.0844 9.76855C24.75 9.76855 25.4156 9.76855 26.0812 9.76855C27.15 9.76855 28.2281 9.76855 29.2969 9.76855C29.6437 9.76855 29.6344 10.2748 29.2969 10.2936C28.3969 10.3498 28.3875 11.7561 29.2969 11.6998C30.5906 11.6154 31.2844 10.3873 30.75 9.22481C30.4406 8.55918 29.6906 8.3623 29.025 8.3623C27.6844 8.3623 26.3437 8.3623 25.0031 8.3623C24.525 8.3623 24.0469 8.3623 23.5781 8.3623C22.6031 8.3623 21.9 9.07481 21.8437 10.0311C21.7875 10.9873 22.6969 11.6998 23.5781 11.6998C24.0562 11.6998 24.5344 11.6998 25.0031 11.6998C26.4281 11.6998 27.8531 11.6998 29.2875 11.6998C30.2062 11.6998 30.2062 10.2936 29.2969 10.2936ZM17.7375 19.4061C18.6469 19.4061 18.6469 17.9998 17.7375 17.9998C16.8281 17.9998 16.8281 19.4061 17.7375 19.4061Z" fill="white"/>
<path d="M18.1406 25.181C19.2562 25.181 20.3719 25.181 21.4875 25.181C22.4719 25.181 23.2031 24.506 23.2687 23.5123C23.2969 23.0623 23.2687 22.5935 23.2687 22.1341C23.2687 21.431 23.2687 20.7373 23.2687 20.0341C23.2687 19.2841 23.1 18.6279 22.4062 18.1966C21.9281 17.906 21.2719 17.9904 20.7375 17.9904C20.0062 17.9904 19.2656 17.9904 18.5344 17.9904C18.0375 17.9904 17.5125 17.9341 17.0438 18.1498C16.3313 18.4779 16.0781 19.1623 16.0781 19.8935C16.0781 20.9623 16.0781 22.0404 16.0781 23.1091C16.0781 24.0185 17.4844 24.0185 17.4844 23.1091C17.4844 21.9935 17.4844 20.8779 17.4844 19.7623C17.4844 19.3498 17.8031 19.3873 18.1219 19.3873C18.825 19.3873 19.5187 19.3873 20.2219 19.3873C20.6812 19.3873 21.1406 19.3873 21.6 19.3873C22.0031 19.3873 21.8625 20.2029 21.8625 20.4373C21.8625 21.1685 21.8625 21.9091 21.8625 22.6404C21.8625 22.9216 22.0031 23.6435 21.6562 23.756C21.5062 23.8029 21.2812 23.756 21.1312 23.756C20.7469 23.756 20.3531 23.756 19.9688 23.756C19.3594 23.756 18.7594 23.756 18.15 23.756C17.2313 23.7748 17.2313 25.181 18.1406 25.181Z" fill="white"/>
<path d="M16.1343 26.7376C17.4562 27.3283 19.0687 27.1126 20.475 27.1126C20.9718 27.1126 21.4781 27.1408 21.9656 27.0845C23.0812 26.9626 24.0375 26.3345 24.6468 25.397C25.4156 24.2158 25.1812 22.5564 25.1812 21.2158C25.1812 20.7001 25.1812 20.1845 25.1812 19.6689C25.1812 18.647 24.7406 17.6814 24 16.997C22.8281 15.9189 21.3093 16.0689 19.8468 16.0689C18.4687 16.0689 16.9593 15.872 15.75 16.6689C14.8593 17.2501 14.2781 18.2345 14.1656 19.2845C14.1093 19.7814 14.1375 20.2876 14.1375 20.7751C14.1375 22.1908 13.9312 23.8033 14.5125 25.1158C14.6718 25.4626 15.1687 25.547 15.4781 25.3689C15.8343 25.1626 15.8906 24.7595 15.7312 24.4033C15.4875 23.8595 15.5437 23.2314 15.5437 22.6501C15.5437 21.9189 15.5437 21.1783 15.5437 20.447C15.5437 19.9033 15.5156 19.3876 15.6937 18.8626C15.975 18.0189 16.875 17.4751 17.7375 17.4751C18.9093 17.4751 20.0906 17.4751 21.2625 17.4751C21.9 17.4751 22.4906 17.5595 22.9968 17.9908C23.5593 18.4689 23.7656 19.1251 23.7656 19.8376C23.7656 20.8501 23.7656 21.8626 23.7656 22.8751C23.7656 23.1845 23.7937 23.522 23.7468 23.8314C23.6343 24.5626 23.1843 25.1345 22.5375 25.4814C21.7968 25.8845 20.6437 25.7064 19.8375 25.7064C19.3031 25.7064 18.7593 25.7064 18.225 25.7064C17.7468 25.7064 17.2875 25.7251 16.8375 25.5189C16.4906 25.3595 16.0875 25.4158 15.8718 25.772C15.7125 26.072 15.7875 26.5783 16.1343 26.7376ZM28.3312 18.0001C28.0125 18.0001 27.6937 18.0001 27.375 18.0001C27.0281 18.0001 27.0187 17.5033 27.3656 17.4845C27.6843 17.4658 28.0031 17.4845 28.3218 17.4845C28.6687 17.4751 28.6781 17.9814 28.3312 18.0001C27.4312 18.0564 27.4218 19.4626 28.3312 19.4064C29.6906 19.322 30.5062 17.8126 29.6156 16.697C29.0531 15.9845 28.1718 16.0783 27.3656 16.0783C25.9687 16.0783 25.2375 17.7189 26.0812 18.7876C26.6437 19.5001 27.525 19.4064 28.3312 19.4064C29.2406 19.4064 29.2406 18.0001 28.3312 18.0001ZM37.0031 18.0001C35.9906 18.0001 34.9687 18.0001 33.9562 18.0001C33.4218 18.0001 32.8968 18.0001 32.3625 18.0001C32.2875 18.0001 32.1656 18.0189 32.0906 17.9814C31.8281 17.8595 31.9125 17.4939 32.1843 17.4751C33.1968 17.4095 34.2281 17.4751 35.2312 17.4751C35.7656 17.4751 36.2906 17.4751 36.825 17.4751C36.9 17.4751 37.0218 17.4564 37.0968 17.4939C37.3593 17.6158 37.2843 17.9814 37.0031 18.0001C36.1031 18.0564 36.0937 19.4626 37.0031 19.4064C38.2968 19.322 38.9906 18.0939 38.4562 16.9314C38.1375 16.2376 37.3687 16.0689 36.6937 16.0689C35.3625 16.0689 34.0406 16.0689 32.7093 16.0689C32.0812 16.0689 31.575 16.1064 31.05 16.5189C30.0656 17.2876 30.5437 18.9564 31.65 19.3126C32.0906 19.4533 32.5875 19.4064 33.0468 19.4064C33.7781 19.4064 34.5093 19.4064 35.2406 19.4064C35.8312 19.4064 36.4218 19.4064 37.0031 19.4064C37.9125 19.4064 37.9125 18.0001 37.0031 18.0001ZM37.0031 25.7064C36.6843 25.7064 36.3656 25.7064 36.0468 25.7064C35.7 25.7064 35.6906 25.2095 36.0375 25.1908C36.3562 25.172 36.675 25.1908 36.9937 25.1908C37.3406 25.1814 37.35 25.6876 37.0031 25.7064C36.1031 25.7626 36.0937 27.1689 37.0031 27.1126C38.3625 27.0283 39.1781 25.5189 38.2875 24.4033C37.725 23.6908 36.8437 23.7845 36.0375 23.7845C34.6406 23.7845 33.9093 25.4251 34.7531 26.4939C35.3156 27.2064 36.1968 27.1126 37.0031 27.1126C37.9125 27.1126 37.9125 25.7064 37.0031 25.7064ZM32.1843 25.7064C31.1718 25.7064 30.15 25.7064 29.1375 25.7064C28.6031 25.7064 28.0781 25.7064 27.5437 25.7064C27.4687 25.7064 27.3468 25.7251 27.2718 25.6876C27.0093 25.5658 27.0937 25.2001 27.3656 25.1814C28.3781 25.1158 29.4093 25.1814 30.4125 25.1814C30.9468 25.1814 31.4718 25.1814 32.0062 25.1814C32.0812 25.1814 32.2031 25.1626 32.2781 25.2001C32.55 25.322 32.4656 25.6876 32.1843 25.7064C31.2843 25.7626 31.275 27.1689 32.1843 27.1126C33.4781 27.0283 34.1718 25.8001 33.6375 24.6376C33.3187 23.9439 32.55 23.7751 31.875 23.7751C30.5437 23.7751 29.2218 23.7751 27.8906 23.7751C27.2625 23.7751 26.7562 23.8126 26.2312 24.2251C25.2468 24.9939 25.725 26.6626 26.8312 27.0189C27.2718 27.1595 27.7687 27.1126 28.2281 27.1126C28.9593 27.1126 29.6906 27.1126 30.4218 27.1126C31.0125 27.1126 31.6031 27.1126 32.1843 27.1126C33.0937 27.1126 33.0937 25.7064 32.1843 25.7064ZM37.0031 21.8533C34.7156 21.8533 32.4375 21.8533 30.15 21.8533C29.2312 21.8533 28.3218 21.8533 27.4031 21.8533C27.0187 21.8533 27.0375 21.3376 27.4125 21.3376C27.7312 21.3376 28.05 21.3376 28.3687 21.3376C30.3187 21.3376 32.2687 21.3376 34.2187 21.3376C34.9875 21.3376 35.7468 21.3376 36.5156 21.3376C36.6656 21.3376 36.825 21.3376 36.975 21.3376C37.3312 21.3283 37.3593 21.8345 37.0031 21.8533C36.1031 21.9095 36.0937 23.3158 37.0031 23.2595C38.2968 23.1751 38.9906 21.947 38.4562 20.7845C38.175 20.1658 37.4625 19.922 36.8343 19.922C35.7562 19.922 34.6875 19.922 33.6093 19.922C32.1375 19.922 30.6562 19.922 29.1843 19.922C28.3593 19.922 27.2062 19.7345 26.4656 20.1939C25.5187 20.7751 25.4625 22.2001 26.325 22.8751C26.7187 23.1845 27.15 23.2501 27.6281 23.2501C28.6781 23.2501 29.7187 23.2501 30.7687 23.2501C32.85 23.2501 34.9312 23.2501 37.0125 23.2501C37.9125 23.2595 37.9125 21.8533 37.0031 21.8533ZM21.5906 37.2658C20.4281 37.2658 19.275 37.2658 18.1125 37.2658C17.5031 37.2658 16.9125 37.2189 16.4156 36.8251C15.8156 36.3564 15.5531 35.6814 15.5531 34.9408C15.5531 33.722 15.5531 32.5126 15.5531 31.2939C15.5531 30.5064 15.9093 29.8126 16.5656 29.372C17.0812 29.0345 17.6531 29.0345 18.2343 29.0345C19.3312 29.0345 20.4187 29.0345 21.5156 29.0345C22.8468 29.0345 23.775 30.0564 23.775 31.3595C23.775 32.4751 23.775 33.5814 23.775 34.697C23.775 35.1658 23.7656 35.6064 23.55 36.0376C23.1843 36.797 22.425 37.247 21.5906 37.2658C20.6812 37.2845 20.6812 38.6908 21.5906 38.672C23.6531 38.6251 25.1812 36.9845 25.1812 34.9408C25.1812 33.722 25.1812 32.5126 25.1812 31.2939C25.1812 29.3064 23.5875 27.6283 21.5812 27.6283C20.3906 27.6283 19.2 27.6283 18.0093 27.6283C17.2406 27.6283 16.5281 27.7595 15.8625 28.1626C14.9156 28.7251 14.2968 29.7564 14.175 30.8439C14.0437 32.0439 14.1468 33.3001 14.1468 34.5095C14.1468 35.147 14.1562 35.7564 14.3906 36.3564C14.7937 37.397 15.6375 38.1564 16.6875 38.5126C17.25 38.7001 17.8593 38.672 18.45 38.672C19.1812 38.672 19.9125 38.672 20.6531 38.672C20.9718 38.672 21.2812 38.672 21.6 38.672C22.5 38.672 22.5 37.2658 21.5906 37.2658Z" fill="white"/>
<path d="M17.7375 29.5592C16.7531 29.6154 16.0687 30.3373 16.0687 31.3311C16.0687 31.9404 16.0687 32.5498 16.0687 33.1592C16.0687 33.7686 16.0687 34.3779 16.0687 34.9873C16.0687 35.9717 16.7531 36.6936 17.7375 36.7592C18.8906 36.8342 20.0625 36.7592 21.2156 36.7592C21.9656 36.7592 22.6219 36.5904 23.0531 35.8967C23.3437 35.4186 23.2594 34.7623 23.2594 34.2279C23.2594 33.3561 23.2594 32.4842 23.2594 31.6123C23.2594 31.3404 23.2594 31.0873 23.2031 30.8154C23.0625 30.0561 22.2937 29.6154 21.5906 29.5779C20.3156 29.4748 19.0125 29.5592 17.7375 29.5592C16.8281 29.5592 16.8281 30.9654 17.7375 30.9654C18.9 30.9654 20.0531 30.9654 21.2156 30.9654C21.525 30.9654 21.8531 30.9186 21.8531 31.3311C21.8531 31.9404 21.8531 32.5498 21.8531 33.1592C21.8531 33.7686 21.8531 34.3779 21.8531 34.9873C21.8531 35.3998 21.525 35.3529 21.2156 35.3529C20.0531 35.3529 18.9 35.3529 17.7375 35.3529C17.4094 35.3529 17.475 34.9311 17.475 34.7154C17.475 34.1998 17.475 33.6842 17.475 33.1686C17.475 32.6529 17.475 32.1373 17.475 31.6217C17.475 31.3873 17.4 31.0029 17.7375 30.9842C18.6375 30.9092 18.6469 29.5029 17.7375 29.5592ZM28.3312 29.5592C28.0125 29.5592 27.6937 29.5592 27.375 29.5592C27.0281 29.5592 27.0187 29.0623 27.3656 29.0436C27.6844 29.0248 28.0031 29.0436 28.3219 29.0436C28.6687 29.0342 28.6781 29.5404 28.3312 29.5592C27.4312 29.6154 27.4219 31.0217 28.3312 30.9654C29.6906 30.8811 30.5062 29.3717 29.6156 28.2561C29.0531 27.5436 28.1719 27.6373 27.3656 27.6373C25.9687 27.6373 25.2375 29.2779 26.0812 30.3467C26.6437 31.0592 27.525 30.9654 28.3312 30.9654C29.2406 30.9654 29.2406 29.5592 28.3312 29.5592ZM37.0031 29.5592C35.9906 29.5592 34.9687 29.5592 33.9562 29.5592C33.4219 29.5592 32.8969 29.5592 32.3625 29.5592C32.2875 29.5592 32.1656 29.5779 32.0906 29.5404C31.8281 29.4186 31.9125 29.0529 32.1844 29.0342C33.1969 28.9686 34.2281 29.0342 35.2312 29.0342C35.7656 29.0342 36.2906 29.0342 36.825 29.0342C36.9 29.0342 37.0219 29.0154 37.0969 29.0529C37.3594 29.1748 37.2844 29.5404 37.0031 29.5592C36.1031 29.6154 36.0937 31.0217 37.0031 30.9654C38.2969 30.8811 38.9906 29.6529 38.4562 28.4904C38.1375 27.7967 37.3687 27.6279 36.6937 27.6279C35.3625 27.6279 34.0406 27.6279 32.7094 27.6279C32.0812 27.6279 31.575 27.6654 31.05 28.0779C30.0656 28.8467 30.5437 30.5154 31.65 30.8717C32.0906 31.0123 32.5875 30.9654 33.0469 30.9654C33.7781 30.9654 34.5094 30.9654 35.2406 30.9654C35.8312 30.9654 36.4219 30.9654 37.0031 30.9654C37.9125 30.9654 37.9125 29.5592 37.0031 29.5592Z" fill="white"/>
<path d="M37.0032 37.2658C36.6844 37.2658 36.3657 37.2658 36.0469 37.2658C35.7001 37.2658 35.6907 36.7689 36.0376 36.7502C36.3563 36.7314 36.6751 36.7502 36.9938 36.7502C37.3407 36.7408 37.3501 37.2377 37.0032 37.2658C36.1032 37.322 36.0938 38.7283 37.0032 38.672C38.3626 38.5877 39.1782 37.0783 38.2876 35.9627C37.7251 35.2502 36.8438 35.3439 36.0376 35.3439C34.6407 35.3439 33.9094 36.9845 34.7532 38.0533C35.3157 38.7658 36.1969 38.672 37.0032 38.672C37.9126 38.672 37.9126 37.2658 37.0032 37.2658Z" fill="white"/>
<path d="M32.1843 37.2657C31.1718 37.2657 30.15 37.2657 29.1375 37.2657C28.6031 37.2657 28.0781 37.2657 27.5437 37.2657C27.4687 37.2657 27.3468 37.2845 27.2718 37.247C27.0093 37.1251 27.0937 36.7595 27.3656 36.7407C28.3781 36.6751 29.4093 36.7407 30.4125 36.7407C30.9468 36.7407 31.4718 36.7407 32.0062 36.7407C32.0812 36.7407 32.2031 36.722 32.2781 36.7595C32.55 36.8813 32.4656 37.247 32.1843 37.2657C31.2843 37.322 31.275 38.7282 32.1843 38.672C33.4781 38.5876 34.1718 37.3595 33.6375 36.197C33.3187 35.5032 32.55 35.3345 31.875 35.3345C30.5437 35.3345 29.2218 35.3345 27.8906 35.3345C27.2625 35.3345 26.7562 35.372 26.2312 35.7845C25.2468 36.5532 25.725 38.222 26.8312 38.5782C27.2718 38.7188 27.7687 38.672 28.2281 38.672C28.9593 38.672 29.6906 38.672 30.4218 38.672C31.0125 38.672 31.6031 38.672 32.1843 38.672C33.0937 38.672 33.0937 37.2657 32.1843 37.2657Z" fill="white"/>
<path d="M37.0032 33.4125C34.7157 33.4125 32.4376 33.4125 30.1501 33.4125C29.2313 33.4125 28.3219 33.4125 27.4032 33.4125C27.0188 33.4125 27.0376 32.8969 27.4126 32.8969C27.7313 32.8969 28.0501 32.8969 28.3688 32.8969C30.3188 32.8969 32.2688 32.8969 34.2188 32.8969C34.9876 32.8969 35.7469 32.8969 36.5157 32.8969C36.6657 32.8969 36.8251 32.8969 36.9751 32.8969C37.3313 32.8875 37.3594 33.3844 37.0032 33.4125C36.1032 33.4687 36.0938 34.875 37.0032 34.8187C38.2969 34.7344 38.9907 33.5062 38.4563 32.3437C38.1751 31.725 37.4626 31.4812 36.8344 31.4812C35.7563 31.4812 34.6876 31.4812 33.6094 31.4812C32.1376 31.4812 30.6563 31.4812 29.1844 31.4812C28.3594 31.4812 27.2063 31.2937 26.4657 31.7531C25.5188 32.3344 25.4626 33.7594 26.3251 34.4344C26.7188 34.7437 27.1501 34.8094 27.6282 34.8094C28.6782 34.8094 29.7188 34.8094 30.7688 34.8094C32.8501 34.8094 34.9313 34.8094 37.0126 34.8094C37.9126 34.8187 37.9126 33.4125 37.0032 33.4125Z" fill="white"/>
<path d="M14.8499 26.6721C10.6781 26.6721 6.5062 26.6721 2.32495 26.6721C1.90307 26.6721 2.06245 26.1564 2.4187 26.1564C2.73745 26.1564 3.04682 26.1564 3.36557 26.1564C4.6687 26.1564 5.96245 26.1564 7.26557 26.1564C9.63745 26.1564 11.9999 26.1564 14.3718 26.1564C14.7187 26.1564 14.9249 25.9783 15.1406 25.7533C15.5437 25.3502 15.9374 24.9564 16.3406 24.5533C17.2968 23.5971 18.2624 22.6314 19.2187 21.6752C19.3031 21.5908 19.3874 21.5064 19.4718 21.4221C19.6499 21.2439 19.9593 21.4127 19.9124 21.6564C19.8656 21.9002 19.4624 22.1721 19.3031 22.3314C18.2906 23.3439 17.2781 24.3564 16.2656 25.3689C15.9562 25.6783 15.6562 25.9783 15.3468 26.2877C15.2156 26.4096 15.0468 26.6533 14.8499 26.6721C13.9499 26.7283 13.9406 28.1346 14.8499 28.0783C15.9749 28.0033 16.8187 26.8033 17.5593 26.0627C18.5343 25.0877 19.5187 24.1033 20.4937 23.1283C20.8499 22.7721 21.1968 22.4439 21.2906 21.9096C21.5249 20.5971 20.1562 19.5377 18.9468 20.1002C18.5718 20.2783 18.2906 20.6158 17.9999 20.9064C17.5312 21.3752 17.0531 21.8533 16.5843 22.3221C15.7124 23.1939 14.8312 24.0752 13.9593 24.9471C14.1281 24.8814 14.2874 24.8064 14.4562 24.7408C12.3374 24.7408 10.2281 24.7408 8.10932 24.7408C6.71245 24.7408 5.31557 24.7408 3.9187 24.7408C3.14057 24.7408 2.24057 24.6189 1.5187 24.9471C0.393696 25.4627 0.421821 27.1877 1.42495 27.8064C1.79995 28.0408 2.1937 28.0783 2.61557 28.0783C3.62807 28.0783 4.64995 28.0783 5.66245 28.0783C8.42807 28.0783 11.1937 28.0783 13.9499 28.0783C14.2499 28.0783 14.5499 28.0783 14.8499 28.0783C15.7593 28.0783 15.7593 26.6721 14.8499 26.6721Z" fill="white"/>
</svg>
