<svg width="18" height="141" viewBox="0 0 18 141" fill="none" xmlns="http://www.w3.org/2000/svg">
<rect y="141" width="48" height="2" rx="1" transform="rotate(-90 0 141)" fill="#F4F4F4"/>
<path d="M13.58 138.96C13.84 138.907 14.0667 138.817 14.26 138.69C14.4467 138.557 14.59 138.38 14.69 138.16C14.79 137.94 14.84 137.687 14.84 137.4C14.84 137.167 14.81 136.967 14.75 136.8C14.69 136.627 14.6033 136.497 14.49 136.41C14.37 136.317 14.2267 136.27 14.06 136.27C13.8067 136.277 13.5967 136.4 13.43 136.64C13.2633 136.873 13.11 137.27 12.97 137.83C12.7833 138.65 12.52 139.277 12.18 139.71C11.84 140.137 11.3933 140.35 10.84 140.35C10.4133 140.35 10.0433 140.24 9.73 140.02C9.41 139.793 9.16667 139.48 9 139.08C8.82667 138.673 8.74 138.203 8.74 137.67C8.74 137.143 8.84 136.677 9.04 136.27C9.24 135.857 9.52333 135.527 9.89 135.28C10.25 135.033 10.67 134.883 11.15 134.83L11.21 136.35C10.97 136.377 10.76 136.45 10.58 136.57C10.3933 136.69 10.2533 136.847 10.16 137.04C10.06 137.233 10.01 137.453 10.01 137.7C10.01 138.033 10.09 138.303 10.25 138.51C10.4033 138.717 10.6067 138.813 10.86 138.8C11.04 138.793 11.19 138.73 11.31 138.61C11.43 138.483 11.5267 138.33 11.6 138.15C11.6667 137.97 11.7367 137.733 11.81 137.44L11.84 137.31C12.0267 136.483 12.3 135.847 12.66 135.4C13.0133 134.947 13.4633 134.72 14.01 134.72C14.4433 134.72 14.82 134.84 15.14 135.08C15.46 135.313 15.7033 135.637 15.87 136.05C16.0367 136.463 16.12 136.927 16.12 137.44C16.12 138.013 16.02 138.527 15.82 138.98C15.62 139.427 15.3367 139.783 14.97 140.05C14.5967 140.31 14.1633 140.457 13.67 140.49L13.58 138.96ZM8.9 128.66H10.19V132.08H11.81V128.78H13.07V132.08H14.71L14.71 128.58H16L16 133.61H8.9L8.9 128.66ZM8.9 124.279C8.9 123.779 8.98333 123.339 9.15 122.959C9.31667 122.572 9.56333 122.269 9.89 122.049C10.21 121.829 10.59 121.719 11.03 121.719C11.3567 121.719 11.6467 121.786 11.9 121.919C12.1467 122.046 12.3467 122.229 12.5 122.469C12.6533 122.702 12.7533 122.969 12.8 123.269L12.71 123.429C12.71 122.896 12.8067 122.506 13 122.259C13.1933 122.012 13.5167 121.869 13.97 121.829L16 121.659V123.199L14.21 123.329C13.9167 123.356 13.71 123.459 13.59 123.639C13.47 123.819 13.41 124.119 13.41 124.539V125.859H16V127.389H8.9V124.279ZM12.12 124.489C12.12 124.102 12.04 123.806 11.88 123.599C11.7133 123.392 11.4733 123.289 11.16 123.289C10.8467 123.289 10.6067 123.392 10.44 123.599C10.2733 123.806 10.19 124.102 10.19 124.489V125.859H12.12V124.489ZM8.9 119.629L14.28 117.749L8.9 115.879V114.299L16 116.859V118.649L8.9 121.209V119.629ZM8.9 111.777H16V113.307H8.9V111.777ZM13.45 104.207C14.31 104.347 14.9767 104.687 15.45 105.227C15.9233 105.76 16.16 106.45 16.16 107.297C16.16 107.984 16 108.587 15.68 109.107C15.36 109.62 14.92 110.017 14.36 110.297C13.7933 110.577 13.16 110.717 12.46 110.717C11.76 110.717 11.1267 110.577 10.56 110.297C9.99333 110.017 9.55 109.62 9.23 109.107C8.90333 108.587 8.74 107.984 8.74 107.297C8.74 106.477 8.96667 105.8 9.42 105.267C9.87333 104.734 10.5133 104.39 11.34 104.237L11.41 105.827C10.97 105.914 10.63 106.087 10.39 106.347C10.15 106.607 10.03 106.934 10.03 107.327C10.03 107.727 10.1333 108.064 10.34 108.337C10.5467 108.61 10.8367 108.814 11.21 108.947C11.5767 109.08 11.9933 109.147 12.46 109.147C12.9267 109.147 13.3433 109.08 13.71 108.947C14.07 108.814 14.3533 108.61 14.56 108.337C14.7667 108.064 14.87 107.727 14.87 107.327C14.87 106.914 14.7433 106.577 14.49 106.317C14.23 106.05 13.86 105.88 13.38 105.807L13.45 104.207ZM8.9 98.2104H10.19V101.63H11.81V98.3304H13.07V101.63H14.71V98.1304H16V103.16H8.9V98.2104ZM13.58 95.6397C13.84 95.5864 14.0667 95.4964 14.26 95.3697C14.4467 95.2364 14.59 95.0597 14.69 94.8397C14.79 94.6197 14.84 94.3664 14.84 94.0797C14.84 93.8464 14.81 93.6464 14.75 93.4797C14.69 93.3064 14.6033 93.1764 14.49 93.0897C14.37 92.9964 14.2267 92.9497 14.06 92.9497C13.8067 92.9564 13.5967 93.0797 13.43 93.3197C13.2633 93.553 13.11 93.9497 12.97 94.5097C12.7833 95.3297 12.52 95.9564 12.18 96.3897C11.84 96.8164 11.3933 97.0297 10.84 97.0297C10.4133 97.0297 10.0433 96.9197 9.73 96.6997C9.41 96.473 9.16667 96.1597 9 95.7597C8.82667 95.353 8.74 94.883 8.74 94.3497C8.74 93.823 8.84 93.3564 9.04 92.9497C9.24 92.5364 9.52333 92.2064 9.89 91.9597C10.25 91.713 10.67 91.563 11.15 91.5097L11.21 93.0297C10.97 93.0564 10.76 93.1297 10.58 93.2497C10.3933 93.3697 10.2533 93.5264 10.16 93.7197C10.06 93.913 10.01 94.133 10.01 94.3797C10.01 94.713 10.09 94.983 10.25 95.1897C10.4033 95.3964 10.6067 95.493 10.86 95.4797C11.04 95.473 11.19 95.4097 11.31 95.2897C11.43 95.163 11.5267 95.0097 11.6 94.8297C11.6667 94.6497 11.7367 94.413 11.81 94.1197L11.84 93.9897C12.0267 93.163 12.3 92.5264 12.66 92.0797C13.0133 91.6264 13.4633 91.3997 14.01 91.3997C14.4433 91.3997 14.82 91.5197 15.14 91.7597C15.46 91.993 15.7033 92.3164 15.87 92.7297C16.0367 93.143 16.12 93.6064 16.12 94.1197C16.12 94.693 16.02 95.2064 15.82 95.6597C15.62 96.1064 15.3367 96.463 14.97 96.7297C14.5967 96.9897 14.1633 97.1364 13.67 97.1697L13.58 95.6397ZM8.9 86.3374H16V87.8674H8.9V86.3374ZM8.9 79.7345C8.9 79.1678 8.99333 78.6811 9.18 78.2745C9.36667 77.8611 9.63667 77.5445 9.99 77.3245C10.3367 77.1045 10.7467 76.9945 11.22 76.9945C11.7 76.9945 12.1167 77.1045 12.47 77.3245C12.8167 77.5445 13.0833 77.8611 13.27 78.2745C13.4567 78.6811 13.55 79.1678 13.55 79.7345V81.0445H16V82.5745H8.9V79.7345ZM12.26 79.8145C12.26 79.4145 12.1733 79.1078 12 78.8945C11.82 78.6811 11.56 78.5745 11.22 78.5745C10.88 78.5745 10.6233 78.6811 10.45 78.8945C10.2767 79.1078 10.19 79.4145 10.19 79.8145V81.0445H12.26V79.8145ZM8.9 72.7457C8.9 72.2457 8.98333 71.8057 9.15 71.4257C9.31667 71.039 9.56333 70.7357 9.89 70.5157C10.21 70.2957 10.59 70.1857 11.03 70.1857C11.3567 70.1857 11.6467 70.2524 11.9 70.3857C12.1467 70.5124 12.3467 70.6957 12.5 70.9357C12.6533 71.169 12.7533 71.4357 12.8 71.7357L12.71 71.8957C12.71 71.3624 12.8067 70.9724 13 70.7257C13.1933 70.479 13.5167 70.3357 13.97 70.2957L16 70.1257L16 71.6657L14.21 71.7957C13.9167 71.8224 13.71 71.9257 13.59 72.1057C13.47 72.2857 13.41 72.5857 13.41 73.0057V74.3257H16V75.8557H8.9V72.7457ZM12.12 72.9557C12.12 72.569 12.04 72.2724 11.88 72.0657C11.7133 71.859 11.4733 71.7557 11.16 71.7557C10.8467 71.7557 10.6067 71.859 10.44 72.0657C10.2733 72.2724 10.19 72.569 10.19 72.9557V74.3257H12.12V72.9557ZM16.16 65.9095C16.16 66.6229 16.0133 67.2395 15.72 67.7595C15.42 68.2729 14.9933 68.6695 14.44 68.9495C13.88 69.2229 13.22 69.3595 12.46 69.3595C11.6933 69.3595 11.0333 69.2229 10.48 68.9495C9.92 68.6762 9.49 68.2795 9.19 67.7595C8.89 67.2395 8.74 66.6229 8.74 65.9095C8.74 65.1895 8.89 64.5729 9.19 64.0595C9.49 63.5395 9.92 63.1429 10.48 62.8695C11.0333 62.5895 11.6933 62.4495 12.46 62.4495C13.22 62.4495 13.88 62.5895 14.44 62.8695C14.9933 63.1429 15.42 63.5395 15.72 64.0595C16.0133 64.5729 16.16 65.1895 16.16 65.9095ZM14.87 65.9095C14.87 65.5162 14.7767 65.1795 14.59 64.8995C14.3967 64.6129 14.12 64.3962 13.76 64.2495C13.4 64.0962 12.9667 64.0195 12.46 64.0195C11.9533 64.0195 11.52 64.0962 11.16 64.2495C10.7933 64.3962 10.5133 64.6129 10.32 64.8995C10.1267 65.1795 10.03 65.5162 10.03 65.9095C10.03 66.2962 10.1267 66.6295 10.32 66.9095C10.5133 67.1895 10.7933 67.4062 11.16 67.5595C11.52 67.7062 11.9533 67.7795 12.46 67.7795C12.9667 67.7795 13.4 67.7062 13.76 67.5595C14.12 67.4062 14.3967 67.1895 14.59 66.9095C14.7767 66.6295 14.87 66.2962 14.87 65.9095ZM13.43 55.5949C13.9833 55.5949 14.4667 55.7149 14.88 55.9549C15.2933 56.1949 15.61 56.5349 15.83 56.9749C16.05 57.4149 16.16 57.9316 16.16 58.5249C16.16 59.1183 16.05 59.6383 15.83 60.0849C15.61 60.5249 15.2933 60.8649 14.88 61.1049C14.4667 61.3383 13.9833 61.4549 13.43 61.4549H8.89V59.9249H13.43C13.8967 59.9249 14.2533 59.8049 14.5 59.5649C14.7467 59.3183 14.87 58.9716 14.87 58.5249C14.87 58.0783 14.7467 57.7349 14.5 57.4949C14.2533 57.2483 13.8967 57.1249 13.43 57.1249H8.89L8.89 55.5949H13.43ZM8.9 51.8139C8.9 50.6672 9.21 49.7839 9.83 49.1639C10.4433 48.5372 11.32 48.2239 12.46 48.2239C13.5933 48.2239 14.4667 48.5306 15.08 49.1439C15.6933 49.7506 16 50.6206 16 51.7539V54.2639H8.9V51.8139ZM14.71 51.8139C14.71 51.1272 14.5267 50.6172 14.16 50.2839C13.7867 49.9439 13.22 49.7739 12.46 49.7739C11.6867 49.7739 11.1167 49.9439 10.75 50.2839C10.3767 50.6172 10.19 51.1272 10.19 51.8139V52.7339H14.71V51.8139ZM8.9 47.2131V45.6831H15.59L14.71 46.5331L14.71 42.4131H16L16 47.2131H8.9ZM8.9 40.9352L11.78 39.3852L8.9 37.8352L8.9 36.1652L13.24 38.6152H16V40.1452H13.24L8.9 42.6152L8.9 40.9352ZM16.16 29.767C16.16 30.4803 16.0133 31.097 15.72 31.617C15.42 32.1303 14.9933 32.527 14.44 32.807C13.88 33.0803 13.22 33.217 12.46 33.217C11.6933 33.217 11.0333 33.0803 10.48 32.807C9.92 32.5336 9.49 32.137 9.19 31.617C8.89 31.097 8.74 30.4803 8.74 29.767C8.74 29.047 8.89 28.4303 9.19 27.917C9.49 27.397 9.92 27.0003 10.48 26.727C11.0333 26.447 11.6933 26.307 12.46 26.307C13.22 26.307 13.88 26.447 14.44 26.727C14.9933 27.0003 15.42 27.397 15.72 27.917C16.0133 28.4303 16.16 29.047 16.16 29.767ZM14.87 29.767C14.87 29.3736 14.7767 29.037 14.59 28.757C14.3967 28.4703 14.12 28.2536 13.76 28.107C13.4 27.9536 12.9667 27.877 12.46 27.877C11.9533 27.877 11.52 27.9536 11.16 28.107C10.7933 28.2536 10.5133 28.4703 10.32 28.757C10.1267 29.037 10.03 29.3736 10.03 29.767C10.03 30.1536 10.1267 30.487 10.32 30.767C10.5133 31.047 10.7933 31.2636 11.16 31.417C11.52 31.5636 11.9533 31.637 12.46 31.637C12.9667 31.637 13.4 31.5636 13.76 31.417C14.12 31.2636 14.3967 31.047 14.59 30.767C14.7767 30.487 14.87 30.1536 14.87 29.767ZM8.9 20.4674H10.19V24.6874L9.31 23.8374H12.56L11.9 24.6874V20.6474H13.16V24.6874L12.5 23.8374H16V25.3674H8.9L8.9 20.4674ZM8.9 14.4225H10.19L10.19 18.6425L9.31 17.7925H12.56L11.9 18.6425L11.9 14.6025H13.16L13.16 18.6425L12.5 17.7925H16V19.3225H8.9L8.9 14.4225ZM8.9 8.32758H10.19L10.19 11.7476H11.81L11.81 8.44758H13.07L13.07 11.7476H14.71L14.71 8.24758H16V13.2776H8.9L8.9 8.32758ZM8.9 3.94687C8.9 3.44687 8.98333 3.00687 9.15 2.62687C9.31667 2.24021 9.56333 1.93687 9.89 1.71687C10.21 1.49687 10.59 1.38687 11.03 1.38687C11.3567 1.38687 11.6467 1.45354 11.9 1.58687C12.1467 1.71354 12.3467 1.89687 12.5 2.13687C12.6533 2.37021 12.7533 2.63687 12.8 2.93687L12.71 3.09687C12.71 2.56354 12.8067 2.17354 13 1.92687C13.1933 1.68021 13.5167 1.53687 13.97 1.49687L16 1.32687V2.86687L14.21 2.99687C13.9167 3.02354 13.71 3.12687 13.59 3.30687C13.47 3.48687 13.41 3.78687 13.41 4.20687V5.52687H16V7.05687H8.9V3.94687ZM12.12 4.15687C12.12 3.77021 12.04 3.47354 11.88 3.26687C11.7133 3.06021 11.4733 2.95687 11.16 2.95687C10.8467 2.95687 10.6067 3.06021 10.44 3.26687C10.2733 3.47354 10.19 3.77021 10.19 4.15687V5.52687H12.12V4.15687Z" fill="#F4F4F4"/>
</svg>
