<svg width="18" height="141" viewBox="0 0 18 141" fill="none" xmlns="http://www.w3.org/2000/svg">
<path d="M7.58 138.96C7.84 138.907 8.06667 138.817 8.26 138.69C8.44667 138.557 8.59 138.38 8.69 138.16C8.79 137.94 8.84 137.687 8.84 137.4C8.84 137.167 8.81 136.967 8.75 136.8C8.69 136.627 8.60333 136.497 8.49 136.41C8.37 136.317 8.22667 136.27 8.06 136.27C7.80667 136.277 7.59667 136.4 7.43 136.64C7.26333 136.873 7.11 137.27 6.97 137.83C6.78333 138.65 6.52 139.277 6.18 139.71C5.84 140.137 5.39333 140.35 4.84 140.35C4.41333 140.35 4.04333 140.24 3.73 140.02C3.41 139.793 3.16667 139.48 3 139.08C2.82667 138.673 2.74 138.203 2.74 137.67C2.74 137.143 2.84 136.677 3.04 136.27C3.24 135.857 3.52333 135.527 3.89 135.28C4.25 135.033 4.67 134.883 5.15 134.83L5.21 136.35C4.97 136.377 4.76 136.45 4.58 136.57C4.39333 136.69 4.25333 136.847 4.16 137.04C4.06 137.233 4.01 137.453 4.01 137.7C4.01 138.033 4.09 138.303 4.25 138.51C4.40333 138.717 4.60667 138.813 4.86 138.8C5.04 138.793 5.19 138.73 5.31 138.61C5.43 138.483 5.52667 138.33 5.6 138.15C5.66667 137.97 5.73667 137.733 5.81 137.44L5.84 137.31C6.02667 136.483 6.3 135.847 6.66 135.4C7.01333 134.947 7.46333 134.72 8.01 134.72C8.44333 134.72 8.82 134.84 9.14 135.08C9.46 135.313 9.70333 135.637 9.87 136.05C10.0367 136.463 10.12 136.927 10.12 137.44C10.12 138.013 10.02 138.527 9.82 138.98C9.62 139.427 9.33667 139.783 8.97 140.05C8.59667 140.31 8.16333 140.457 7.67 140.49L7.58 138.96ZM2.9 128.66H4.19L4.19 132.08H5.81L5.81 128.78H7.07L7.07 132.08H8.71L8.71 128.58H10L10 133.61H2.9L2.9 128.66ZM2.9 124.279C2.9 123.779 2.98333 123.339 3.15 122.959C3.31667 122.572 3.56333 122.269 3.89 122.049C4.21 121.829 4.59 121.719 5.03 121.719C5.35667 121.719 5.64667 121.786 5.9 121.919C6.14667 122.046 6.34667 122.229 6.5 122.469C6.65333 122.702 6.75333 122.969 6.8 123.269L6.71 123.429C6.71 122.896 6.80667 122.506 7 122.259C7.19333 122.012 7.51667 121.869 7.97 121.829L10 121.659V123.199L8.21 123.329C7.91667 123.356 7.71 123.459 7.59 123.639C7.47 123.819 7.41 124.119 7.41 124.539L7.41 125.859H10V127.389H2.9L2.9 124.279ZM6.12 124.489C6.12 124.102 6.04 123.806 5.88 123.599C5.71333 123.392 5.47333 123.289 5.16 123.289C4.84667 123.289 4.60667 123.392 4.44 123.599C4.27333 123.806 4.19 124.102 4.19 124.489L4.19 125.859H6.12L6.12 124.489ZM2.9 119.629L8.28 117.749L2.9 115.879L2.9 114.299L10 116.859L10 118.649L2.9 121.209L2.9 119.629ZM2.9 111.777H10V113.307H2.9L2.9 111.777ZM7.45 104.207C8.31 104.347 8.97667 104.687 9.45 105.227C9.92333 105.76 10.16 106.45 10.16 107.297C10.16 107.984 10 108.587 9.68 109.107C9.36 109.62 8.92 110.017 8.36 110.297C7.79333 110.577 7.16 110.717 6.46 110.717C5.76 110.717 5.12667 110.577 4.56 110.297C3.99333 110.017 3.55 109.62 3.23 109.107C2.90333 108.587 2.74 107.984 2.74 107.297C2.74 106.477 2.96667 105.8 3.42 105.267C3.87333 104.734 4.51333 104.39 5.34 104.237L5.41 105.827C4.97 105.914 4.63 106.087 4.39 106.347C4.15 106.607 4.03 106.934 4.03 107.327C4.03 107.727 4.13333 108.064 4.34 108.337C4.54667 108.61 4.83667 108.814 5.21 108.947C5.57667 109.08 5.99333 109.147 6.46 109.147C6.92667 109.147 7.34333 109.08 7.71 108.947C8.07 108.814 8.35333 108.61 8.56 108.337C8.76667 108.064 8.87 107.727 8.87 107.327C8.87 106.914 8.74333 106.577 8.49 106.317C8.23 106.05 7.86 105.88 7.38 105.807L7.45 104.207ZM2.9 98.2104H4.19L4.19 101.63H5.81L5.81 98.3304H7.07L7.07 101.63H8.71V98.1304H10V103.16H2.9L2.9 98.2104ZM7.58 95.6397C7.84 95.5864 8.06667 95.4964 8.26 95.3697C8.44667 95.2364 8.59 95.0597 8.69 94.8397C8.79 94.6197 8.84 94.3664 8.84 94.0797C8.84 93.8464 8.81 93.6464 8.75 93.4797C8.69 93.3064 8.60333 93.1764 8.49 93.0897C8.37 92.9964 8.22667 92.9497 8.06 92.9497C7.80667 92.9564 7.59667 93.0797 7.43 93.3197C7.26333 93.553 7.11 93.9497 6.97 94.5097C6.78333 95.3297 6.52 95.9564 6.18 96.3897C5.84 96.8164 5.39333 97.0297 4.84 97.0297C4.41333 97.0297 4.04333 96.9197 3.73 96.6997C3.41 96.473 3.16667 96.1597 3 95.7597C2.82667 95.353 2.74 94.883 2.74 94.3497C2.74 93.823 2.84 93.3564 3.04 92.9497C3.24 92.5364 3.52333 92.2064 3.89 91.9597C4.25 91.713 4.67 91.563 5.15 91.5097L5.21 93.0297C4.97 93.0564 4.76 93.1297 4.58 93.2497C4.39333 93.3697 4.25333 93.5264 4.16 93.7197C4.06 93.913 4.01 94.133 4.01 94.3797C4.01 94.713 4.09 94.983 4.25 95.1897C4.40333 95.3964 4.60667 95.493 4.86 95.4797C5.04 95.473 5.19 95.4097 5.31 95.2897C5.43 95.163 5.52667 95.0097 5.6 94.8297C5.66667 94.6497 5.73667 94.413 5.81 94.1197L5.84 93.9897C6.02667 93.163 6.3 92.5264 6.66 92.0797C7.01333 91.6264 7.46333 91.3997 8.01 91.3997C8.44333 91.3997 8.82 91.5197 9.14 91.7597C9.46 91.993 9.70333 92.3164 9.87 92.7297C10.0367 93.143 10.12 93.6064 10.12 94.1197C10.12 94.693 10.02 95.2064 9.82 95.6597C9.62 96.1064 9.33667 96.463 8.97 96.7297C8.59667 96.9897 8.16333 97.1364 7.67 97.1697L7.58 95.6397ZM2.9 86.3374H10V87.8674H2.9V86.3374ZM2.9 79.7345C2.9 79.1678 2.99333 78.6811 3.18 78.2745C3.36667 77.8611 3.63667 77.5445 3.99 77.3245C4.33667 77.1045 4.74667 76.9945 5.22 76.9945C5.7 76.9945 6.11667 77.1045 6.47 77.3245C6.81667 77.5445 7.08333 77.8611 7.27 78.2745C7.45667 78.6811 7.55 79.1678 7.55 79.7345V81.0445H10V82.5745H2.9L2.9 79.7345ZM6.26 79.8145C6.26 79.4145 6.17333 79.1078 6 78.8945C5.82 78.6811 5.56 78.5745 5.22 78.5745C4.88 78.5745 4.62333 78.6811 4.45 78.8945C4.27667 79.1078 4.19 79.4145 4.19 79.8145V81.0445H6.26V79.8145ZM2.9 72.7457C2.9 72.2457 2.98333 71.8057 3.15 71.4257C3.31667 71.039 3.56333 70.7357 3.89 70.5157C4.21 70.2957 4.59 70.1857 5.03 70.1857C5.35667 70.1857 5.64667 70.2524 5.9 70.3857C6.14667 70.5124 6.34667 70.6957 6.5 70.9357C6.65333 71.169 6.75333 71.4357 6.8 71.7357L6.71 71.8957C6.71 71.3624 6.80667 70.9724 7 70.7257C7.19333 70.479 7.51667 70.3357 7.97 70.2957L10 70.1257L10 71.6657L8.21 71.7957C7.91667 71.8224 7.71 71.9257 7.59 72.1057C7.47 72.2857 7.41 72.5857 7.41 73.0057V74.3257H10V75.8557H2.9L2.9 72.7457ZM6.12 72.9557C6.12 72.569 6.04 72.2724 5.88 72.0657C5.71333 71.859 5.47333 71.7557 5.16 71.7557C4.84667 71.7557 4.60667 71.859 4.44 72.0657C4.27333 72.2724 4.19 72.569 4.19 72.9557V74.3257H6.12V72.9557ZM10.16 65.9095C10.16 66.6229 10.0133 67.2395 9.72 67.7595C9.42 68.2729 8.99333 68.6695 8.44 68.9495C7.88 69.2229 7.22 69.3595 6.46 69.3595C5.69333 69.3595 5.03333 69.2229 4.48 68.9495C3.92 68.6762 3.49 68.2795 3.19 67.7595C2.89 67.2395 2.74 66.6229 2.74 65.9095C2.74 65.1895 2.89 64.5729 3.19 64.0595C3.49 63.5395 3.92 63.1429 4.48 62.8695C5.03333 62.5895 5.69333 62.4495 6.46 62.4495C7.22 62.4495 7.88 62.5895 8.44 62.8695C8.99333 63.1429 9.42 63.5395 9.72 64.0595C10.0133 64.5729 10.16 65.1895 10.16 65.9095ZM8.87 65.9095C8.87 65.5162 8.77667 65.1795 8.59 64.8995C8.39667 64.6129 8.12 64.3962 7.76 64.2495C7.4 64.0962 6.96667 64.0195 6.46 64.0195C5.95333 64.0195 5.52 64.0962 5.16 64.2495C4.79333 64.3962 4.51333 64.6129 4.32 64.8995C4.12667 65.1795 4.03 65.5162 4.03 65.9095C4.03 66.2962 4.12667 66.6295 4.32 66.9095C4.51333 67.1895 4.79333 67.4062 5.16 67.5595C5.52 67.7062 5.95333 67.7795 6.46 67.7795C6.96667 67.7795 7.4 67.7062 7.76 67.5595C8.12 67.4062 8.39667 67.1895 8.59 66.9095C8.77667 66.6295 8.87 66.2962 8.87 65.9095ZM7.43 55.5949C7.98333 55.5949 8.46667 55.7149 8.88 55.9549C9.29333 56.1949 9.61 56.5349 9.83 56.9749C10.05 57.4149 10.16 57.9316 10.16 58.5249C10.16 59.1183 10.05 59.6383 9.83 60.0849C9.61 60.5249 9.29333 60.8649 8.88 61.1049C8.46667 61.3383 7.98333 61.4549 7.43 61.4549H2.89L2.89 59.9249H7.43C7.89667 59.9249 8.25333 59.8049 8.5 59.5649C8.74667 59.3183 8.87 58.9716 8.87 58.5249C8.87 58.0783 8.74667 57.7349 8.5 57.4949C8.25333 57.2483 7.89667 57.1249 7.43 57.1249H2.89L2.89 55.5949H7.43ZM2.9 51.8139C2.9 50.6672 3.21 49.7839 3.83 49.1639C4.44333 48.5372 5.32 48.2239 6.46 48.2239C7.59333 48.2239 8.46667 48.5306 9.08 49.1439C9.69333 49.7506 10 50.6206 10 51.7539V54.2639H2.9L2.9 51.8139ZM8.71 51.8139C8.71 51.1272 8.52667 50.6172 8.16 50.2839C7.78667 49.9439 7.22 49.7739 6.46 49.7739C5.68667 49.7739 5.11667 49.9439 4.75 50.2839C4.37667 50.6172 4.19 51.1272 4.19 51.8139V52.7339H8.71V51.8139ZM2.9 47.2131L2.9 45.6831H9.59L8.71 46.5331L8.71 42.4131H10L10 47.2131H2.9ZM2.9 40.9352L5.78 39.3852L2.9 37.8352L2.9 36.1652L7.24 38.6152H10V40.1452H7.24L2.9 42.6152L2.9 40.9352ZM10.16 29.767C10.16 30.4803 10.0133 31.097 9.72 31.617C9.42 32.1303 8.99333 32.527 8.44 32.807C7.88 33.0803 7.22 33.217 6.46 33.217C5.69333 33.217 5.03333 33.0803 4.48 32.807C3.92 32.5336 3.49 32.137 3.19 31.617C2.89 31.097 2.74 30.4803 2.74 29.767C2.74 29.047 2.89 28.4303 3.19 27.917C3.49 27.397 3.92 27.0003 4.48 26.727C5.03333 26.447 5.69333 26.307 6.46 26.307C7.22 26.307 7.88 26.447 8.44 26.727C8.99333 27.0003 9.42 27.397 9.72 27.917C10.0133 28.4303 10.16 29.047 10.16 29.767ZM8.87 29.767C8.87 29.3736 8.77667 29.037 8.59 28.757C8.39667 28.4703 8.12 28.2536 7.76 28.107C7.4 27.9536 6.96667 27.877 6.46 27.877C5.95333 27.877 5.52 27.9536 5.16 28.107C4.79333 28.2536 4.51333 28.4703 4.32 28.757C4.12667 29.037 4.03 29.3736 4.03 29.767C4.03 30.1536 4.12667 30.487 4.32 30.767C4.51333 31.047 4.79333 31.2636 5.16 31.417C5.52 31.5636 5.95333 31.637 6.46 31.637C6.96667 31.637 7.4 31.5636 7.76 31.417C8.12 31.2636 8.39667 31.047 8.59 30.767C8.77667 30.487 8.87 30.1536 8.87 29.767ZM2.9 20.4674H4.19L4.19 24.6874L3.31 23.8374H6.56L5.9 24.6874L5.9 20.6474H7.16L7.16 24.6874L6.5 23.8374H10V25.3674H2.9L2.9 20.4674ZM2.9 14.4225H4.19L4.19 18.6425L3.31 17.7925H6.56L5.9 18.6425L5.9 14.6025H7.16L7.16 18.6425L6.5 17.7925H10V19.3225H2.9L2.9 14.4225ZM2.9 8.32758H4.19L4.19 11.7476H5.81L5.81 8.44758H7.07L7.07 11.7476H8.71L8.71 8.24758H10L10 13.2776H2.9L2.9 8.32758ZM2.9 3.94687C2.9 3.44687 2.98333 3.00687 3.15 2.62687C3.31667 2.24021 3.56333 1.93687 3.89 1.71687C4.21 1.49687 4.59 1.38687 5.03 1.38687C5.35667 1.38687 5.64667 1.45354 5.9 1.58687C6.14667 1.71354 6.34667 1.89687 6.5 2.13687C6.65333 2.37021 6.75333 2.63687 6.8 2.93687L6.71 3.09687C6.71 2.56354 6.80667 2.17354 7 1.92687C7.19333 1.68021 7.51667 1.53687 7.97 1.49687L10 1.32687V2.86687L8.21 2.99687C7.91667 3.02354 7.71 3.12687 7.59 3.30687C7.47 3.48687 7.41 3.78687 7.41 4.20687L7.41 5.52687H10V7.05687H2.9L2.9 3.94687ZM6.12 4.15687C6.12 3.77021 6.04 3.47354 5.88 3.26687C5.71333 3.06021 5.47333 2.95687 5.16 2.95687C4.84667 2.95687 4.60667 3.06021 4.44 3.26687C4.27333 3.47354 4.19 3.77021 4.19 4.15687L4.19 5.52687H6.12L6.12 4.15687Z" fill="#F4F4F4"/>
<rect x="16" y="141" width="48" height="2" rx="1" transform="rotate(-90 16 141)" fill="#F4F4F4"/>
</svg>
