<svg width="27" height="230" viewBox="0 0 27 230" fill="none" xmlns="http://www.w3.org/2000/svg">
<path d="M11.048 226.16C11.3893 226.107 11.6827 225.995 11.928 225.824C12.1733 225.643 12.3653 225.408 12.504 225.12C12.632 224.832 12.696 224.491 12.696 224.096C12.696 223.819 12.6587 223.573 12.584 223.36C12.5093 223.147 12.4027 222.981 12.264 222.864C12.1147 222.747 11.9387 222.693 11.736 222.704C11.4267 222.715 11.1813 222.864 11 223.152C10.808 223.44 10.6267 223.957 10.456 224.704C10.1147 226.176 9.66133 227.275 9.096 228C8.53067 228.715 7.8 229.072 6.904 229.072C6.18933 229.072 5.57067 228.88 5.048 228.496C4.51467 228.101 4.104 227.552 3.816 226.848C3.528 226.144 3.384 225.317 3.384 224.368C3.384 223.515 3.54933 222.752 3.88 222.08C4.21067 221.397 4.68 220.853 5.288 220.448C5.88533 220.032 6.584 219.776 7.384 219.68L7.512 222.768C7.17067 222.789 6.87733 222.875 6.632 223.024C6.376 223.173 6.184 223.371 6.056 223.616C5.928 223.851 5.864 224.133 5.864 224.464C5.864 224.912 5.96533 225.275 6.168 225.552C6.37067 225.819 6.63733 225.931 6.968 225.888C7.17067 225.877 7.34667 225.797 7.496 225.648C7.63467 225.499 7.752 225.307 7.848 225.072C7.93333 224.837 8.01867 224.533 8.104 224.16L8.152 223.968C8.42933 222.517 8.86133 221.419 9.448 220.672C10.0347 219.915 10.7813 219.536 11.688 219.536C12.4133 219.536 13.0427 219.733 13.576 220.128C14.0987 220.512 14.4987 221.051 14.776 221.744C15.0533 222.437 15.192 223.237 15.192 224.144C15.192 225.125 15.032 225.995 14.712 226.752C14.392 227.509 13.928 228.107 13.32 228.544C12.712 228.981 12.0027 229.227 11.192 229.28L11.048 226.16ZM3.64 209.67H6.152L6.152 214.934H8.056L8.056 209.862H10.552L10.552 214.934H12.488L12.488 209.542H15L15 218.086H3.64L3.64 209.67ZM3.64 202.521C3.64 201.732 3.768 201.017 4.024 200.377C4.28 199.737 4.664 199.231 5.176 198.857C5.688 198.484 6.30667 198.297 7.032 198.297C7.576 198.297 8.05067 198.393 8.456 198.585C8.85067 198.777 9.17067 199.065 9.416 199.449C9.66133 199.823 9.832 200.281 9.928 200.825L9.816 200.938C9.816 200.127 9.976 199.524 10.296 199.129C10.6053 198.735 11.1067 198.511 11.8 198.457L15 198.201L15 201.353L12.376 201.529C11.9067 201.551 11.5813 201.684 11.4 201.929C11.2187 202.175 11.128 202.569 11.128 203.113V204.793H15L15 207.945H3.64L3.64 202.521ZM8.6 203.097C8.6 202.575 8.49867 202.18 8.296 201.913C8.09333 201.636 7.78933 201.497 7.384 201.497C6.98933 201.497 6.68533 201.636 6.472 201.913C6.25867 202.18 6.152 202.575 6.152 203.097L6.152 204.793H8.6V203.097ZM3.64 194.384L11.448 191.696L3.64 189.024L3.64 185.824L15 189.92L15 193.472L3.64 197.568L3.64 194.384ZM3.64 181.231H15V184.383H3.64L3.64 181.231ZM10.68 168.872C12.1627 169.118 13.2987 169.694 14.088 170.6C14.8667 171.496 15.256 172.643 15.256 174.04C15.256 175.16 15.0053 176.152 14.504 177.016C13.992 177.88 13.288 178.552 12.392 179.032C11.4853 179.512 10.4667 179.752 9.336 179.752C8.20533 179.752 7.18667 179.518 6.28 179.048C5.37333 178.568 4.664 177.896 4.152 177.032C3.64 176.158 3.384 175.16 3.384 174.04C3.384 172.654 3.768 171.512 4.536 170.616C5.29333 169.71 6.392 169.134 7.832 168.888L7.944 172.136C7.29333 172.243 6.792 172.472 6.44 172.824C6.07733 173.166 5.896 173.598 5.896 174.12C5.896 174.654 6.04 175.102 6.328 175.464C6.60533 175.816 7.00533 176.083 7.528 176.264C8.04 176.446 8.64267 176.536 9.336 176.536C10.0293 176.536 10.632 176.446 11.144 176.264C11.6453 176.083 12.04 175.811 12.328 175.448C12.6053 175.086 12.744 174.643 12.744 174.12C12.744 173.587 12.5573 173.15 12.184 172.808C11.8 172.456 11.2667 172.232 10.584 172.136L10.68 168.872ZM3.64 159.014H6.152L6.152 164.278H8.056L8.056 159.206H10.552L10.552 164.278H12.488L12.488 158.886H15L15 167.43H3.64L3.64 159.014ZM11.048 154.441C11.3893 154.388 11.6827 154.276 11.928 154.105C12.1733 153.924 12.3653 153.689 12.504 153.401C12.632 153.113 12.696 152.772 12.696 152.377C12.696 152.1 12.6587 151.855 12.584 151.641C12.5093 151.428 12.4027 151.263 12.264 151.145C12.1147 151.028 11.9387 150.975 11.736 150.985C11.4267 150.996 11.1813 151.145 11 151.433C10.808 151.721 10.6267 152.239 10.456 152.985C10.1147 154.457 9.66133 155.556 9.096 156.281C8.53067 156.996 7.8 157.353 6.904 157.353C6.18933 157.353 5.57067 157.161 5.048 156.777C4.51467 156.383 4.104 155.833 3.816 155.129C3.528 154.425 3.384 153.599 3.384 152.649C3.384 151.796 3.54933 151.033 3.88 150.361C4.21067 149.679 4.68 149.135 5.288 148.729C5.88533 148.313 6.584 148.057 7.384 147.961L7.512 151.049C7.17067 151.071 6.87733 151.156 6.632 151.305C6.376 151.455 6.184 151.652 6.056 151.897C5.928 152.132 5.864 152.415 5.864 152.745C5.864 153.193 5.96533 153.556 6.168 153.833C6.37067 154.1 6.63733 154.212 6.968 154.169C7.17067 154.159 7.34667 154.079 7.496 153.929C7.63467 153.78 7.752 153.588 7.848 153.353C7.93333 153.119 8.01867 152.815 8.104 152.441L8.152 152.249C8.42933 150.799 8.86133 149.7 9.448 148.953C10.0347 148.196 10.7813 147.817 11.688 147.817C12.4133 147.817 13.0427 148.015 13.576 148.409C14.0987 148.793 14.4987 149.332 14.776 150.025C15.0533 150.719 15.192 151.519 15.192 152.425C15.192 153.407 15.032 154.276 14.712 155.033C14.392 155.791 13.928 156.388 13.32 156.825C12.712 157.263 12.0027 157.508 11.192 157.561L11.048 154.441ZM3.64 139.528H15V142.68H3.64L3.64 139.528ZM3.64 129.269C3.64 128.33 3.8 127.514 4.12 126.821C4.42933 126.128 4.87733 125.6 5.464 125.237C6.05067 124.864 6.73867 124.677 7.528 124.677C8.31733 124.677 9.00533 124.864 9.592 125.237C10.1787 125.6 10.6267 126.128 10.936 126.821C11.2453 127.514 11.4 128.33 11.4 129.269V130.981H15L15 134.133H3.64L3.64 129.269ZM8.888 129.509C8.888 129.008 8.77067 128.613 8.536 128.325C8.30133 128.026 7.96533 127.877 7.528 127.877C7.08 127.877 6.73867 128.026 6.504 128.325C6.26933 128.613 6.152 129.008 6.152 129.509L6.152 130.981H8.888V129.509ZM3.64 117.74C3.64 116.951 3.768 116.236 4.024 115.596C4.28 114.956 4.664 114.45 5.176 114.076C5.688 113.703 6.30667 113.516 7.032 113.516C7.576 113.516 8.05067 113.612 8.456 113.804C8.85067 113.996 9.17067 114.284 9.416 114.668C9.66133 115.042 9.832 115.5 9.928 116.044L9.816 116.156C9.816 115.346 9.976 114.743 10.296 114.348C10.6053 113.954 11.1067 113.73 11.8 113.676L15 113.42V116.572L12.376 116.748C11.9067 116.77 11.5813 116.903 11.4 117.148C11.2187 117.394 11.128 117.788 11.128 118.332L11.128 120.012H15V123.164H3.64L3.64 117.74ZM8.6 118.316C8.6 117.794 8.49867 117.399 8.296 117.132C8.09333 116.855 7.78933 116.716 7.384 116.716C6.98933 116.716 6.68533 116.855 6.472 117.132C6.25867 117.399 6.152 117.794 6.152 118.316V120.012H8.6L8.6 118.316ZM15.256 106.649C15.256 107.843 15.016 108.873 14.536 109.737C14.056 110.601 13.3733 111.262 12.488 111.721C11.592 112.179 10.5413 112.409 9.336 112.409C8.12 112.409 7.064 112.179 6.168 111.721C5.272 111.262 4.584 110.601 4.104 109.737C3.624 108.873 3.384 107.843 3.384 106.649C3.384 105.465 3.624 104.441 4.104 103.577C4.584 102.713 5.272 102.051 6.168 101.593C7.064 101.134 8.12 100.905 9.336 100.905C10.5413 100.905 11.592 101.134 12.488 101.593C13.3733 102.051 14.056 102.713 14.536 103.577C15.016 104.441 15.256 105.465 15.256 106.649ZM12.744 106.649C12.744 106.115 12.6107 105.662 12.344 105.289C12.0667 104.905 11.6773 104.617 11.176 104.425C10.664 104.222 10.0507 104.121 9.336 104.121C8.61067 104.121 7.992 104.222 7.48 104.425C6.968 104.617 6.57867 104.905 6.312 105.289C6.03467 105.662 5.896 106.115 5.896 106.649C5.896 107.171 6.03467 107.625 6.312 108.009C6.57867 108.382 6.968 108.67 7.48 108.873C7.992 109.065 8.61067 109.161 9.336 109.161C10.0507 109.161 10.664 109.065 11.176 108.873C11.6773 108.67 12.0667 108.382 12.344 108.009C12.6107 107.625 12.744 107.171 12.744 106.649ZM10.808 89.6877C11.704 89.6877 12.488 89.8904 13.16 90.2957C13.832 90.7011 14.3493 91.2771 14.712 92.0237C15.0747 92.7597 15.256 93.6344 15.256 94.6477C15.256 95.6504 15.0747 96.5251 14.712 97.2717C14.3493 98.0077 13.832 98.5784 13.16 98.9837C12.488 99.3891 11.704 99.5917 10.808 99.5917H3.624L3.624 96.4397H10.808C11.448 96.4397 11.9333 96.2851 12.264 95.9757C12.584 95.6557 12.744 95.2131 12.744 94.6477C12.744 94.0717 12.584 93.6291 12.264 93.3197C11.9333 92.9997 11.448 92.8397 10.808 92.8397H3.624L3.624 89.6877H10.808ZM3.64 83.7695C3.64 81.8602 4.136 80.3935 5.128 79.3695C6.10933 78.3455 7.512 77.8335 9.336 77.8335C11.1493 77.8335 12.5467 78.3402 13.528 79.3535C14.5093 80.3562 15 81.7962 15 83.6735L15 87.9455H3.64L3.64 83.7695ZM12.488 83.7695C12.488 82.8202 12.232 82.1215 11.72 81.6735C11.1973 81.2255 10.3973 81.0015 9.32 81.0015C8.24267 81.0015 7.448 81.2255 6.936 81.6735C6.41333 82.1215 6.152 82.8202 6.152 83.7695V84.7935H12.488V83.7695ZM3.64 76.5392L3.64 73.3872H14.344L12.488 75.1952L12.488 68.4592H15L15 76.5392H3.64ZM3.64 65.4889L7.848 63.3769L3.64 61.2969L3.64 57.9209L10.744 61.8089H15L15 64.9609H10.744L3.64 68.8649L3.64 65.4889ZM15.256 47.7425C15.256 48.9372 15.016 49.9665 14.536 50.8305C14.056 51.6945 13.3733 52.3558 12.488 52.8145C11.592 53.2732 10.5413 53.5025 9.336 53.5025C8.12 53.5025 7.064 53.2732 6.168 52.8145C5.272 52.3558 4.584 51.6945 4.104 50.8305C3.624 49.9665 3.384 48.9372 3.384 47.7425C3.384 46.5585 3.624 45.5345 4.104 44.6705C4.584 43.8065 5.272 43.1452 6.168 42.6865C7.064 42.2278 8.12 41.9985 9.336 41.9985C10.5413 41.9985 11.592 42.2278 12.488 42.6865C13.3733 43.1452 14.056 43.8065 14.536 44.6705C15.016 45.5345 15.256 46.5585 15.256 47.7425ZM12.744 47.7425C12.744 47.2092 12.6107 46.7558 12.344 46.3825C12.0667 45.9985 11.6773 45.7105 11.176 45.5185C10.664 45.3158 10.0507 45.2145 9.336 45.2145C8.61067 45.2145 7.992 45.3158 7.48 45.5185C6.968 45.7105 6.57867 45.9985 6.312 46.3825C6.03467 46.7558 5.896 47.2092 5.896 47.7425C5.896 48.2652 6.03467 48.7185 6.312 49.1025C6.57867 49.4758 6.968 49.7638 7.48 49.9665C7.992 50.1585 8.61067 50.2545 9.336 50.2545C10.0507 50.2545 10.664 50.1585 11.176 49.9665C11.6773 49.7638 12.0667 49.4758 12.344 49.1025C12.6107 48.7185 12.744 48.2652 12.744 47.7425ZM3.64 32.4227H6.152L6.152 39.3827L4.296 37.5747H9.496L8.2 39.3827L8.2 32.7107H10.696L10.696 39.3827L9.4 37.5747H15L15 40.7267H3.64L3.64 32.4227ZM3.64 22.5946H6.152L6.152 29.5546L4.296 27.7466H9.496L8.2 29.5546L8.2 22.8826H10.696L10.696 29.5546L9.4 27.7466H15V30.8986H3.64L3.64 22.5946ZM3.64 12.6545H6.152L6.152 17.9185H8.056L8.056 12.8465H10.552L10.552 17.9185H12.488L12.488 12.5265H15L15 21.0705H3.64L3.64 12.6545ZM3.64 5.50587C3.64 4.71654 3.768 4.00187 4.024 3.36187C4.28 2.72187 4.664 2.21521 5.176 1.84187C5.688 1.46854 6.30667 1.28187 7.032 1.28187C7.576 1.28187 8.05067 1.37787 8.456 1.56987C8.85067 1.76187 9.17067 2.04987 9.416 2.43387C9.66133 2.80721 9.832 3.26587 9.928 3.80987L9.816 3.92188C9.816 3.11121 9.976 2.50854 10.296 2.11387C10.6053 1.71921 11.1067 1.49521 11.8 1.44187L15 1.18587L15 4.33787L12.376 4.51387C11.9067 4.53521 11.5813 4.66854 11.4 4.91387C11.2187 5.15921 11.128 5.55387 11.128 6.09787V7.77787H15V10.9299H3.64L3.64 5.50587ZM8.6 6.08187C8.6 5.55921 8.49867 5.16454 8.296 4.89787C8.09333 4.62054 7.78933 4.48187 7.384 4.48187C6.98933 4.48187 6.68533 4.62054 6.472 4.89787C6.25867 5.16454 6.152 5.55921 6.152 6.08187V7.77787H8.6V6.08187Z" fill="#F4F4F4"/>
<rect x="23" y="230" width="48" height="4" rx="2" transform="rotate(-90 23 230)" fill="#F4F4F4"/>
</svg>
