<svg width="48" height="48" viewBox="0 0 48 48" fill="none" xmlns="http://www.w3.org/2000/svg">
<rect width="48" height="48" rx="7.23256" fill="#19B3A7" fill-opacity="0.5"/>
<path d="M15.8975 22.2604C19.4059 22.2604 22.2602 19.406 22.2602 15.8976C22.2602 12.3891 19.4059 9.53467 15.8975 9.53467C12.389 9.53467 9.53467 12.3891 9.53467 15.8976C9.53467 19.406 12.389 22.2604 15.8975 22.2604ZM19.043 20.3565L16.6877 16.3499L21.3371 16.352C21.2004 18.0039 20.3251 19.4494 19.043 20.3565ZM21.3376 15.4479L16.3495 15.4457V10.4576C19.0005 10.6759 21.1204 12.7966 21.3376 15.4479ZM15.4455 10.4576V15.8976C15.4455 15.9781 15.467 16.0572 15.5078 16.1266L18.2644 20.8161C17.548 21.1622 16.745 21.3563 15.8975 21.3563C12.8876 21.3563 10.4388 18.9076 10.4388 15.8976C10.4387 13.0398 12.6462 10.6882 15.4455 10.4576ZM28.8158 10.2826C28.8158 10.0329 29.0182 9.83052 29.2679 9.83052H38.0127C38.2624 9.83052 38.4648 10.0329 38.4648 10.2826C38.4648 10.5322 38.2624 10.7346 38.0127 10.7346H29.2679C29.0182 10.7346 28.8158 10.5322 28.8158 10.2826ZM28.8158 12.1751C28.8158 11.9255 29.0182 11.7231 29.2679 11.7231H33.6403C33.89 11.7231 34.0924 11.9255 34.0924 12.1751C34.0924 12.4248 33.89 12.6272 33.6403 12.6272H29.2679C29.0182 12.6272 28.8158 12.4248 28.8158 12.1751ZM24.7638 12.923H27.248C27.4977 12.923 27.7001 12.7206 27.7001 12.471V9.9867C27.7001 9.73707 27.4977 9.53467 27.248 9.53467H24.7638C24.5141 9.53467 24.3117 9.73707 24.3117 9.9867V12.471C24.3117 12.7206 24.5141 12.923 24.7638 12.923ZM25.2158 10.4387H26.796V12.0189H25.2158V10.4387ZM28.8158 14.9512C28.8158 14.7016 29.0182 14.4992 29.2679 14.4992H38.0127C38.2624 14.4992 38.4648 14.7016 38.4648 14.9512C38.4648 15.2009 38.2624 15.4033 38.0127 15.4033H29.2679C29.0182 15.4033 28.8158 15.2009 28.8158 14.9512ZM28.8158 16.8438C28.8158 16.5942 29.0182 16.3918 29.2679 16.3918H33.6403C33.89 16.3918 34.0924 16.5942 34.0924 16.8438C34.0924 17.0934 33.89 17.2958 33.6403 17.2958H29.2679C29.0182 17.2958 28.8158 17.0935 28.8158 16.8438ZM24.7638 17.5917H27.248C27.4977 17.5917 27.7001 17.3893 27.7001 17.1397V14.6554C27.7001 14.4057 27.4977 14.2033 27.248 14.2033H24.7638C24.5141 14.2033 24.3117 14.4057 24.3117 14.6554V17.1397C24.3117 17.3893 24.5141 17.5917 24.7638 17.5917ZM25.2158 15.1074H26.796V16.6876H25.2158V15.1074ZM28.8158 19.6199C28.8158 19.3703 29.0182 19.1679 29.2679 19.1679H38.0127C38.2624 19.1679 38.4648 19.3703 38.4648 19.6199C38.4648 19.8695 38.2624 20.0719 38.0127 20.0719H29.2679C29.0182 20.0719 28.8158 19.8696 28.8158 19.6199ZM12.9938 27.2403H9.9867C9.73707 27.2403 9.53467 27.4427 9.53467 27.6924V38.0129C9.53467 38.2625 9.73707 38.4649 9.9867 38.4649H12.9938C13.2434 38.4649 13.4458 38.2625 13.4458 38.0129V27.6924C13.4458 27.4427 13.2435 27.2403 12.9938 27.2403ZM12.5418 37.5608H10.4387V28.1444H12.5418V37.5608ZM38.1676 34.461L34.9714 31.3595C34.7838 31.1774 34.5353 31.0801 34.2734 31.0832C34.1358 31.0853 34.0033 31.1159 33.8819 31.171L32.5991 29.9263C33.184 28.9733 33.5217 27.8531 33.5217 26.6553C33.5217 24.791 32.7038 23.1144 31.4084 21.9645H33.6403C33.89 21.9645 34.0924 21.7621 34.0924 21.5125C34.0924 21.2628 33.89 21.0604 33.6403 21.0604H30.0828C29.3579 20.6919 28.5523 20.4601 27.7001 20.3993V19.3241C27.7001 19.0744 27.4977 18.872 27.2481 18.872H24.7638C24.5142 18.872 24.3118 19.0744 24.3118 19.3241V21.115C22.3299 22.1702 20.9773 24.2576 20.9773 26.6552C20.9773 27.3954 21.1066 28.106 21.3431 28.7659H20.6667C20.4171 28.7659 20.2147 28.9683 20.2147 29.2179V38.0129C20.2147 38.2625 20.4171 38.4649 20.6667 38.4649H23.6738C23.9234 38.4649 24.1258 38.2625 24.1258 38.0129V32.0929C24.6051 32.3693 25.1242 32.5841 25.6721 32.7265V38.0129C25.6721 38.2625 25.8745 38.4649 26.1242 38.4649H29.1313C29.3809 38.4649 29.5833 38.2625 29.5833 38.0129V32.4769C30.0915 32.2724 30.5672 32.0036 30.9997 31.6799L32.2298 32.8736C32.1784 32.9966 32.1517 33.1299 32.1538 33.2676C32.1577 33.5301 32.2633 33.7749 32.4509 33.957L35.6471 37.0585C35.8374 37.2431 36.0839 37.335 36.3302 37.335C36.5864 37.335 36.8423 37.2355 37.0344 37.0376L38.1884 35.8484C38.5651 35.4602 38.5557 34.8378 38.1676 34.461ZM33.2034 31.7725L32.8105 32.1774L31.6853 31.0855C31.8183 30.9524 31.9451 30.8131 32.0657 30.6686L33.2034 31.7725ZM25.2158 19.7761H26.796V20.3995C26.2468 20.4389 25.7171 20.5493 25.2158 20.7216V19.7761ZM27.2494 21.2871C30.2095 21.2871 32.6176 23.6953 32.6176 26.6553C32.6176 29.6153 30.2094 32.0234 27.2494 32.0234C24.2895 32.0234 21.8813 29.6153 21.8813 26.6553C21.8813 23.6952 24.2895 21.2871 27.2494 21.2871ZM23.2217 37.5608H21.1187V29.67H21.7508C22.1273 30.354 22.6278 30.9605 23.2217 31.4593V37.5608ZM28.6792 37.5608H26.5761V32.8913C26.7974 32.915 27.022 32.9275 27.2494 32.9275C27.7411 32.9275 28.2198 32.8705 28.6792 32.7629V37.5608ZM37.5396 35.2187L36.3856 36.408C36.3569 36.4374 36.3061 36.4382 36.2766 36.4096L33.0804 33.3081C33.062 33.2903 33.0579 33.2688 33.0577 33.254C33.0574 33.2391 33.0609 33.2175 33.0787 33.1991L34.2327 32.0099C34.2505 31.9915 34.272 31.9874 34.2869 31.9871C34.2873 31.9871 34.2878 31.9871 34.2882 31.9871C34.303 31.9871 34.3239 31.9909 34.3417 32.0083L37.5378 35.1097C37.5674 35.1383 37.5682 35.1893 37.5396 35.2187ZM27.2494 31.2865C29.8031 31.2865 31.8807 29.2089 31.8807 26.6553C31.8807 24.1016 29.8031 22.024 27.2494 22.024C24.6958 22.024 22.6182 24.1016 22.6182 26.6553C22.6182 29.2089 24.6958 31.2865 27.2494 31.2865ZM27.2494 22.9281C29.3046 22.9281 30.9766 24.6001 30.9766 26.6553C30.9766 28.7104 29.3046 30.3825 27.2494 30.3825C25.1943 30.3825 23.5223 28.7104 23.5223 26.6553C23.5223 24.6001 25.1943 22.9281 27.2494 22.9281ZM18.2162 24.6013H15.2091C14.9595 24.6013 14.7571 24.8037 14.7571 25.0534V38.0129C14.7571 38.2625 14.9595 38.4649 15.2091 38.4649H18.2162C18.4659 38.4649 18.6683 38.2625 18.6683 38.0129V25.0534C18.6683 24.8037 18.4659 24.6013 18.2162 24.6013ZM17.7642 37.5608H15.6612V25.5054H17.7642V37.5608Z" fill="#EEEEEE"/>
</svg>
