<svg width="73" height="73" viewBox="0 0 73 73" fill="none" xmlns="http://www.w3.org/2000/svg">
<rect x="0.184692" y="0.864258" width="72" height="72" rx="8" fill="#19B3A7" fill-opacity="0.5"/>
<path d="M22.7417 33.9784C28.5628 33.9784 33.2986 29.2425 33.2986 23.4214C33.2986 17.6002 28.5628 12.8643 22.7417 12.8643C16.9206 12.8643 12.1847 17.6002 12.1847 23.4214C12.1847 29.2425 16.9206 33.9784 22.7417 33.9784ZM27.9606 30.8194L24.0529 24.1719L31.767 24.1753C31.5401 26.9161 30.0878 29.3144 27.9606 30.8194ZM31.7678 22.6753L23.4917 22.6716V14.3956C27.8901 14.7578 31.4074 18.2764 31.7678 22.6753ZM21.9917 14.3956V23.4214C21.9917 23.5549 22.0274 23.6862 22.0952 23.8014L26.6688 31.5819C25.4802 32.1562 24.1479 32.4784 22.7418 32.4784C17.7477 32.4784 13.6848 28.4154 13.6848 23.4214C13.6847 18.6799 17.3472 14.7782 21.9917 14.3956ZM44.1755 14.1051C44.1755 13.6909 44.5113 13.3551 44.9255 13.3551H59.4347C59.8489 13.3551 60.1847 13.6909 60.1847 14.1051C60.1847 14.5193 59.8489 14.8551 59.4347 14.8551H44.9255C44.5112 14.8551 44.1755 14.5193 44.1755 14.1051ZM44.1755 17.2452C44.1755 16.831 44.5113 16.4952 44.9255 16.4952H52.1801C52.5943 16.4952 52.9301 16.831 52.9301 17.2452C52.9301 17.6594 52.5943 17.9952 52.1801 17.9952H44.9255C44.5112 17.9952 44.1755 17.6594 44.1755 17.2452ZM37.4524 18.4861H41.5742C41.9884 18.4861 42.3242 18.1503 42.3242 17.7361V13.6143C42.3242 13.2001 41.9884 12.8643 41.5742 12.8643H37.4524C37.0382 12.8643 36.7024 13.2001 36.7024 13.6143V17.7361C36.7024 18.1503 37.0382 18.4861 37.4524 18.4861ZM38.2024 14.3643H40.8242V16.9861H38.2024V14.3643ZM44.1755 21.8512C44.1755 21.437 44.5113 21.1012 44.9255 21.1012H59.4347C59.8489 21.1012 60.1847 21.437 60.1847 21.8512C60.1847 22.2654 59.8489 22.6012 59.4347 22.6012H44.9255C44.5112 22.6012 44.1755 22.2654 44.1755 21.8512ZM44.1755 24.9913C44.1755 24.5771 44.5113 24.2413 44.9255 24.2413H52.1801C52.5943 24.2413 52.9301 24.5771 52.9301 24.9913C52.9301 25.4055 52.5943 25.7413 52.1801 25.7413H44.9255C44.5112 25.7413 44.1755 25.4056 44.1755 24.9913ZM37.4524 26.2322H41.5742C41.9884 26.2322 42.3242 25.8964 42.3242 25.4822V21.3604C42.3242 20.9462 41.9884 20.6104 41.5742 20.6104H37.4524C37.0382 20.6104 36.7024 20.9462 36.7024 21.3604V25.4822C36.7024 25.8964 37.0382 26.2322 37.4524 26.2322ZM38.2024 22.1104H40.8242V24.7322H38.2024V22.1104ZM44.1755 29.5973C44.1755 29.1831 44.5113 28.8473 44.9255 28.8473H59.4347C59.8489 28.8473 60.1847 29.1831 60.1847 29.5973C60.1847 30.0115 59.8489 30.3473 59.4347 30.3473H44.9255C44.5112 30.3473 44.1755 30.0116 44.1755 29.5973ZM17.924 42.2408H12.9347C12.5205 42.2408 12.1847 42.5766 12.1847 42.9908V60.1143C12.1847 60.5284 12.5205 60.8643 12.9347 60.8643H17.924C18.3382 60.8643 18.674 60.5284 18.674 60.1143V42.9908C18.674 42.5765 18.3383 42.2408 17.924 42.2408ZM17.174 59.3643H13.6847V43.7408H17.174V59.3643ZM59.6916 54.221L54.3886 49.0752C54.0773 48.773 53.665 48.6116 53.2304 48.6168C53.0021 48.6202 52.7823 48.671 52.5809 48.7625L50.4526 46.6973C51.423 45.1161 51.9833 43.2574 51.9833 41.2701C51.9833 38.1769 50.6262 35.3952 48.4769 33.4874H52.1801C52.5943 33.4874 52.9301 33.1516 52.9301 32.7374C52.9301 32.3232 52.5943 31.9874 52.1801 31.9874H46.2775C45.0748 31.3759 43.7382 30.9914 42.3243 30.8905V29.1064C42.3243 28.6923 41.9885 28.3564 41.5743 28.3564H37.4525C37.0383 28.3564 36.7025 28.6923 36.7025 29.1064V32.0779C33.4141 33.8286 31.17 37.2919 31.17 41.27C31.17 42.4982 31.3845 43.6771 31.7769 44.772H30.6547C30.2405 44.772 29.9047 45.1078 29.9047 45.522V60.1143C29.9047 60.5284 30.2405 60.8643 30.6547 60.8643H35.6439C36.0581 60.8643 36.3939 60.5284 36.3939 60.1143V50.292C37.1891 50.7506 38.0504 51.1069 38.9595 51.3433V60.1143C38.9595 60.5284 39.2953 60.8643 39.7095 60.8643H44.6988C45.113 60.8643 45.4488 60.5284 45.4488 60.1143V50.9292C46.2921 50.5899 47.0813 50.1439 47.7988 49.6068L49.8398 51.5873C49.7544 51.7914 49.7102 52.0127 49.7137 52.241C49.7202 52.6766 49.8953 53.0828 50.2066 53.3849L55.5097 58.5307C55.8254 58.8371 56.2344 58.9895 56.6431 58.9895C57.0682 58.9895 57.4928 58.8245 57.8115 58.4961L59.7262 56.523C60.3511 55.8789 60.3356 54.8464 59.6916 54.221ZM51.4552 49.7604L50.8033 50.4322L48.9364 48.6206C49.157 48.3997 49.3674 48.1686 49.5676 47.9288L51.4552 49.7604ZM38.2024 29.8564H40.8242V30.8908C39.913 30.9562 39.0341 31.1393 38.2024 31.4252V29.8564ZM41.5765 32.3635C46.4877 32.3635 50.4832 36.359 50.4832 41.2701C50.4832 46.1812 46.4876 50.1768 41.5765 50.1768C36.6654 50.1768 32.6699 46.1812 32.6699 41.2701C32.6699 36.3589 36.6654 32.3635 41.5765 32.3635ZM34.8938 59.3643H31.4046V46.2721H32.4534C33.0781 47.407 33.9084 48.4132 34.8938 49.2409V59.3643ZM43.9487 59.3643H40.4594V51.6167C40.8265 51.656 41.1991 51.6768 41.5765 51.6768C42.3923 51.6768 43.1865 51.5822 43.9487 51.4038V59.3643ZM58.6496 55.4783L56.735 57.4515C56.6874 57.5003 56.6031 57.5016 56.5541 57.4541L51.2511 52.3083C51.2206 52.2787 51.2138 52.2431 51.2134 52.2184C51.213 52.1938 51.2188 52.158 51.2483 52.1274L53.1629 50.1544C53.1925 50.1238 53.2282 50.1169 53.2529 50.1166C53.2536 50.1166 53.2543 50.1166 53.2551 50.1166C53.2796 50.1166 53.3142 50.1229 53.3438 50.1516L58.6467 55.2975C58.6958 55.3449 58.6971 55.4295 58.6496 55.4783ZM41.5765 48.9542C45.8135 48.9542 49.2606 45.5071 49.2606 41.2701C49.2606 37.0332 45.8135 33.5861 41.5765 33.5861C37.3396 33.5861 33.8925 37.0332 33.8925 41.2701C33.8925 45.5071 37.3396 48.9542 41.5765 48.9542ZM41.5765 35.0861C44.9864 35.0861 47.7606 37.8603 47.7606 41.2701C47.7606 44.68 44.9864 47.4542 41.5765 47.4542C38.1667 47.4542 35.3925 44.68 35.3925 41.2701C35.3925 37.8603 38.1667 35.0861 41.5765 35.0861ZM26.5889 37.8623H21.5996C21.1854 37.8623 20.8496 38.1981 20.8496 38.6123V60.1143C20.8496 60.5284 21.1854 60.8643 21.5996 60.8643H26.5889C27.0031 60.8643 27.3389 60.5284 27.3389 60.1143V38.6123C27.3389 38.1981 27.0031 37.8623 26.5889 37.8623ZM25.8389 59.3643H22.3496V39.3623H25.8389V59.3643Z" fill="#EEEEEE"/>
</svg>
