<svg width="73" height="72" viewBox="0 0 73 72" fill="none" xmlns="http://www.w3.org/2000/svg">
<rect x="0.450928" width="72" height="72" rx="8" fill="#19B3A7" fill-opacity="0.5"/>
<path d="M16.2909 52.1281H31.0749C32.7069 52.1281 33.9549 50.8801 33.9549 49.2481C33.9549 39.3601 33.9549 32.2561 33.9549 22.7521C33.9549 21.1201 32.7069 19.8721 31.0749 19.8721H16.2909C14.6589 19.8721 13.4109 21.1201 13.4109 22.7521C13.4109 32.2561 13.4109 39.3601 13.4109 49.2481C13.4109 50.8801 14.6589 52.1281 16.2909 52.1281ZM15.3309 22.7521C15.3309 22.1761 15.7149 21.7921 16.2909 21.7921H31.0749C31.6509 21.7921 32.0349 22.1761 32.0349 22.7521V26.2081H15.3309V22.7521ZM15.3309 28.0321H32.0349V49.2481C32.0349 49.8241 31.6509 50.2081 31.0749 50.2081H16.2909C15.7149 50.2081 15.3309 49.8241 15.3309 49.2481V28.0321ZM38.9469 22.7521C38.9469 32.2561 38.9469 39.3601 38.9469 49.2481C38.9469 50.8801 40.1949 52.1281 41.8269 52.1281H56.6109C58.2429 52.1281 59.4909 50.8801 59.4909 49.2481V22.7521C59.4909 21.1201 58.2429 19.8721 56.6109 19.8721H41.8269C40.1949 19.8721 38.9469 21.1201 38.9469 22.7521ZM57.5709 49.2481C57.5709 49.8241 57.1869 50.2081 56.6109 50.2081H41.8269C41.2509 50.2081 40.8669 49.8241 40.8669 49.2481V28.0321H57.5709V49.2481ZM57.5709 22.7521V26.2081H40.8669V22.7521C40.8669 22.1761 41.2509 21.7921 41.8269 21.7921H56.6109C57.1869 21.7921 57.5709 22.1761 57.5709 22.7521Z" fill="#EEEEEE"/>
<path d="M21.1869 38.5919H21.4749C21.6669 38.5919 21.7629 38.4959 21.9549 38.3999C22.0509 38.3039 22.1469 38.2079 22.2429 38.0159L22.5309 36.9599C22.5309 36.8639 22.6269 36.8639 22.6269 36.8639H24.8349C24.9309 36.8639 24.9309 36.8639 24.9309 36.9599L25.2189 38.0159C25.2189 38.2079 25.3149 38.3039 25.5069 38.3999C25.6989 38.4959 25.7949 38.5919 25.8909 38.5919H26.2749C26.3709 38.5919 26.5629 38.4959 26.5629 38.3999C26.6589 38.3039 26.6589 38.2079 26.6589 38.0159L24.6429 31.9679C24.5469 31.7759 24.5469 31.6799 24.3549 31.5839C24.2589 31.4879 24.0669 31.3919 23.8749 31.3919H23.4909C23.2989 31.3919 23.2029 31.3919 23.0109 31.5839C22.9149 31.6799 22.8189 31.7759 22.7229 31.9679L20.7069 38.0159C20.7069 38.1119 20.7069 38.3039 20.8029 38.3999C20.8989 38.4959 20.9949 38.5919 21.1869 38.5919ZM23.6829 32.7359L24.5469 35.8079C24.5469 35.8079 24.5469 35.8079 24.5469 35.9039C24.5469 35.9039 24.5469 35.9039 24.4509 35.9039H22.8189C22.8189 35.9039 22.8189 35.9039 22.7229 35.9039C22.7229 35.9039 22.7229 35.9039 22.7229 35.8079L23.6829 32.7359ZM47.2989 38.5919C47.7789 38.6879 48.2589 38.6879 48.7389 38.6879C49.6989 38.6879 50.4669 38.4959 50.9469 38.1119C51.4269 37.7279 51.6189 37.2479 51.6189 36.4799C51.6189 35.9999 51.4269 35.6159 51.1389 35.3279C50.8509 35.0399 50.4669 34.8479 49.8909 34.7519C50.2749 34.6559 50.6589 34.4639 50.9469 34.1759C51.2349 33.8879 51.3309 33.5039 51.3309 33.1199C51.3309 31.9679 50.4669 31.3919 48.6429 31.3919C48.1629 31.3919 47.7789 31.3919 47.2989 31.4879C47.1069 31.4879 47.0109 31.5839 46.9149 31.6799C46.8189 31.7759 46.7229 31.9679 46.7229 32.0639V37.9199C46.7229 38.1119 46.8189 38.2079 46.9149 38.3039C47.0109 38.4959 47.2029 38.5919 47.2989 38.5919ZM48.0669 32.6399C48.0669 32.5439 48.0669 32.5439 48.1629 32.5439C48.3549 32.5439 48.5469 32.5439 48.7389 32.5439C49.2189 32.5439 49.6029 32.6399 49.7949 32.7359C49.9869 32.9279 50.0829 33.1199 50.0829 33.4079C50.0829 33.6959 49.9869 33.9839 49.6989 34.1759C49.4109 34.3679 49.0269 34.4639 48.3549 34.4639H48.0669C47.9709 34.4639 47.9709 34.4639 47.9709 34.3679V32.6399H48.0669ZM48.0669 35.4239L48.4509 35.3279C49.1229 35.3279 49.6029 35.4239 49.8909 35.6159C50.1789 35.8079 50.2749 36.0959 50.2749 36.3839C50.2749 36.7679 50.1789 37.0559 49.8909 37.2479C49.6029 37.4399 49.2189 37.5359 48.7389 37.5359C48.5469 37.5359 48.3549 37.5359 48.0669 37.4399C47.9709 37.4399 47.9709 37.4399 47.9709 37.3439V35.4239H48.0669ZM48.7389 16.5119C41.2509 11.8079 31.6509 11.8079 24.1629 16.5119C23.6829 16.7999 23.5869 17.3759 23.8749 17.8559C24.1629 18.3359 24.7389 18.4319 25.2189 18.1439C32.0349 13.8239 40.8669 13.8239 47.6829 18.1439C48.1629 18.4319 48.7389 18.3359 49.0269 17.8559C49.3149 17.3759 49.1229 16.7999 48.7389 16.5119ZM23.8749 54.1439C23.5869 54.6239 23.6829 55.1999 24.1629 55.4879C27.9069 57.8879 32.2269 59.0399 36.4509 59.0399C40.6749 59.0399 44.9949 57.8879 48.7389 55.4879C49.2189 55.1999 49.3149 54.6239 49.0269 54.1439C48.7389 53.6639 48.1629 53.5679 47.6829 53.8559C40.8669 58.1759 32.0349 58.1759 25.2189 53.8559C24.7389 53.5679 24.1629 53.7599 23.8749 54.1439ZM17.7309 42.9119H29.7309C30.3069 42.9119 30.6909 42.5279 30.6909 41.9519C30.6909 41.3759 30.3069 40.9919 29.7309 40.9919H17.7309C17.1549 40.9919 16.7709 41.3759 16.7709 41.9519C16.7709 42.5279 17.1549 42.9119 17.7309 42.9119ZM17.7309 46.9439H29.7309C30.3069 46.9439 30.6909 46.5599 30.6909 45.9839C30.6909 45.4079 30.3069 45.0239 29.7309 45.0239H17.7309C17.1549 45.0239 16.7709 45.4079 16.7709 45.9839C16.7709 46.5599 17.1549 46.9439 17.7309 46.9439ZM43.1709 42.9119H55.1709C55.7469 42.9119 56.1309 42.5279 56.1309 41.9519C56.1309 41.3759 55.7469 40.9919 55.1709 40.9919H43.1709C42.5949 40.9919 42.2109 41.3759 42.2109 41.9519C42.2109 42.5279 42.6909 42.9119 43.1709 42.9119ZM43.1709 46.9439H55.1709C55.7469 46.9439 56.1309 46.5599 56.1309 45.9839C56.1309 45.4079 55.7469 45.0239 55.1709 45.0239H43.1709C42.5949 45.0239 42.2109 45.4079 42.2109 45.9839C42.2109 46.5599 42.6909 46.9439 43.1709 46.9439ZM17.9229 22.8479H17.4429C16.8669 22.8479 16.4829 23.2319 16.4829 23.8079C16.4829 24.3839 16.8669 24.7679 17.4429 24.7679H17.9229C18.4989 24.7679 18.8829 24.3839 18.8829 23.8079C18.8829 23.2319 18.4989 22.8479 17.9229 22.8479ZM20.9949 22.8479H20.5149C19.9389 22.8479 19.5549 23.2319 19.5549 23.8079C19.5549 24.3839 19.9389 24.7679 20.5149 24.7679H20.9949C21.5709 24.7679 21.9549 24.3839 21.9549 23.8079C21.9549 23.2319 21.4749 22.8479 20.9949 22.8479ZM43.0749 24.9599H43.5549C44.1309 24.9599 44.5149 24.5759 44.5149 23.9999C44.5149 23.4239 44.1309 23.0399 43.5549 23.0399H43.0749C42.4989 23.0399 42.1149 23.4239 42.1149 23.9999C42.1149 24.5759 42.4989 24.9599 43.0749 24.9599ZM46.1469 24.9599H46.6269C47.2029 24.9599 47.5869 24.5759 47.5869 23.9999C47.5869 23.4239 47.2029 23.0399 46.6269 23.0399H46.1469C45.5709 23.0399 45.1869 23.4239 45.1869 23.9999C45.1869 24.5759 45.5709 24.9599 46.1469 24.9599Z" fill="#EEEEEE"/>
</svg>
