<svg width="72" height="72" viewBox="0 0 72 72" fill="none" xmlns="http://www.w3.org/2000/svg">
<rect width="72" height="72" rx="8" fill="#156664"/>
<path d="M54 58H24C23.2044 58 22.4413 57.6839 21.8787 57.1213C21.3161 56.5587 21 55.7956 21 55V54H51C51 55.1 50.88 56.12 51.88 57.12C52.4421 57.6828 53.2046 57.9993 54 58Z" fill="#156664"/>
<path d="M57 55C56.7348 55 56.4804 54.8946 56.2929 54.7071C56.1054 54.5196 56 54.2652 56 54V15H28V54C28 54.2652 27.8946 54.5196 27.7071 54.7071C27.5196 54.8946 27.2652 55 27 55C26.7348 55 26.4804 54.8946 26.2929 54.7071C26.1054 54.5196 26 54.2652 26 54V14C26 13.7348 26.1054 13.4804 26.2929 13.2929C26.4804 13.1054 26.7348 13 27 13H57C57.2652 13 57.5196 13.1054 57.7071 13.2929C57.8946 13.4804 58 13.7348 58 14V54C58 54.2652 57.8946 54.5196 57.7071 54.7071C57.5196 54.8946 57.2652 55 57 55Z" fill="#EEEEEE"/>
<path d="M41 38H31C30.7348 38 30.4804 37.8946 30.2929 37.7071C30.1054 37.5196 30 37.2652 30 37C30 36.7348 30.1054 36.4804 30.2929 36.2929C30.4804 36.1054 30.7348 36 31 36H41C41.2652 36 41.5196 36.1054 41.7071 36.2929C41.8946 36.4804 42 36.7348 42 37C42 37.2652 41.8946 37.5196 41.7071 37.7071C41.5196 37.8946 41.2652 38 41 38ZM53 42H31C30.7348 42 30.4804 41.8946 30.2929 41.7071C30.1054 41.5196 30 41.2652 30 41C30 40.7348 30.1054 40.4804 30.2929 40.2929C30.4804 40.1054 30.7348 40 31 40H53C53.2652 40 53.5196 40.1054 53.7071 40.2929C53.8946 40.4804 54 40.7348 54 41C54 41.2652 53.8946 41.5196 53.7071 41.7071C53.5196 41.8946 53.2652 42 53 42ZM53 50H31C30.7348 50 30.4804 49.8946 30.2929 49.7071C30.1054 49.5196 30 49.2652 30 49C30 48.7348 30.1054 48.4804 30.2929 48.2929C30.4804 48.1054 30.7348 48 31 48H53C53.2652 48 53.5196 48.1054 53.7071 48.2929C53.8946 48.4804 54 48.7348 54 49C54 49.2652 53.8946 49.5196 53.7071 49.7071C53.5196 49.8946 53.2652 50 53 50ZM53 46H41C40.7348 46 40.4804 45.8946 40.2929 45.7071C40.1054 45.5196 40 45.2652 40 45C40 44.7348 40.1054 44.4804 40.2929 44.2929C40.4804 44.1054 40.7348 44 41 44H53C53.2652 44 53.5196 44.1054 53.7071 44.2929C53.8946 44.4804 54 44.7348 54 45C54 45.2652 53.8946 45.5196 53.7071 45.7071C53.5196 45.8946 53.2652 46 53 46ZM37 46H31C30.7348 46 30.4804 45.8946 30.2929 45.7071C30.1054 45.5196 30 45.2652 30 45C30 44.7348 30.1054 44.4804 30.2929 44.2929C30.4804 44.1054 30.7348 44 31 44H37C37.2652 44 37.5196 44.1054 37.7071 44.2929C37.8946 44.4804 38 44.7348 38 45C38 45.2652 37.8946 45.5196 37.7071 45.7071C37.5196 45.8946 37.2652 46 37 46Z" fill="#EEEEEE"/>
<path d="M54 59C52.9391 59 51.9217 58.5786 51.1716 57.8284C50.4214 57.0783 50 56.0609 50 55V54C50 53.7348 50.1054 53.4804 50.2929 53.2929C50.4804 53.1054 50.7348 53 51 53C51.2652 53 51.5196 53.1054 51.7071 53.2929C51.8946 53.4804 52 53.7348 52 54V55C52 55.5304 52.2107 56.0391 52.5858 56.4142C52.9609 56.7893 53.4696 57 54 57C54.5304 57 55.0391 56.7893 55.4142 56.4142C55.7893 56.0391 56 55.5304 56 55V54C56 53.7348 56.1054 53.4804 56.2929 53.2929C56.4804 53.1054 56.7348 53 57 53C57.2652 53 57.5196 53.1054 57.7071 53.2929C57.8946 53.4804 58 53.7348 58 54V55C58 56.0609 57.5786 57.0783 56.8284 57.8284C56.0783 58.5786 55.0609 59 54 59ZM24 59C22.9391 59 21.9217 58.5786 21.1716 57.8284C20.4214 57.0783 20 56.0609 20 55V54C20 53.7348 20.1054 53.4804 20.2929 53.2929C20.4804 53.1054 20.7348 53 21 53C21.2652 53 21.5196 53.1054 21.7071 53.2929C21.8946 53.4804 22 53.7348 22 54V55C22 55.5304 22.2107 56.0391 22.5858 56.4142C22.9609 56.7893 23.4696 57 24 57C24.2652 57 24.5196 57.1054 24.7071 57.2929C24.8946 57.4804 25 57.7348 25 58C25 58.2652 24.8946 58.5196 24.7071 58.7071C24.5196 58.8946 24.2652 59 24 59Z" fill="#EEEEEE"/>
<path d="M54 59H24C23.7348 59 23.4804 58.8946 23.2929 58.7071C23.1054 58.5196 23 58.2652 23 58C23 57.7348 23.1054 57.4804 23.2929 57.2929C23.4804 57.1054 23.7348 57 24 57H54C54.2652 57 54.5196 57.1054 54.7071 57.2929C54.8946 57.4804 55 57.7348 55 58C55 58.2652 54.8946 58.5196 54.7071 58.7071C54.5196 58.8946 54.2652 59 54 59ZM51 55H21C20.7348 55 20.4804 54.8946 20.2929 54.7071C20.1054 54.5196 20 54.2652 20 54C20 53.7348 20.1054 53.4804 20.2929 53.2929C20.4804 53.1054 20.7348 53 21 53H51C51.2652 53 51.5196 53.1054 51.7071 53.2929C51.8946 53.4804 52 53.7348 52 54C52 54.2652 51.8946 54.5196 51.7071 54.7071C51.5196 54.8946 51.2652 55 51 55Z" fill="#EEEEEE"/>
<path d="M53 26C53 26 48.08 32 42 32C35.92 32 31 26 31 26C31 26 35.92 20 42 20C48.08 20 53 26 53 26Z" fill="#EEEEEE"/>
<path d="M42 30C41.4233 30.0023 40.8529 29.8799 40.3279 29.6412C39.8029 29.4025 39.3358 29.0531 38.9585 28.617C38.5812 28.1808 38.3027 27.6683 38.142 27.1144C37.9813 26.5605 37.9423 25.9785 38.0277 25.4081C38.113 24.8378 38.3207 24.2926 38.6364 23.81C38.9521 23.3275 39.3685 22.9188 39.8569 22.6122C40.3453 22.3056 40.8943 22.1082 41.4661 22.0336C42.038 21.959 42.6192 22.0089 43.17 22.18C42.8751 22.3135 42.617 22.5166 42.4179 22.7719C42.2188 23.0272 42.0846 23.3269 42.0269 23.6455C41.9692 23.964 41.9897 24.2918 42.0867 24.6007C42.1836 24.9096 42.354 25.1903 42.5834 25.4188C42.8127 25.6473 43.0941 25.8167 43.4033 25.9124C43.7126 26.0082 44.0405 26.0274 44.3588 25.9685C44.6771 25.9096 44.9764 25.7743 45.2309 25.5743C45.4854 25.3742 45.6875 25.1154 45.82 24.82C46.0047 25.4182 46.0463 26.0515 45.9417 26.6687C45.837 27.286 45.5889 27.8701 45.2173 28.374C44.8457 28.8779 44.3609 29.2876 43.8021 29.57C43.2434 29.8524 42.6261 29.9997 42 30Z" fill="#156664"/>
<path d="M19 48L17 51L15 48V23C15 22.4696 15.2107 21.9609 15.5858 21.5858C15.9609 21.2107 16.4696 21 17 21C17.5304 21 18.0391 21.2107 18.4142 21.5858C18.7893 21.9609 19 22.4696 19 23V48Z" fill="#156664"/>
<path d="M16.17 51.55L14.17 48.55C13.91 48.17 14 50 14 23C14 22.2044 14.3161 21.4413 14.8787 20.8787C15.4413 20.3161 16.2044 20 17 20C17.7957 20 18.5588 20.3161 19.1214 20.8787C19.684 21.4413 20 22.2044 20 23C20 49.65 20.08 48.18 19.83 48.55L17.83 51.55C17.7386 51.6861 17.615 51.7977 17.4703 51.8748C17.3255 51.9519 17.1641 51.9922 17 51.9922C16.836 51.9922 16.6746 51.9519 16.5298 51.8748C16.3851 51.7977 16.2615 51.6861 16.17 51.55ZM16 47.7L17 49.2L18 47.7V23C18 22.7348 17.8947 22.4804 17.7072 22.2929C17.5196 22.1054 17.2653 22 17 22C16.7348 22 16.4805 22.1054 16.2929 22.2929C16.1054 22.4804 16 22.7348 16 23V47.7Z" fill="#EEEEEE"/>
<path d="M19 31H15C14.7348 31 14.4804 30.8946 14.2929 30.7071C14.1054 30.5196 14 30.2652 14 30V26C14 25.7348 14.1054 25.4804 14.2929 25.2929C14.4804 25.1054 14.7348 25 15 25H19C19.2652 25 19.5196 25.1054 19.7071 25.2929C19.8946 25.4804 20 25.7348 20 26V30C20 30.2652 19.8946 30.5196 19.7071 30.7071C19.5196 30.8946 19.2652 31 19 31ZM16 29H18V27H16V29ZM17 22C16.7348 22 16.4804 21.8946 16.2929 21.7071C16.1054 21.5196 16 21.2652 16 21V17C16 16.7348 16.1054 16.4804 16.2929 16.2929C16.4804 16.1054 16.7348 16 17 16C17.2652 16 17.5196 16.1054 17.7071 16.2929C17.8946 16.4804 18 16.7348 18 17V21C18 21.2652 17.8946 21.5196 17.7071 21.7071C17.5196 21.8946 17.2652 22 17 22Z" fill="#EEEEEE"/>
<path d="M23 34C22.7348 34 22.4804 33.8946 22.2929 33.7071C22.1054 33.5196 22 33.2652 22 33V26C22 24.9391 21.5786 23.9217 20.8284 23.1716C20.0783 22.4214 19.0609 22 18 22H17C16.7348 22 16.4804 21.8946 16.2929 21.7071C16.1054 21.5196 16 21.2652 16 21C16 20.7348 16.1054 20.4804 16.2929 20.2929C16.4804 20.1054 16.7348 20 17 20H18C19.5913 20 21.1174 20.6321 22.2426 21.7574C23.3679 22.8826 24 24.4087 24 26V33C24 33.2652 23.8946 33.5196 23.7071 33.7071C23.5196 33.8946 23.2652 34 23 34Z" fill="#EEEEEE"/>
</svg>
