<svg width="48" height="48" viewBox="0 0 48 48" fill="none" xmlns="http://www.w3.org/2000/svg">
<path d="M42 46H12C11.2044 46 10.4413 45.6839 9.87868 45.1213C9.31607 44.5587 9 43.7956 9 43V42H39C39 43.1 38.88 44.12 39.88 45.12C40.4421 45.6828 41.2046 45.9993 42 46Z" fill="#010101"/>
<path d="M45 43C44.7348 43 44.4804 42.8946 44.2929 42.7071C44.1054 42.5196 44 42.2652 44 42V3H16V42C16 42.2652 15.8946 42.5196 15.7071 42.7071C15.5196 42.8946 15.2652 43 15 43C14.7348 43 14.4804 42.8946 14.2929 42.7071C14.1054 42.5196 14 42.2652 14 42V2C14 1.73478 14.1054 1.48043 14.2929 1.29289C14.4804 1.10536 14.7348 1 15 1H45C45.2652 1 45.5196 1.10536 45.7071 1.29289C45.8946 1.48043 46 1.73478 46 2V42C46 42.2652 45.8946 42.5196 45.7071 42.7071C45.5196 42.8946 45.2652 43 45 43Z" fill="white"/>
<path d="M29 26H19C18.7348 26 18.4804 25.8946 18.2929 25.7071C18.1054 25.5196 18 25.2652 18 25C18 24.7348 18.1054 24.4804 18.2929 24.2929C18.4804 24.1054 18.7348 24 19 24H29C29.2652 24 29.5196 24.1054 29.7071 24.2929C29.8946 24.4804 30 24.7348 30 25C30 25.2652 29.8946 25.5196 29.7071 25.7071C29.5196 25.8946 29.2652 26 29 26ZM41 30H19C18.7348 30 18.4804 29.8946 18.2929 29.7071C18.1054 29.5196 18 29.2652 18 29C18 28.7348 18.1054 28.4804 18.2929 28.2929C18.4804 28.1054 18.7348 28 19 28H41C41.2652 28 41.5196 28.1054 41.7071 28.2929C41.8946 28.4804 42 28.7348 42 29C42 29.2652 41.8946 29.5196 41.7071 29.7071C41.5196 29.8946 41.2652 30 41 30ZM41 38H19C18.7348 38 18.4804 37.8946 18.2929 37.7071C18.1054 37.5196 18 37.2652 18 37C18 36.7348 18.1054 36.4804 18.2929 36.2929C18.4804 36.1054 18.7348 36 19 36H41C41.2652 36 41.5196 36.1054 41.7071 36.2929C41.8946 36.4804 42 36.7348 42 37C42 37.2652 41.8946 37.5196 41.7071 37.7071C41.5196 37.8946 41.2652 38 41 38ZM41 34H29C28.7348 34 28.4804 33.8946 28.2929 33.7071C28.1054 33.5196 28 33.2652 28 33C28 32.7348 28.1054 32.4804 28.2929 32.2929C28.4804 32.1054 28.7348 32 29 32H41C41.2652 32 41.5196 32.1054 41.7071 32.2929C41.8946 32.4804 42 32.7348 42 33C42 33.2652 41.8946 33.5196 41.7071 33.7071C41.5196 33.8946 41.2652 34 41 34ZM25 34H19C18.7348 34 18.4804 33.8946 18.2929 33.7071C18.1054 33.5196 18 33.2652 18 33C18 32.7348 18.1054 32.4804 18.2929 32.2929C18.4804 32.1054 18.7348 32 19 32H25C25.2652 32 25.5196 32.1054 25.7071 32.2929C25.8946 32.4804 26 32.7348 26 33C26 33.2652 25.8946 33.5196 25.7071 33.7071C25.5196 33.8946 25.2652 34 25 34Z" fill="white"/>
<path d="M42 47C40.9391 47 39.9217 46.5786 39.1716 45.8284C38.4214 45.0783 38 44.0609 38 43V42C38 41.7348 38.1054 41.4804 38.2929 41.2929C38.4804 41.1054 38.7348 41 39 41C39.2652 41 39.5196 41.1054 39.7071 41.2929C39.8946 41.4804 40 41.7348 40 42V43C40 43.5304 40.2107 44.0391 40.5858 44.4142C40.9609 44.7893 41.4696 45 42 45C42.5304 45 43.0391 44.7893 43.4142 44.4142C43.7893 44.0391 44 43.5304 44 43V42C44 41.7348 44.1054 41.4804 44.2929 41.2929C44.4804 41.1054 44.7348 41 45 41C45.2652 41 45.5196 41.1054 45.7071 41.2929C45.8946 41.4804 46 41.7348 46 42V43C46 44.0609 45.5786 45.0783 44.8284 45.8284C44.0783 46.5786 43.0609 47 42 47ZM12 47C10.9391 47 9.92172 46.5786 9.17157 45.8284C8.42143 45.0783 8 44.0609 8 43V42C8 41.7348 8.10536 41.4804 8.29289 41.2929C8.48043 41.1054 8.73478 41 9 41C9.26522 41 9.51957 41.1054 9.70711 41.2929C9.89464 41.4804 10 41.7348 10 42V43C10 43.5304 10.2107 44.0391 10.5858 44.4142C10.9609 44.7893 11.4696 45 12 45C12.2652 45 12.5196 45.1054 12.7071 45.2929C12.8946 45.4804 13 45.7348 13 46C13 46.2652 12.8946 46.5196 12.7071 46.7071C12.5196 46.8946 12.2652 47 12 47Z" fill="white"/>
<path d="M42 47H12C11.7348 47 11.4804 46.8946 11.2929 46.7071C11.1054 46.5196 11 46.2652 11 46C11 45.7348 11.1054 45.4804 11.2929 45.2929C11.4804 45.1054 11.7348 45 12 45H42C42.2652 45 42.5196 45.1054 42.7071 45.2929C42.8946 45.4804 43 45.7348 43 46C43 46.2652 42.8946 46.5196 42.7071 46.7071C42.5196 46.8946 42.2652 47 42 47ZM39 43H9C8.73478 43 8.48043 42.8946 8.29289 42.7071C8.10536 42.5196 8 42.2652 8 42C8 41.7348 8.10536 41.4804 8.29289 41.2929C8.48043 41.1054 8.73478 41 9 41H39C39.2652 41 39.5196 41.1054 39.7071 41.2929C39.8946 41.4804 40 41.7348 40 42C40 42.2652 39.8946 42.5196 39.7071 42.7071C39.5196 42.8946 39.2652 43 39 43Z" fill="white"/>
<path d="M41 14C41 14 36.08 20 30 20C23.92 20 19 14 19 14C19 14 23.92 8 30 8C36.08 8 41 14 41 14Z" fill="white"/>
<path d="M30 18C29.4233 18.0023 28.8529 17.8799 28.3279 17.6412C27.8029 17.4025 27.3358 17.0531 26.9585 16.617C26.5812 16.1808 26.3027 15.6683 26.142 15.1144C25.9813 14.5605 25.9423 13.9785 26.0277 13.4081C26.113 12.8378 26.3207 12.2926 26.6364 11.81C26.9521 11.3275 27.3685 10.9188 27.8569 10.6122C28.3453 10.3056 28.8943 10.1082 29.4661 10.0336C30.038 9.95901 30.6192 10.0089 31.17 10.18C30.8751 10.3135 30.617 10.5166 30.4179 10.7719C30.2188 11.0272 30.0846 11.3269 30.0269 11.6455C29.9692 11.964 29.9897 12.2918 30.0867 12.6007C30.1836 12.9096 30.354 13.1903 30.5834 13.4188C30.8127 13.6473 31.0941 13.8167 31.4033 13.9124C31.7126 14.0082 32.0405 14.0274 32.3588 13.9685C32.6771 13.9096 32.9764 13.7743 33.2309 13.5743C33.4854 13.3742 33.6875 13.1154 33.82 12.82C34.0047 13.4182 34.0463 14.0515 33.9417 14.6687C33.837 15.286 33.5889 15.8701 33.2173 16.374C32.8457 16.8779 32.3609 17.2876 31.8021 17.57C31.2434 17.8524 30.6261 17.9997 30 18Z" fill="#010101"/>
<path d="M7 36L5 39L3 36V11C3 10.4696 3.21071 9.96086 3.58579 9.58579C3.96086 9.21071 4.46957 9 5 9C5.53043 9 6.03914 9.21071 6.41421 9.58579C6.78929 9.96086 7 10.4696 7 11V36Z" fill="#010101"/>
<path d="M4.17005 39.55L2.17005 36.55C1.91005 36.17 2.00005 38 2.00005 11C2.00005 10.2044 2.31612 9.44129 2.87873 8.87868C3.44134 8.31607 4.2044 8 5.00005 8C5.7957 8 6.55876 8.31607 7.12137 8.87868C7.68398 9.44129 8.00005 10.2044 8.00005 11C8.00005 37.65 8.08005 36.18 7.83005 36.55L5.83005 39.55C5.73857 39.6861 5.61502 39.7977 5.47028 39.8748C5.32554 39.9519 5.16405 39.9922 5.00005 39.9922C4.83604 39.9922 4.67456 39.9519 4.52982 39.8748C4.38507 39.7977 4.26152 39.6861 4.17005 39.55ZM4.00005 35.7L5.00005 37.2L6.00005 35.7V11C6.00005 10.7348 5.89469 10.4804 5.70715 10.2929C5.51962 10.1054 5.26526 10 5.00005 10C4.73483 10 4.48048 10.1054 4.29294 10.2929C4.1054 10.4804 4.00005 10.7348 4.00005 11V35.7Z" fill="white"/>
<path d="M7 19H3C2.73478 19 2.48043 18.8946 2.29289 18.7071C2.10536 18.5196 2 18.2652 2 18V14C2 13.7348 2.10536 13.4804 2.29289 13.2929C2.48043 13.1054 2.73478 13 3 13H7C7.26522 13 7.51957 13.1054 7.70711 13.2929C7.89464 13.4804 8 13.7348 8 14V18C8 18.2652 7.89464 18.5196 7.70711 18.7071C7.51957 18.8946 7.26522 19 7 19ZM4 17H6V15H4V17ZM5 10C4.73478 10 4.48043 9.89464 4.29289 9.70711C4.10536 9.51957 4 9.26522 4 9V5C4 4.73478 4.10536 4.48043 4.29289 4.29289C4.48043 4.10536 4.73478 4 5 4C5.26522 4 5.51957 4.10536 5.70711 4.29289C5.89464 4.48043 6 4.73478 6 5V9C6 9.26522 5.89464 9.51957 5.70711 9.70711C5.51957 9.89464 5.26522 10 5 10Z" fill="white"/>
<path d="M11 22C10.7348 22 10.4804 21.8946 10.2929 21.7071C10.1054 21.5196 10 21.2652 10 21V14C10 12.9391 9.57857 11.9217 8.82843 11.1716C8.07828 10.4214 7.06087 10 6 10H5C4.73478 10 4.48043 9.89464 4.29289 9.70711C4.10536 9.51957 4 9.26522 4 9C4 8.73478 4.10536 8.48043 4.29289 8.29289C4.48043 8.10536 4.73478 8 5 8H6C7.5913 8 9.11742 8.63214 10.2426 9.75736C11.3679 10.8826 12 12.4087 12 14V21C12 21.2652 11.8946 21.5196 11.7071 21.7071C11.5196 21.8946 11.2652 22 11 22Z" fill="white"/>
</svg>
