<svg width="48" height="49" viewBox="0 0 48 49" fill="none" xmlns="http://www.w3.org/2000/svg">
<rect y="0.189941" width="48" height="48" rx="8" fill="#166663"/>
<g clip-path="url(#clip0_1876_913)">
<path d="M36 38.8566H16C15.4696 38.8566 14.9609 38.6459 14.5858 38.2708C14.2107 37.8957 14 37.387 14 36.8566V36.1899H34C34 36.9233 33.92 37.6033 34.5867 38.2699C34.9614 38.6451 35.4697 38.8561 36 38.8566Z" fill="#166663"/>
<path d="M38.0002 36.8564C37.8234 36.8564 37.6538 36.7862 37.5288 36.6612C37.4037 36.5362 37.3335 36.3666 37.3335 36.1898V10.1898H18.6668V36.1898C18.6668 36.3666 18.5966 36.5362 18.4716 36.6612C18.3465 36.7862 18.177 36.8564 18.0002 36.8564C17.8234 36.8564 17.6538 36.7862 17.5288 36.6612C17.4037 36.5362 17.3335 36.3666 17.3335 36.1898V9.52311C17.3335 9.3463 17.4037 9.17673 17.5288 9.05171C17.6538 8.92668 17.8234 8.85645 18.0002 8.85645H38.0002C38.177 8.85645 38.3465 8.92668 38.4716 9.05171C38.5966 9.17673 38.6668 9.3463 38.6668 9.52311V36.1898C38.6668 36.3666 38.5966 36.5362 38.4716 36.6612C38.3465 36.7862 38.177 36.8564 38.0002 36.8564Z" fill="#EEEEEE"/>
<path d="M27.3333 25.5233H20.6667C20.4899 25.5233 20.3203 25.453 20.1953 25.328C20.0702 25.203 20 25.0334 20 24.8566C20 24.6798 20.0702 24.5102 20.1953 24.3852C20.3203 24.2602 20.4899 24.1899 20.6667 24.1899H27.3333C27.5101 24.1899 27.6797 24.2602 27.8047 24.3852C27.9298 24.5102 28 24.6798 28 24.8566C28 25.0334 27.9298 25.203 27.8047 25.328C27.6797 25.453 27.5101 25.5233 27.3333 25.5233ZM35.3333 28.1899H20.6667C20.4899 28.1899 20.3203 28.1197 20.1953 27.9947C20.0702 27.8697 20 27.7001 20 27.5233C20 27.3465 20.0702 27.1769 20.1953 27.0519C20.3203 26.9268 20.4899 26.8566 20.6667 26.8566H35.3333C35.5101 26.8566 35.6797 26.9268 35.8047 27.0519C35.9298 27.1769 36 27.3465 36 27.5233C36 27.7001 35.9298 27.8697 35.8047 27.9947C35.6797 28.1197 35.5101 28.1899 35.3333 28.1899ZM35.3333 33.5233H20.6667C20.4899 33.5233 20.3203 33.453 20.1953 33.328C20.0702 33.203 20 33.0334 20 32.8566C20 32.6798 20.0702 32.5102 20.1953 32.3852C20.3203 32.2602 20.4899 32.1899 20.6667 32.1899H35.3333C35.5101 32.1899 35.6797 32.2602 35.8047 32.3852C35.9298 32.5102 36 32.6798 36 32.8566C36 33.0334 35.9298 33.203 35.8047 33.328C35.6797 33.453 35.5101 33.5233 35.3333 33.5233ZM35.3333 30.8566H27.3333C27.1565 30.8566 26.987 30.7864 26.8619 30.6613C26.7369 30.5363 26.6667 30.3668 26.6667 30.1899C26.6667 30.0131 26.7369 29.8436 26.8619 29.7185C26.987 29.5935 27.1565 29.5233 27.3333 29.5233H35.3333C35.5101 29.5233 35.6797 29.5935 35.8047 29.7185C35.9298 29.8436 36 30.0131 36 30.1899C36 30.3668 35.9298 30.5363 35.8047 30.6613C35.6797 30.7864 35.5101 30.8566 35.3333 30.8566ZM24.6667 30.8566H20.6667C20.4899 30.8566 20.3203 30.7864 20.1953 30.6613C20.0702 30.5363 20 30.3668 20 30.1899C20 30.0131 20.0702 29.8436 20.1953 29.7185C20.3203 29.5935 20.4899 29.5233 20.6667 29.5233H24.6667C24.8435 29.5233 25.013 29.5935 25.1381 29.7185C25.2631 29.8436 25.3333 30.0131 25.3333 30.1899C25.3333 30.3668 25.2631 30.5363 25.1381 30.6613C25.013 30.7864 24.8435 30.8566 24.6667 30.8566Z" fill="#EEEEEE"/>
<path d="M36.0002 39.5234C35.2929 39.5234 34.6146 39.2425 34.1145 38.7424C33.6144 38.2423 33.3335 37.564 33.3335 36.8568V36.1901C33.3335 36.0133 33.4037 35.8437 33.5288 35.7187C33.6538 35.5937 33.8234 35.5234 34.0002 35.5234C34.177 35.5234 34.3465 35.5937 34.4716 35.7187C34.5966 35.8437 34.6668 36.0133 34.6668 36.1901V36.8568C34.6668 37.2104 34.8073 37.5495 35.0574 37.7996C35.3074 38.0496 35.6465 38.1901 36.0002 38.1901C36.3538 38.1901 36.6929 38.0496 36.943 37.7996C37.193 37.5495 37.3335 37.2104 37.3335 36.8568V36.1901C37.3335 36.0133 37.4037 35.8437 37.5288 35.7187C37.6538 35.5937 37.8234 35.5234 38.0002 35.5234C38.177 35.5234 38.3465 35.5937 38.4716 35.7187C38.5966 35.8437 38.6668 36.0133 38.6668 36.1901V36.8568C38.6668 37.564 38.3859 38.2423 37.8858 38.7424C37.3857 39.2425 36.7074 39.5234 36.0002 39.5234ZM16.0002 39.5234C15.2929 39.5234 14.6146 39.2425 14.1145 38.7424C13.6144 38.2423 13.3335 37.564 13.3335 36.8568V36.1901C13.3335 36.0133 13.4037 35.8437 13.5288 35.7187C13.6538 35.5937 13.8234 35.5234 14.0002 35.5234C14.177 35.5234 14.3465 35.5937 14.4716 35.7187C14.5966 35.8437 14.6668 36.0133 14.6668 36.1901V36.8568C14.6668 37.2104 14.8073 37.5495 15.0574 37.7996C15.3074 38.0496 15.6465 38.1901 16.0002 38.1901C16.177 38.1901 16.3465 38.2603 16.4716 38.3854C16.5966 38.5104 16.6668 38.68 16.6668 38.8568C16.6668 39.0336 16.5966 39.2032 16.4716 39.3282C16.3465 39.4532 16.177 39.5234 16.0002 39.5234Z" fill="#EEEEEE"/>
<path d="M36.0002 39.5234H16.0002C15.8234 39.5234 15.6538 39.4532 15.5288 39.3282C15.4037 39.2032 15.3335 39.0336 15.3335 38.8568C15.3335 38.68 15.4037 38.5104 15.5288 38.3854C15.6538 38.2603 15.8234 38.1901 16.0002 38.1901H36.0002C36.177 38.1901 36.3465 38.2603 36.4716 38.3854C36.5966 38.5104 36.6668 38.68 36.6668 38.8568C36.6668 39.0336 36.5966 39.2032 36.4716 39.3282C36.3465 39.4532 36.177 39.5234 36.0002 39.5234ZM34.0002 36.8568H14.0002C13.8234 36.8568 13.6538 36.7865 13.5288 36.6615C13.4037 36.5365 13.3335 36.3669 13.3335 36.1901C13.3335 36.0133 13.4037 35.8437 13.5288 35.7187C13.6538 35.5937 13.8234 35.5234 14.0002 35.5234H34.0002C34.177 35.5234 34.3465 35.5937 34.4716 35.7187C34.5966 35.8437 34.6668 36.0133 34.6668 36.1901C34.6668 36.3669 34.5966 36.5365 34.4716 36.6615C34.3465 36.7865 34.177 36.8568 34.0002 36.8568Z" fill="#EEEEEE"/>
<path d="M35.3332 17.5234C35.3332 17.5234 32.0532 21.5234 27.9998 21.5234C23.9465 21.5234 20.6665 17.5234 20.6665 17.5234C20.6665 17.5234 23.9465 13.5234 27.9998 13.5234C32.0532 13.5234 35.3332 17.5234 35.3332 17.5234Z" fill="#EEEEEE"/>
<path d="M27.9998 20.1898C27.6153 20.1913 27.2351 20.1097 26.8851 19.9506C26.5351 19.7915 26.2237 19.5585 25.9722 19.2678C25.7206 18.977 25.535 18.6353 25.4278 18.266C25.3207 17.8968 25.2947 17.5088 25.3516 17.1285C25.4085 16.7483 25.5469 16.3849 25.7574 16.0631C25.9679 15.7414 26.2455 15.469 26.5711 15.2646C26.8967 15.0602 27.2627 14.9286 27.6439 14.8789C28.0252 14.8291 28.4126 14.8624 28.7798 14.9764C28.5832 15.0654 28.4112 15.2009 28.2784 15.371C28.1457 15.5412 28.0563 15.7411 28.0178 15.9534C27.9793 16.1658 27.993 16.3843 28.0576 16.5902C28.1222 16.7962 28.2359 16.9833 28.3888 17.1356C28.5417 17.288 28.7292 17.4009 28.9354 17.4647C29.1416 17.5286 29.3601 17.5414 29.5724 17.5021C29.7846 17.4629 29.9841 17.3727 30.1538 17.2393C30.3234 17.1059 30.4582 16.9334 30.5465 16.7364C30.6696 17.1353 30.6974 17.5574 30.6276 17.9689C30.5578 18.3805 30.3924 18.7699 30.1447 19.1058C29.8969 19.4417 29.5738 19.7148 29.2013 19.9031C28.8287 20.0914 28.4172 20.1895 27.9998 20.1898Z" fill="#166663"/>
<path d="M12.6667 32.1899L11.3333 34.1899L10 32.1899V15.5233C10 15.1697 10.1405 14.8305 10.3905 14.5805C10.6406 14.3304 10.9797 14.1899 11.3333 14.1899C11.687 14.1899 12.0261 14.3304 12.2761 14.5805C12.5262 14.8305 12.6667 15.1697 12.6667 15.5233V32.1899Z" fill="#166663"/>
<path d="M10.78 34.5568L9.44662 32.5568C9.27328 32.3034 9.33328 33.5234 9.33328 15.5234C9.33328 14.993 9.544 14.4843 9.91907 14.1092C10.2941 13.7342 10.8029 13.5234 11.3333 13.5234C11.8637 13.5234 12.3724 13.7342 12.7475 14.1092C13.1226 14.4843 13.3333 14.993 13.3333 15.5234C13.3333 33.2901 13.3866 32.3101 13.22 32.5568L11.8866 34.5568C11.8256 34.6475 11.7433 34.7219 11.6468 34.7733C11.5503 34.8247 11.4426 34.8516 11.3333 34.8516C11.2239 34.8516 11.1163 34.8247 11.0198 34.7733C10.9233 34.7219 10.8409 34.6475 10.78 34.5568ZM10.6666 31.9901L11.3333 32.9901L12 31.9901V15.5234C12 15.3466 11.9297 15.1771 11.8047 15.052C11.6797 14.927 11.5101 14.8568 11.3333 14.8568C11.1565 14.8568 10.9869 14.927 10.8619 15.052C10.7369 15.1771 10.6666 15.3466 10.6666 15.5234V31.9901Z" fill="#EEEEEE"/>
<path d="M12.6668 20.8564H10.0002C9.82335 20.8564 9.65378 20.7862 9.52876 20.6612C9.40373 20.5362 9.3335 20.3666 9.3335 20.1898V17.5231C9.3335 17.3463 9.40373 17.1767 9.52876 17.0517C9.65378 16.9267 9.82335 16.8564 10.0002 16.8564H12.6668C12.8436 16.8564 13.0132 16.9267 13.1382 17.0517C13.2633 17.1767 13.3335 17.3463 13.3335 17.5231V20.1898C13.3335 20.3666 13.2633 20.5362 13.1382 20.6612C13.0132 20.7862 12.8436 20.8564 12.6668 20.8564ZM10.6668 19.5231H12.0002V18.1898H10.6668V19.5231ZM11.3335 14.8564C11.1567 14.8564 10.9871 14.7862 10.8621 14.6612C10.7371 14.5362 10.6668 14.3666 10.6668 14.1898V11.5231C10.6668 11.3463 10.7371 11.1767 10.8621 11.0517C10.9871 10.9267 11.1567 10.8564 11.3335 10.8564C11.5103 10.8564 11.6799 10.9267 11.8049 11.0517C11.9299 11.1767 12.0002 11.3463 12.0002 11.5231V14.1898C12.0002 14.3666 11.9299 14.5362 11.8049 14.6612C11.6799 14.7862 11.5103 14.8564 11.3335 14.8564Z" fill="#EEEEEE"/>
<path d="M15.3332 22.8568C15.1564 22.8568 14.9868 22.7865 14.8618 22.6615C14.7367 22.5365 14.6665 22.3669 14.6665 22.1901V17.5234C14.6665 16.8162 14.3856 16.1379 13.8855 15.6378C13.3854 15.1377 12.7071 14.8568 11.9998 14.8568H11.3332C11.1564 14.8568 10.9868 14.7865 10.8618 14.6615C10.7367 14.5365 10.6665 14.3669 10.6665 14.1901C10.6665 14.0133 10.7367 13.8437 10.8618 13.7187C10.9868 13.5937 11.1564 13.5234 11.3332 13.5234H11.9998C13.0607 13.5234 14.0781 13.9449 14.8283 14.695C15.5784 15.4452 15.9998 16.4626 15.9998 17.5234V22.1901C15.9998 22.3669 15.9296 22.5365 15.8046 22.6615C15.6796 22.7865 15.51 22.8568 15.3332 22.8568Z" fill="#EEEEEE"/>
</g>
<defs>
<clipPath id="clip0_1876_913">
<rect width="32" height="32" fill="white" transform="translate(8 8.18994)"/>
</clipPath>
</defs>
</svg>
