<svg width="32" height="32" viewBox="0 0 32 32" fill="none" xmlns="http://www.w3.org/2000/svg">
<path d="M22.4266 27.6907L5.00396 5.29067C4.91213 5.17241 4.85533 5.03076 4.84001 4.88183C4.8247 4.73289 4.85149 4.58265 4.91733 4.44818C4.98317 4.31371 5.08543 4.20042 5.21247 4.12119C5.33951 4.04196 5.48624 3.99997 5.63596 4H8.94262C9.06435 4.00018 9.18443 4.02814 9.29372 4.08174C9.40301 4.13535 9.49863 4.21319 9.57329 4.30933L26.996 26.7093C27.0878 26.8276 27.1446 26.9692 27.1599 27.1182C27.1752 27.2671 27.1484 27.4174 27.0826 27.5518C27.0167 27.6863 26.9145 27.7996 26.7874 27.8788C26.6604 27.958 26.5137 28 26.364 28H23.0573C22.9356 27.9998 22.8155 27.9719 22.7062 27.9183C22.5969 27.8647 22.5013 27.7868 22.4266 27.6907Z" stroke="#010101" stroke-width="1.5"/>
<path d="M26.6666 4L5.33325 28" stroke="#010101" stroke-width="1.5" stroke-linecap="round"/>
</svg>
